<?xml version="1.0" encoding="utf-8" standalone="yes"?>
<!DOCTYPE svg PUBLIC "-//W3C//DTD SVG 1.1//EN" "http://www.w3.org/Graphics/SVG/1.1/DTD/svg11.dtd">
<svg width="902" height="848" viewBox="0 0 902 848" style="fill:none;stroke:none;fill-rule:evenodd;clip-rule:evenodd;stroke-linecap:round;stroke-linejoin:round;stroke-miterlimit:1.5;" version="1.1" xmlns="http://www.w3.org/2000/svg" xmlns:xlink="http://www.w3.org/1999/xlink"><style class="text-font-style fontImports" data-font-family="Roboto">@import url('https://fonts.googleapis.com/css2?family=Roboto:wght@400;700&amp;display=block');</style><g id="items" style="isolation: isolate"><g id="blend" style="mix-blend-mode: normal"><g id="g-root-0.g-0_fr_quoacv5c1tl0-fill" data-item-order="-608318" transform="translate(357, 309)"><g id="0.g-0_fr_quoacv5c1tl0-fill" stroke="none" fill="url(#gradient-8a8a8a-330675446)"><g><path d="M 54.3525 19.9268C 66.1619 13.5926 79.6614 10 94 10C 111.195 10 127.183 15.1663 140.496 24.0313L 141.5 32.5L 149.859 31.2632C 167.126 46.648 178 69.0541 178 94C 178 100.7292 177.209 107.2735 175.714 113.545L 168 117.5L 172.063 125.08C 160.387 154.379 132.695 175.559 99.8026 177.803L 93.9999 172L 88.1972 177.803C 54.9051 175.531 26.9404 153.861 15.5189 124.009L 19.5 116.5L 12.0549 112.549C 10.7099 106.5818 10 100.3738 10 94C 10 65.5024 24.191 40.3193 45.8918 25.1319L 52.9999 26.5L 54.3525 19.9268Z"></path></g></g></g><g id="g-root-5.g-5_fr_hznr735c1r7y-fill" data-item-order="-608314" transform="translate(211.24099731445312, 153)"><g id="5.g-5_fr_hznr735c1r7y-fill" stroke="none" fill="url(#gradient-2898bd-56937253)"><g><path d="M 96.662 57.3257C 138.041 26.5938 188.215 10 239.758 10L 239.758 93.8849C 218.089 93.8849 196.791 98.3939 177.169 106.9806L 199.031 139.483L 208.988 132.786L 198.758 182.5L 149.246 172.97L 159.203 166.273L 136.665 132.766C 114.849 151.95 98.7504 176.907 90.3052 204.882L 10 180.638C 24.8964 131.295 55.2826 88.0575 96.662 57.3257Z"></path></g></g></g><g id="g-root-4.g-4_fr_dju92n5c1s08-fill" data-item-order="-608306" transform="translate(200.99996948242188, 322.8990478515625)"><g id="4.g-4_fr_dju92n5c1s08-fill" stroke="none" fill="url(#gradient-ce519c-514854702)"><g><path d="M 22.075031 155.269C 37.606131 202.363 67.343731 243.489 107.199431 272.995L 157.111031 205.575C 136.671031 190.443 120.322031 170.612 109.367931 147.885L 147.840031 137.106L 151.077031 148.662L 175.500031 102.601L 131.654031 79.3309L 134.891031 90.886L 95.420431 101.9439C 92.243131 79.4581 93.994631 56.4338 100.692831 34.5017L 20.466031 10C 5.981731 57.4263 6.543831 108.1749 22.075031 155.269Z"></path></g></g></g><g id="g-root-3.g-3_fr_940qy75c1ssi-fill" data-item-order="-608298" transform="translate(297.87200927734375, 470.9998779296875)"><g id="3.g-3_fr_940qy75c1ssi-fill" stroke="none" fill="url(#gradient-c67b35-424552419)"><g><path d="M 177.128 86.2594C 198.336 82.9597 218.745 75.3046 237.024 63.6562L 282.104 134.399C 241.1 160.528 193.127 173.587 144.536 171.846C 95.9453 170.106 49.0293 153.647 10 124.651L 60.0261 57.3156C 80.4428 72.4839 104.1772 82.3776 129.128 86.2595L 129.128 46L 117.128 46L 153.128 10L 189.128 46L 177.128 46L 177.128 86.2594Z"></path></g></g></g><g id="g-root-2.g-2_fr_8dqpb5c1tl8-fill" data-item-order="-608290" transform="translate(515, 326.0050048828125)"><g id="2.g-2_fr_8dqpb5c1tl8-fill" stroke="none" fill="url(#gradient-40ae79-389135447)"><g><path d="M 160.614 161.543C 178.891 112.988 180.942 59.8184 166.46 10L 85.9094 33.416C 92.2752 55.314 93.7302 78.2075 90.336 100.4974L 52.632 88.1246L 56.3735 76.7228L 10 100.4947L 33.9241 145.133L 37.6657 133.732L 75.8992 146.278C 63.323 171.673 44.0199 193.261 19.9645 208.607L 65.081 279.326C 108.8189 251.423 142.337 210.098 160.614 161.543Z"></path></g></g></g><g id="g-root-1.g-1_fr_1utoajz5c1u6e-fill" data-item-order="-608282" transform="translate(441, 153)"><defs><linearGradient id="gradient-8a8a8a-330675446" x2="0" y2="1"><stop offset="0" stop-color="#959595"></stop><stop offset="1" stop-color="#7f7f7f"></stop></linearGradient><linearGradient id="gradient-2898bd-56937253" x2="0" y2="1"><stop offset="0" stop-color="#1fa9d7"></stop><stop offset="1" stop-color="#3187a3"></stop></linearGradient><linearGradient id="gradient-ce519c-514854702" x2="0" y2="1"><stop offset="0" stop-color="#dd57a8"></stop><stop offset="1" stop-color="#bf4a90"></stop></linearGradient><linearGradient id="gradient-c67b35-424552419" x2="0" y2="1"><stop offset="0" stop-color="#dc8331"></stop><stop offset="1" stop-color="#b07239"></stop></linearGradient><linearGradient id="gradient-40ae79-389135447" x2="0" y2="1"><stop offset="0" stop-color="#3bc482"></stop><stop offset="1" stop-color="#449870"></stop></linearGradient><linearGradient id="gradient-d5514c-497200298" x2="0" y2="1"><stop offset="0" stop-color="#e45752"></stop><stop offset="1" stop-color="#c54a46"></stop></linearGradient></defs><g id="1.g-1_fr_1utoajz5c1u6e-fill" stroke="none" fill="url(#gradient-d5514c-497200298)"><g><path d="M 153.887 57.9156C 112.365 26.8115 61.8807 10 10 10L 10 93.8849C 36.273 93.8849 61.9952 100.5128 84.8451 112.996L 61.3533 145.743L 51.6028 138.748L 57.5 188.5L 110.106 180.716L 100.3556 173.722L 122.948 142.228C 140.079 160.182 152.773 182.059 159.819 206.112L 240.321 182.53C 225.736 132.741 195.41 89.0197 153.887 57.9156Z"></path></g></g></g><g id="g-root-tx_usesdata_1hgccxb5c7f2c-fill" data-item-order="0" transform="translate(615, 135)"><g id="tx_usesdata_1hgccxb5c7f2c-fill" stroke="none" fill="#f4f4f4"><g><text style="font: 15px Roboto, sans-serif; white-space: pre;" font-size="15px" font-family="Roboto, sans-serif"><tspan x="12" y="27.6" dominant-baseline="ideographic">Uses data for </tspan><tspan x="12" y="45.6" dominant-baseline="ideographic">disease prediction </tspan><tspan x="12" y="63.6" dominant-baseline="ideographic">and personalized </tspan><tspan x="12" y="81.6" dominant-baseline="ideographic">medicine</tspan></text></g></g></g><g id="g-root-pin_1d30r5b5c1tdt-fill" data-item-order="0" transform="translate(315, 207)"></g><g id="g-root-stet_v7zw4v5c61vx-fill" data-item-order="0" transform="translate(537, 213)"></g><g id="g-root-tx_appliesd_143mwdr5c7eh4-fill" data-item-order="0" transform="translate(123, 147)"><g id="tx_appliesd_143mwdr5c7eh4-fill" stroke="none" fill="#f4f4f4"><g><text style="font: 15px Roboto, sans-serif; white-space: pre;" font-size="15px" font-family="Roboto, sans-serif"><tspan x="46.39" y="30.6" dominant-baseline="ideographic">Applies data for </tspan><tspan x="30.32" y="48.6" dominant-baseline="ideographic">route optimization </tspan><tspan x="17.3" y="66.6" dominant-baseline="ideographic">and self-driving cars</tspan></text></g></g></g><g id="g-root-tx_implemen_93e9v35c7e9s-fill" data-item-order="0" transform="translate(369, 692.9998779296875)"><g id="tx_implemen_93e9v35c7e9s-fill" stroke="none" fill="#f4f4f4"><g><text style="font: 15px Roboto, sans-serif; white-space: pre;" font-size="15px" font-family="Roboto, sans-serif"><tspan x="13.18" y="30.6" dominant-baseline="ideographic">Implements data for </tspan><tspan x="49.14" y="48.6" dominant-baseline="ideographic">customer </tspan><tspan x="20.01" y="66.6" dominant-baseline="ideographic">recommendations </tspan><tspan x="39.28" y="84.6" dominant-baseline="ideographic">and demand </tspan><tspan x="42.98" y="102.6" dominant-baseline="ideographic">forecasting</tspan></text></g></g></g><g id="g-root-tx_transpor_1luafsf5c7f9r-fill" data-item-order="0" transform="translate(123, 111)"><g id="tx_transpor_1luafsf5c7f9r-fill" stroke="none" fill="#1ac3fb"><g><text style="font: bold 20px Roboto, sans-serif; white-space: pre;" font-weight="bold" font-size="20px" font-family="Roboto, sans-serif"><tspan x="18.7" y="34" dominant-baseline="ideographic">Transportation</tspan></text></g></g></g><g id="g-root-tx_datascie_8znfcf5c7g92-fill" data-item-order="0" transform="translate(375, 369)"><g id="tx_datascie_8znfcf5c7g92-fill" stroke="none" fill="#f4f4f4"><g><text style="font: bold 20px Roboto, sans-serif; white-space: pre;" font-weight="bold" font-size="20px" font-family="Roboto, sans-serif"><tspan x="14.81" y="34" dominant-baseline="ideographic">Data Science </tspan><tspan x="17.43" y="58" dominant-baseline="ideographic">Applications</tspan></text></g></g></g><g id="g-root-tx_marketin_mczcz35c7doh-fill" data-item-order="0" transform="translate(39, 405)"><g id="tx_marketin_mczcz35c7doh-fill" stroke="none" fill="#f366bb"><g><text style="font: bold 20px Roboto, sans-serif; white-space: pre;" font-weight="bold" font-size="20px" font-family="Roboto, sans-serif"><tspan x="60.48" y="34" dominant-baseline="ideographic">Marketing</tspan></text></g></g></g><g id="g-root-tx_finance_145ibn35c7dhh-fill" data-item-order="0" transform="translate(699, 410.9998779296875)"><g id="tx_finance_145ibn35c7dhh-fill" stroke="none" fill="#43dd93"><g><text style="font: bold 20px Roboto, sans-serif; white-space: pre;" font-weight="bold" font-size="20px" font-family="Roboto, sans-serif"><tspan x="12" y="34" dominant-baseline="ideographic">Finance</tspan></text></g></g></g><g id="g-root-tx_utilizes_91iulr5c7f9e-fill" data-item-order="0" transform="translate(39, 440.9998779296875)"><g id="tx_utilizes_91iulr5c7f9e-fill" stroke="none" fill="#f4f4f4"><g><text style="font: 15px Roboto, sans-serif; white-space: pre;" font-size="15px" font-family="Roboto, sans-serif"><tspan x="47.41" y="27.6" dominant-baseline="ideographic">Utilizes data for </tspan><tspan x="88.63" y="45.6" dominant-baseline="ideographic">customer </tspan><tspan x="31.4" y="63.6" dominant-baseline="ideographic">segmentation and </tspan><tspan x="26.96" y="81.6" dominant-baseline="ideographic">sentiment analysis</tspan></text></g></g></g><g id="g-root-mega_1luwwvj5c37yi-fill" data-item-order="0" transform="translate(231, 429.9998779296875)"></g><g id="g-root-2_zkp0tr5c4nbg-fill" data-item-order="0" transform="translate(603, 434.9998779296875)"></g><g id="g-root-tx_employsd_qu1t9r5c7f2e-fill" data-item-order="0" transform="translate(699, 446.9998779296875)"><g id="tx_employsd_qu1t9r5c7f2e-fill" stroke="none" fill="#f4f4f4"><g><text style="font: 15px Roboto, sans-serif; white-space: pre;" font-size="15px" font-family="Roboto, sans-serif"><tspan x="12" y="30.6" dominant-baseline="ideographic">Employs data for </tspan><tspan x="12" y="48.6" dominant-baseline="ideographic">fraud detection and </tspan><tspan x="12" y="66.6" dominant-baseline="ideographic">credit risk modeling</tspan></text></g></g></g><g id="g-root-tx_applicat_1qeh9in5c1rsw-fill" data-item-order="0" transform="translate(309, 39)"><g id="tx_applicat_1qeh9in5c1rsw-fill" stroke="none" fill="#f4f4f4"><g><text style="font: 20px Roboto, sans-serif; white-space: pre;" font-size="20px" font-family="Roboto, sans-serif"><tspan x="14.32" y="34" dominant-baseline="ideographic">Applications of Data Science</tspan></text></g></g></g><g id="g-root-cart_9kkv5c4kjv-fill" data-item-order="0" transform="translate(417, 560.9998779296875)"></g><g id="g-root-tx_retail_hyet0v5c7fv3-fill" data-item-order="0" transform="translate(369, 656.9998779296875)"><g id="tx_retail_hyet0v5c7fv3-fill" stroke="none" fill="#f79438"><g><text style="font: bold 20px Roboto, sans-serif; white-space: pre;" font-weight="bold" font-size="20px" font-family="Roboto, sans-serif"><tspan x="56.16" y="34" dominant-baseline="ideographic">Retail</tspan></text></g></g></g><g id="g-root-tx_healthca_1ursvan5c7dhf-fill" data-item-order="0" transform="translate(615, 99)"><g id="tx_healthca_1ursvan5c7dhf-fill" stroke="none" fill="#fb6762"><g><text style="font: bold 20px Roboto, sans-serif; white-space: pre;" font-weight="bold" font-size="20px" font-family="Roboto, sans-serif"><tspan x="12" y="34" dominant-baseline="ideographic">Healthcare</tspan></text></g></g></g><g id="g-root-0.g-0_fr_quoacv5c1tl0-stroke" data-item-order="-608318" transform="translate(357, 309)"><g id="0.g-0_fr_quoacv5c1tl0-stroke" fill="none" stroke-linecap="round" stroke-linejoin="round" stroke-miterlimit="4" stroke="#f4f4f4" stroke-width="2"><g><path d="M 54.3525 19.9268C 66.1619 13.5926 79.6614 10 94 10C 111.1946 10 127.1825 15.1663 140.4962 24.0313L 141.5 32.5L 149.8591 31.2632C 167.1259 46.648 178 69.0541 178 94C 178 100.7292 177.2088 107.2735 175.7142 113.5451L 168 117.4995L 172.0628 125.08C 160.3875 154.3788 132.6953 175.5585 99.8026 177.8027L 93.9999 172L 88.1972 177.8027C 54.9051 175.5312 26.9404 153.8613 15.5189 124.0087L 19.5 116.5005L 12.0549 112.5492C 10.7099 106.5818 10 100.3738 10 94C 10 65.5024 24.191 40.3193 45.8918 25.1319L 52.9999 26.5L 54.3525 19.9268Z"></path></g></g></g><g id="g-root-5.g-5_fr_hznr735c1r7y-stroke" data-item-order="-608314" transform="translate(211.24099731445312, 153)"><g id="5.g-5_fr_hznr735c1r7y-stroke" fill="none" stroke-linecap="round" stroke-linejoin="round" stroke-miterlimit="4" stroke="#f4f4f4" stroke-width="2"><g><path d="M 96.662 57.3257C 138.0414 26.5938 188.2153 10 239.7585 10L 239.7585 93.8849C 218.0886 93.8849 196.7909 98.3939 177.1693 106.9806L 199.0313 139.483L 208.9884 132.7856L 198.7585 182.5L 149.2457 172.9702L 159.2028 166.2728L 136.6653 132.7661C 114.8493 151.9503 98.7504 176.9073 90.3052 204.8816L 10 180.6383C 24.8964 131.2946 55.2826 88.0575 96.662 57.3257Z"></path></g></g></g><g id="g-root-4.g-4_fr_dju92n5c1s08-stroke" data-item-order="-608306" transform="translate(200.99996948242188, 322.8990478515625)"><g id="4.g-4_fr_dju92n5c1s08-stroke" fill="none" stroke-linecap="round" stroke-linejoin="round" stroke-miterlimit="4" stroke="#f4f4f4" stroke-width="2"><g><path d="M 22.075031 155.2687C 37.606131 202.3626 67.343731 243.4893 107.199431 272.9948L 157.111131 205.5745C 136.671131 190.4427 120.322331 170.6118 109.367931 147.8846L 147.839831 137.1064L 151.077031 148.6616L 175.500031 102.601L 131.653731 79.3309L 134.890931 90.886L 95.420431 101.9439C 92.243131 79.4581 93.994631 56.4338 100.692831 34.5017L 20.466031 10C 5.981831 57.4263 6.543831 108.1749 22.075031 155.2687Z"></path></g></g></g><g id="g-root-3.g-3_fr_940qy75c1ssi-stroke" data-item-order="-608298" transform="translate(297.87200927734375, 470.9998779296875)"><g id="3.g-3_fr_940qy75c1ssi-stroke" fill="none" stroke-linecap="round" stroke-linejoin="round" stroke-miterlimit="4" stroke="#f4f4f4" stroke-width="2"><g><path d="M 177.1278 86.2594C 198.3358 82.9597 218.7447 75.3046 237.0242 63.6562L 282.1039 134.3986C 241.0999 160.5279 193.1266 173.5868 144.5359 171.8461C 95.9453 170.1055 49.0293 153.6474 10 124.6511L 60.0261 57.3156C 80.4428 72.4839 104.1772 82.3776 129.1278 86.2595L 129.1278 46L 117.1278 46L 153.1278 10L 189.1278 46L 177.1278 46L 177.1278 86.2594Z"></path></g></g></g><g id="g-root-2.g-2_fr_8dqpb5c1tl8-stroke" data-item-order="-608290" transform="translate(515, 326.0050048828125)"><g id="2.g-2_fr_8dqpb5c1tl8-stroke" fill="none" stroke-linecap="round" stroke-linejoin="round" stroke-miterlimit="4" stroke="#f4f4f4" stroke-width="2"><g><path d="M 160.6143 161.5431C 178.8911 112.9883 180.942 59.8184 166.4598 10L 85.9094 33.416C 92.2752 55.314 93.7302 78.2075 90.336 100.4974L 52.632 88.1246L 56.3735 76.7228L 10 100.4947L 33.9241 145.1335L 37.6657 133.7317L 75.8992 146.2783C 63.323 171.6729 44.0199 193.2608 19.9645 208.6073L 65.081 279.3263C 108.8189 251.4229 142.3375 210.0979 160.6143 161.5431Z"></path></g></g></g><g id="g-root-1.g-1_fr_1utoajz5c1u6e-stroke" data-item-order="-608282" transform="translate(441, 153)"><g id="1.g-1_fr_1utoajz5c1u6e-stroke" fill="none" stroke-linecap="round" stroke-linejoin="round" stroke-miterlimit="4" stroke="#f4f4f4" stroke-width="2"><g><path d="M 153.8874 57.9156C 112.3646 26.8115 61.8807 10 10 10L 10 93.8849C 36.273 93.8849 61.9952 100.5128 84.8451 112.9956L 61.3533 145.7427L 51.6028 138.7479L 57.5 188.5L 110.1062 180.7164L 100.3556 173.7217L 122.948 142.2283C 140.079 160.1823 152.773 182.0588 159.8192 206.112L 240.321 182.5299C 225.736 132.7415 195.4102 89.0197 153.8874 57.9156Z"></path></g></g></g><g id="g-root-tx_usesdata_1hgccxb5c7f2c-stroke" data-item-order="0" transform="translate(615, 135)"></g><g id="g-root-pin_1d30r5b5c1tdt-stroke" data-item-order="0" transform="translate(315, 207)"><g id="pin_1d30r5b5c1tdt-stroke" fill="none" stroke-linecap="round" stroke-linejoin="round" stroke-miterlimit="4" stroke="#f4f4f4" stroke-width="2"><g><path d="M 30.006001 12.998L 32.001999 12.998M 35.998001 12.998L 37.993999 12.998M 41.987999 12.998L 43.986 12.998M 47.98 13L 49.98 13C 51.084568 13 51.98 13.895431 51.98 15L 51.98 17M 51.973999 20.986L 51.973999 22.984001M 51.973999 26.978001L 51.973999 28.976M 27.01 18.987999C 27.01 23.987999 19.021999 30.972 19.021999 30.972C 19.021999 30.972 11.034 23.982 11.034 18.987999C 11.034 14.576349 14.61035 11 19.021999 11C 23.433651 11 27.01 14.576349 27.01 18.987999ZM 19.021999 18.49C 19.297037 18.49 19.52 18.712963 19.52 18.987999M 18.521999 18.987999C 18.523102 18.712639 18.746635 18.489998 19.021999 18.49M 19.021999 19.487999C 18.745857 19.487999 18.521999 19.264141 18.521999 18.987999M 19.52 18.987999C 19.520531 19.120422 19.4683 19.247606 19.374847 19.341433C 19.281397 19.435259 19.154425 19.488001 19.021999 19.487999M 46.612 53.495998C 46.612003 55.431206 48.180794 57 50.116001 57C 52.051208 57 53.620003 55.431206 53.620003 53.496002C 53.620003 51.560795 52.051208 49.992001 50.116001 49.992001C 48.180794 49.992001 46.612003 51.560795 46.612003 53.496002ZM 20.34 53.495998C 20.34 55.431206 21.908794 57 23.844002 57C 25.779205 57 27.348 55.431206 27.348 53.496002C 27.348 51.560795 25.779205 49.992001 23.844002 49.992001C 21.908794 49.992001 20.34 51.560795 20.34 53.496002ZM 45.905998 45.217999C 44.990002 48.155998 43.490002 50.944 38.992001 50.944L 33.5 50.944C 29.271999 50.944 30.052 37.961998 37.672001 37.961998L 41.5 37.961998C 44.984001 37.961998 47.490002 40.138 45.905998 45.217999ZM 45.981998 44.952L 31.004 44.952M 20.653999 54.939999L 20.18 54.939999C 19.253532 54.939941 18.373882 54.532803 17.774281 53.826527C 17.174681 53.120255 16.915699 52.186192 17.066 51.271999C 18.666 41.472 28.554001 33.919998 38.732002 33.919998C 48.835999 33.919998 55.757999 41.362 56.942001 51.062C 57.061604 52.044762 56.754501 53.031681 56.098389 53.773056C 55.442276 54.514431 54.500011 54.93924 53.510002 54.940002L 53.310001 54.939999M 42.987999 54.939999L 31.004 54.939999M 19.366001 44.952C 22.310001 44.952 25.366001 45.324001 26.233999 43.060001C 27.159487 40.612938 28.641945 38.414925 30.564001 36.639999L 32.826 34.753998M 36 34.099998L 36 31.969999C 36.091736 30.383047 37.405399 29.143131 38.995003 29.143131C 40.584602 29.143131 41.898262 30.383047 41.990002 31.970001L 41.989998 34.200001"></path></g></g></g><g id="g-root-stet_v7zw4v5c61vx-stroke" data-item-order="0" transform="translate(537, 213)"><g id="stet_v7zw4v5c61vx-stroke" fill="none" stroke-linecap="round" stroke-linejoin="round" stroke-miterlimit="4" stroke="#f4f4f4" stroke-width="2"><g><path d="M 23.886 46.212002C 25.586424 45.613079 27.23078 44.86552 28.799999 43.977997M 11 50C 11 53.865993 14.134007 57 18 57C 21.865993 57 25 53.865993 25 50C 25 46.13401 21.865993 43 18 43C 14.134007 43 11 46.13401 11 50M 16 50C 16 51.104568 16.895432 52 18 52C 19.104568 52 20 51.104568 20 50C 20 48.895432 19.104568 48 18 48C 16.895432 48 16 48.895432 16 50M 10 10M 52.722 55.037998L 51.866001 56.838001L 41.634003 50.34C 39.706024 49.113422 38.993439 46.642948 39.972 44.578003L 39.972 44.577999C 40.949142 42.512608 43.311478 41.498222 45.482002 42.212002L 57 46L 56.144001 47.799999M 35.98 39.178001C 41.281998 35.166 50 27.577999 50 21.062C 50 10.094 36.236 7.102 32 17.072001C 27.764 7.102 14 10.094 14 21.062C 14 30.424 31.266001 41.52 32 42C 34.354 43.540001 38.716 45.400002 39.846001 44.868"></path></g></g></g><g id="g-root-tx_appliesd_143mwdr5c7eh4-stroke" data-item-order="0" transform="translate(123, 147)"></g><g id="g-root-tx_implemen_93e9v35c7e9s-stroke" data-item-order="0" transform="translate(369, 692.9998779296875)"></g><g id="g-root-tx_transpor_1luafsf5c7f9r-stroke" data-item-order="0" transform="translate(123, 111)"></g><g id="g-root-tx_datascie_8znfcf5c7g92-stroke" data-item-order="0" transform="translate(375, 369)"></g><g id="g-root-tx_marketin_mczcz35c7doh-stroke" data-item-order="0" transform="translate(39, 405)"></g><g id="g-root-tx_finance_145ibn35c7dhh-stroke" data-item-order="0" transform="translate(699, 410.9998779296875)"></g><g id="g-root-tx_utilizes_91iulr5c7f9e-stroke" data-item-order="0" transform="translate(39, 440.9998779296875)"></g><g id="g-root-mega_1luwwvj5c37yi-stroke" data-item-order="0" transform="translate(231, 429.9998779296875)"><g id="mega_1luwwvj5c37yi-stroke" fill="none" stroke-linecap="round" stroke-linejoin="round" stroke-miterlimit="4" stroke="#f4f4f4" stroke-width="2"><g><path d="M 28.666 22.922001L 20.334 22.922001C 18.492683 22.922001 17 24.414684 17 26.256001L 17 48.922001L 27 48.922001C 27 51.132 30.134001 52.922001 34 52.922001C 37.865997 52.922001 41 51.132 41 48.922001L 51 48.922001L 51 32.756001M 41 48.922001C 41 51.132 37.865997 52.922001 34 52.922001C 30.134001 52.922001 27 51.132 27 48.922001L 11 48.922001C 12.175537 53.623486 16.399778 56.921741 21.246 56.922001L 46.754002 56.922001C 51.60022 56.921741 55.824463 53.623486 57 48.922001ZM 41.295998 29.552L 39.035999 30.622C 36.961861 31.571434 34.509815 30.677143 33.533913 28.615324C 32.55801 26.553503 33.420841 24.090214 35.470001 23.088001L 37.73 22.018ZM 41.295998 29.552C 45.716766 27.460684 50.657368 26.723768 55.495998 27.434L 56.993999 27.653999L 49.153999 11.078L 48.374001 12.375999C 45.855305 16.570011 42.151806 19.924873 37.73 22.018ZM 41.295998 29.552C 42.239922 31.5445 43.959763 33.062645 46.054001 33.751999"></path></g></g></g><g id="g-root-2_zkp0tr5c4nbg-stroke" data-item-order="0" transform="translate(603, 434.9998779296875)"><g id="2_zkp0tr5c4nbg-stroke" fill="none" stroke-linecap="round" stroke-linejoin="round" stroke-miterlimit="4" stroke="#f4f4f4" stroke-width="2"><g><path d="M 31 31L 13 31C 11.895431 31 11 30.10457 11 29L 11 13C 11 11.895431 11.895431 11 13 11L 45 11C 46.104568 11 47 11.895431 47 13L 47 23M 11.008 18L 18.007999 11M 47.007999 18L 40.007999 11M 11.008 24L 18.007999 31M 33 17L 26.691999 17C 25.844688 17.007654 25.134691 17.642994 25.033333 18.484257C 24.931976 19.32552 25.470753 20.111315 26.292 20.32L 31.74 21.68C 32.561249 21.888685 33.100021 22.67448 32.998665 23.515743C 32.897308 24.357006 32.187309 24.992346 31.34 25L 25 25M 29.007999 17L 29.007999 15M 29.007999 27L 29.007999 25M 39.007999 41L 41.007999 41M 45.007999 41L 47.007999 41M 51.007999 41L 53.007999 41M 39.007999 45L 41.007999 45M 45.007999 45L 47.007999 45M 51.007999 45L 53.007999 45M 39.007999 49L 41.007999 49M 45.007999 49L 47.007999 49M 51.007999 49L 53.007999 49M 39.007999 53L 41.007999 53M 45.007999 53L 47.007999 53M 51.007999 53L 53.007999 53M 39.007999 27L 53.007999 27C 53.007999 27 57.007999 27 57.007999 31L 57.007999 53C 57.007999 53 57.007999 57 53.007999 57L 39.007999 57C 39.007999 57 35.007999 57 35.007999 53L 35.007999 31C 35.007999 31 35.007999 27 39.007999 27M 35.007999 37L 57.007999 37M 13.007999 35L 31.007999 35M 15.007999 39L 31.007999 39"></path></g></g></g><g id="g-root-tx_employsd_qu1t9r5c7f2e-stroke" data-item-order="0" transform="translate(699, 446.9998779296875)"></g><g id="g-root-tx_applicat_1qeh9in5c1rsw-stroke" data-item-order="0" transform="translate(309, 39)"></g><g id="g-root-cart_9kkv5c4kjv-stroke" data-item-order="0" transform="translate(417, 560.9998779296875)"><g id="cart_9kkv5c4kjv-stroke" fill="none" stroke-linecap="round" stroke-linejoin="round" stroke-miterlimit="4" stroke="#f4f4f4" stroke-width="2"><g><path d="M 15.007999 15L 53.007999 15L 53.007999 49L 15.007999 49ZM 32.007999 55C 32.007999 56.104568 32.903431 57 34.007999 57C 35.112572 57 36.007999 56.104568 36.007999 55C 36.007999 53.895432 35.112572 53 34.007999 53C 32.903431 53 32.007999 53.895432 32.007999 55ZM 34.007999 49L 34.007999 53M 57 13C 57 14.104569 56.104568 15 55 15L 13 15C 11.895431 15 11 14.104569 11 13C 11 11.895431 11.895431 11 13 11L 55 11C 56.104568 11 57 11.895431 57 13ZM 13.007999 49L 55.007999 49M 36.007999 40C 36.007999 41.104568 36.903431 42 38.007999 42C 39.112572 42 40.007999 41.104568 40.007999 40C 40.007999 38.895432 39.112572 38 38.007999 38C 36.903431 38 36.007999 38.895432 36.007999 40ZM 28.007999 40C 28.007999 41.104568 28.903431 42 30.007999 42C 31.11257 42 32.007999 41.104568 32.007999 40C 32.007999 38.895432 31.11257 38 30.007999 38C 28.903431 38 28.007999 38.895432 28.007999 40ZM 44.007999 21L 39.007999 36L 29.007999 36L 26.007999 26L 42.341999 26"></path></g></g></g><g id="g-root-tx_retail_hyet0v5c7fv3-stroke" data-item-order="0" transform="translate(369, 656.9998779296875)"></g><g id="g-root-tx_healthca_1ursvan5c7dhf-stroke" data-item-order="0" transform="translate(615, 99)"></g></g></g></svg>