<?xml version="1.0" encoding="utf-8" standalone="yes"?>
<!DOCTYPE svg PUBLIC "-//W3C//DTD SVG 1.1//EN" "http://www.w3.org/Graphics/SVG/1.1/DTD/svg11.dtd">
<svg width="1296" height="648" viewBox="0 0 1296 648" style="fill:none;stroke:none;fill-rule:evenodd;clip-rule:evenodd;stroke-linecap:round;stroke-linejoin:round;stroke-miterlimit:1.5;" version="1.1" xmlns="http://www.w3.org/2000/svg" xmlns:xlink="http://www.w3.org/1999/xlink"><style class="text-font-style fontImports" data-font-family="Roboto">@import url('https://fonts.googleapis.com/css2?family=Roboto:wght@400;700&amp;display=block');</style><g id="items" style="isolation: isolate"><g id="blend" style="mix-blend-mode: normal"><g id="g-root-0.g-0_fr_1qaq8of7jq4um-fill" data-item-order="-793667" transform="translate(50.21098327636719, 278)"></g><g id="g-root-1.g-1_1_fr_1luwqjz7jq5mw-fill" data-item-order="-793650" transform="translate(44, 221)"><g id="1.g-1_1_fr_1luwqjz7jq5mw-fill" stroke="none" fill="url(#gradient-c3b321-14556876)"><g><path d="M 34 151C 34.000002 187.450795 63.549208 217.000002 100.000002 217.000002C 136.450795 217.000002 166.000002 187.450795 166.000002 151.000002C 166.000002 114.549208 136.450795 85.000002 100.000002 85.000002C 63.549208 85.000002 34.000002 114.549208 34.000002 151.000002M 10 151C 10 154.313709 12.686292 157 16 157C 19.313709 157 22 154.313709 22 151C 22 147.686292 19.313709 145 16 145C 12.686292 145 10 147.686292 10 151"></path></g></g><g id="1.g-1_1_fr_1luwqjz7jq5mw-fill" stroke="none" fill="url(#gradient-c3b321-14556876)"><g><path d="M 109 19C 109 23.9706 104.9706 28 100 28C 95.0294 28 91 23.9706 91 19C 91 14.0294 95.0294 10 100 10C 104.9706 10 109 14.0294 109 19Z"></path></g></g></g><g id="g-root-2.g-2_fr_18k2p9r7jq422-fill" data-item-order="-793638" transform="translate(212, 296)"><g id="2.g-2_fr_18k2p9r7jq422-fill" stroke="none" fill="url(#gradient-c67b35-424552419)"><g><path d="M 34 76C 34.000002 112.450795 63.549208 142.000002 100.000002 142.000002C 136.450795 142.000002 166.000002 112.450795 166.000002 76.000002C 166.000002 39.549208 136.450795 10.000002 100.000002 10.000002C 63.549208 10.000002 34.000002 39.549208 34.000002 76.000002M 10 76C 10 79.313709 12.686292 82 16 82C 19.313709 82 22 79.313709 22 76C 22 72.686292 19.313709 70 16 70C 12.686292 70 10 72.686292 10 76"></path></g></g><g id="2.g-2_fr_18k2p9r7jq422-fill" stroke="none" fill="url(#gradient-c67b35-424552419)"><g><path d="M 109 208C 109 212.9706 104.9706 217 100 217C 95.0294 217 91 212.9706 91 208C 91 203.0294 95.0294 199 100 199C 104.9706 199 109 203.0294 109 208Z"></path></g></g></g><g id="g-root-3.g-3_1_fr_144975b7jq4uc-fill" data-item-order="-793626" transform="translate(380, 221)"><g id="3.g-3_1_fr_144975b7jq4uc-fill" stroke="none" fill="url(#gradient-d5514c-497200298)"><g><path d="M 34 151C 34.000002 187.450795 63.549208 217.000002 100.000002 217.000002C 136.450795 217.000002 166.000002 187.450795 166.000002 151.000002C 166.000002 114.549208 136.450795 85.000002 100.000002 85.000002C 63.549208 85.000002 34.000002 114.549208 34.000002 151.000002M 10 151C 10 154.313709 12.686292 157 16 157C 19.313709 157 22 154.313709 22 151C 22 147.686292 19.313709 145 16 145C 12.686292 145 10 147.686292 10 151"></path></g></g><g id="3.g-3_1_fr_144975b7jq4uc-fill" stroke="none" fill="url(#gradient-d5514c-497200298)"><g><path d="M 109 19C 109 23.9706 104.9706 28 100 28C 95.0294 28 91 23.9706 91 19C 91 14.0294 95.0294 10 100 10C 104.9706 10 109 14.0294 109 19Z"></path></g></g></g><g id="g-root-4.g-4_fr_v8m6wf7jq5n2-fill" data-item-order="-793614" transform="translate(548, 296)"><g id="4.g-4_fr_v8m6wf7jq5n2-fill" stroke="none" fill="url(#gradient-ce519c-514854702)"><g><path d="M 34 76C 34.000002 112.450795 63.549208 142.000002 100.000002 142.000002C 136.450795 142.000002 166.000002 112.450795 166.000002 76.000002C 166.000002 39.549208 136.450795 10.000002 100.000002 10.000002C 63.549208 10.000002 34.000002 39.549208 34.000002 76.000002M 10 76C 10 79.313709 12.686292 82 16 82C 19.313709 82 22 79.313709 22 76C 22 72.686292 19.313709 70 16 70C 12.686292 70 10 72.686292 10 76"></path></g></g><g id="4.g-4_fr_v8m6wf7jq5n2-fill" stroke="none" fill="url(#gradient-ce519c-514854702)"><g><path d="M 109 208C 109 212.9706 104.9706 217 100 217C 95.0294 217 91 212.9706 91 208C 91 203.0294 95.0294 199 100 199C 104.9706 199 109 203.0294 109 208Z"></path></g></g></g><g id="g-root-5.g-5_2_fr_mdlnqn7jq41s-fill" data-item-order="-793602" transform="translate(716, 221)"><g id="5.g-5_2_fr_mdlnqn7jq41s-fill" stroke="none" fill="url(#gradient-ae58d5-381354595)"><g><path d="M 34 151C 34.000002 187.450795 63.549208 217.000002 100.000002 217.000002C 136.450795 217.000002 166.000002 187.450795 166.000002 151.000002C 166.000002 114.549208 136.450795 85.000002 100.000002 85.000002C 63.549208 85.000002 34.000002 114.549208 34.000002 151.000002M 10 151C 10 154.313709 12.686292 157 16 157C 19.313709 157 22 154.313709 22 151C 22 147.686292 19.313709 145 16 145C 12.686292 145 10 147.686292 10 151"></path></g></g><g id="5.g-5_2_fr_mdlnqn7jq41s-fill" stroke="none" fill="url(#gradient-ae58d5-381354595)"><g><path d="M 109 19C 109 23.9706 104.9706 28 100 28C 95.0294 28 91 23.9706 91 19C 91 14.0294 95.0294 10 100 10C 104.9706 10 109 14.0294 109 19Z"></path></g></g></g><g id="g-root-6.g-6_fr_dhynhr7jq4ui-fill" data-item-order="-793590" transform="translate(884, 296)"><g id="6.g-6_fr_dhynhr7jq4ui-fill" stroke="none" fill="url(#gradient-7b63dc-211830244)"><g><path d="M 34 76C 34.000002 112.450795 63.549208 142.000002 100.000002 142.000002C 136.450795 142.000002 166.000002 112.450795 166.000002 76.000002C 166.000002 39.549208 136.450795 10.000002 100.000002 10.000002C 63.549208 10.000002 34.000002 39.549208 34.000002 76.000002M 10 76C 10 79.313709 12.686292 82 16 82C 19.313709 82 22 79.313709 22 76C 22 72.686292 19.313709 70 16 70C 12.686292 70 10 72.686292 10 76"></path></g></g><g id="6.g-6_fr_dhynhr7jq4ui-fill" stroke="none" fill="url(#gradient-7b63dc-211830244)"><g><path d="M 109 208C 109 212.9706 104.9706 217 100 217C 95.0294 217 91 212.9706 91 208C 91 203.0294 95.0294 199 100 199C 104.9706 199 109 203.0294 109 208Z"></path></g></g></g><g id="g-root-7.g-7_fr_9255db7jq5ms-fill" data-item-order="-793578" transform="translate(1052, 221)"><defs><linearGradient id="gradient-c3b321-14556876" x2="0" y2="1"><stop offset="0" stop-color="#ddc916"></stop><stop offset="1" stop-color="#a99c2c"></stop></linearGradient><linearGradient id="gradient-c67b35-424552419" x2="0" y2="1"><stop offset="0" stop-color="#dc8331"></stop><stop offset="1" stop-color="#b07239"></stop></linearGradient><linearGradient id="gradient-d5514c-497200298" x2="0" y2="1"><stop offset="0" stop-color="#e45752"></stop><stop offset="1" stop-color="#c54a46"></stop></linearGradient><linearGradient id="gradient-ce519c-514854702" x2="0" y2="1"><stop offset="0" stop-color="#dd57a8"></stop><stop offset="1" stop-color="#bf4a90"></stop></linearGradient><linearGradient id="gradient-ae58d5-381354595" x2="0" y2="1"><stop offset="0" stop-color="#b95ce3"></stop><stop offset="1" stop-color="#a354c7"></stop></linearGradient><linearGradient id="gradient-7b63dc-211830244" x2="0" y2="1"><stop offset="0" stop-color="#7f64e9"></stop><stop offset="1" stop-color="#7761cf"></stop></linearGradient><linearGradient id="gradient-4f83d8-135982273" x2="0" y2="1"><stop offset="0" stop-color="#4e88e6"></stop><stop offset="1" stop-color="#4f7eca"></stop></linearGradient></defs><g id="7.g-7_fr_9255db7jq5ms-fill" stroke="none" fill="url(#gradient-4f83d8-135982273)"><g><path d="M 34 151C 34.000002 187.450795 63.549208 217.000002 100.000002 217.000002C 136.450795 217.000002 166.000002 187.450795 166.000002 151.000002C 166.000002 114.549208 136.450795 85.000002 100.000002 85.000002C 63.549208 85.000002 34.000002 114.549208 34.000002 151.000002M 10 151C 10 154.313709 12.686292 157 16 157C 19.313709 157 22 154.313709 22 151C 22 147.686292 19.313709 145 16 145C 12.686292 145 10 147.686292 10 151M 178 151C 178 154.313709 180.686292 157 184 157C 187.313709 157 190 154.313709 190 151C 190 147.686292 187.313709 145 184 145C 180.686292 145 178 147.686292 178 151"></path></g></g><g id="7.g-7_fr_9255db7jq5ms-fill" stroke="none" fill="url(#gradient-4f83d8-135982273)"><g><path d="M 109 19C 109 23.9706 104.9706 28 100 28C 95.0294 28 91 23.9706 91 19C 91 14.0294 95.0294 10 100 10C 104.9706 10 109 14.0294 109 19Z"></path></g></g></g><g id="g-root--1.line_fr_1usf6277jq3uu-fill" data-item-order="-793565" transform="translate(134, 239)"></g><g id="g-root--1.line_1_fr_1usf6277jq3uw-fill" data-item-order="-793561" transform="translate(470, 239)"></g><g id="g-root--1.line_2_fr_1d1rmnj7jq32a-fill" data-item-order="-793557" transform="translate(806, 239)"></g><g id="g-root--1.line_3_fr_1464men7jq3v0-fill" data-item-order="-793553" transform="translate(1142, 239)"></g><g id="g-root--1.line_4_fr_1464men7jq3v2-fill" data-item-order="-793549" transform="translate(302, 428)"></g><g id="g-root--1.line_5_fr_zqb4a77jq4nc-fill" data-item-order="-793545" transform="translate(638, 428)"></g><g id="g-root--1.line_6_fr_zqb4a77jq4ne-fill" data-item-order="-793541" transform="translate(974, 428)"></g><g id="g-root-tx_understa_1uualbj7jq2vi-fill" data-item-order="0" transform="translate(32, 170)"><g id="tx_understa_1uualbj7jq2vi-fill" stroke="none" fill="#f4f4f4"><g><text style="font: 15px Roboto, sans-serif; white-space: pre;" font-size="15px" font-family="Roboto, sans-serif"><tspan x="12.69" y="27.6" dominant-baseline="ideographic">Understanding what needs to </tspan><tspan x="70.54" y="45.6" dominant-baseline="ideographic">be analyzed</tspan></text></g></g></g><g id="g-root-tx_presenti_1uljy3z7jrjm4-fill" data-item-order="0" transform="translate(1046, 146)"><g id="tx_presenti_1uljy3z7jrjm4-fill" stroke="none" fill="#f4f4f4"><g><text style="font: 15px Roboto, sans-serif; white-space: pre;" font-size="15px" font-family="Roboto, sans-serif"><tspan x="16.21" y="30.6" dominant-baseline="ideographic">Presenting results through </tspan><tspan x="39.84" y="48.6" dominant-baseline="ideographic">reports, charts, and </tspan><tspan x="58.38" y="66.6" dominant-baseline="ideographic">presentations</tspan></text></g></g></g><g id="g-root-tx_usingsta_hrjer37jrhfm-fill" data-item-order="0" transform="translate(704, 146)"><g id="tx_usingsta_hrjer37jrhfm-fill" stroke="none" fill="#f4f4f4"><g><text style="font: 15px Roboto, sans-serif; white-space: pre;" font-size="15px" font-family="Roboto, sans-serif"><tspan x="17.51" y="30.6" dominant-baseline="ideographic">Using statistical or machine </tspan><tspan x="23.39" y="48.6" dominant-baseline="ideographic">learning models to extract </tspan><tspan x="83.81" y="66.6" dominant-baseline="ideographic">insights</tspan></text></g></g></g><g id="g-root-tx_handling_18ntjsf7jq2v4-fill" data-item-order="0" transform="translate(380, 146)"><g id="tx_handling_18ntjsf7jq2v4-fill" stroke="none" fill="#f4f4f4"><g><text style="font: 15px Roboto, sans-serif; white-space: pre;" font-size="15px" font-family="Roboto, sans-serif"><tspan x="15.35" y="30.6" dominant-baseline="ideographic">Handling missing values, </tspan><tspan x="14.9" y="48.6" dominant-baseline="ideographic">removing duplicates, and </tspan><tspan x="24.59" y="66.6" dominant-baseline="ideographic">standardizing formats</tspan></text></g></g></g><g id="g-root-tx_defining_hznkvj7jq3ut-fill" data-item-order="0" transform="translate(32, 110)"><g id="tx_defining_hznkvj7jq3ut-fill" stroke="none" fill="#f4f4f4"><g><text style="font: bold 20px Roboto, sans-serif; white-space: pre;" font-weight="bold" font-size="20px" font-family="Roboto, sans-serif"><tspan x="14.65" y="34" dominant-baseline="ideographic">Defining the Problem </tspan><tspan x="62.77" y="58" dominant-baseline="ideographic">Statement</tspan></text></g></g></g><g id="g-root-tx_communic_4g2wdr7jrj0j-fill" data-item-order="0" transform="translate(1064, 86)"><g id="tx_communic_4g2wdr7jrj0j-fill" stroke="none" fill="#f4f4f4"><g><text style="font: bold 20px Roboto, sans-serif; white-space: pre;" font-weight="bold" font-size="20px" font-family="Roboto, sans-serif"><tspan x="14.24" y="34" dominant-baseline="ideographic">Communicating </tspan><tspan x="47.04" y="58" dominant-baseline="ideographic">Findings</tspan></text></g></g></g><g id="g-root-ques_1cuwepb7jrith-fill" data-item-order="0" transform="translate(104, 332)"></g><g id="g-root-down_1unfddb7jsw06-fill" data-item-order="0" transform="translate(272, 332)"></g><g id="g-root-refr_1uux2en7juccv-fill" data-item-order="0" transform="translate(440, 332)"></g><g id="g-root-view_1qa3rlb7jvr48-fill" data-item-order="0" transform="translate(608, 332)"></g><g id="g-root-anal_qu1my77jvqx5-fill" data-item-order="0" transform="translate(776, 332)"></g><g id="g-root-tx_summariz_1qbcprj7jyk1z-fill" data-item-order="0" transform="translate(548, 578)"><g id="tx_summariz_1qbcprj7jyk1z-fill" stroke="none" fill="#f4f4f4"><g><text style="font: 15px Roboto, sans-serif; white-space: pre;" font-size="15px" font-family="Roboto, sans-serif"><tspan x="17.31" y="27.6" dominant-baseline="ideographic">Summarizing data using </tspan><tspan x="52.58" y="45.6" dominant-baseline="ideographic">visualizations</tspan></text></g></g></g><g id="g-root-buil_1d3n1wv7jx5hn-fill" data-item-order="0" transform="translate(1112, 332)"></g><g id="g-root-tx_applying_vcd1f37jq4g1-fill" data-item-order="0" transform="translate(710, 86)"><g id="tx_applying_vcd1f37jq4g1-fill" stroke="none" fill="#f4f4f4"><g><text style="font: bold 20px Roboto, sans-serif; white-space: pre;" font-weight="bold" font-size="20px" font-family="Roboto, sans-serif"><tspan x="17.13" y="34" dominant-baseline="ideographic">Applying Analytical </tspan><tspan x="70.29" y="58" dominant-baseline="ideographic">Models</tspan></text></g></g></g><g id="g-root-tx_cleaning_1hiu2y77jq4gf-fill" data-item-order="0" transform="translate(380, 86)"><g id="tx_cleaning_1hiu2y77jq4gf-fill" stroke="none" fill="#f4f4f4"><g><text style="font: bold 20px Roboto, sans-serif; white-space: pre;" font-weight="bold" font-size="20px" font-family="Roboto, sans-serif"><tspan x="41.42" y="34" dominant-baseline="ideographic">Cleaning and </tspan><tspan x="11.88" y="58" dominant-baseline="ideographic">Preprocessing Data</tspan></text></g></g></g><g id="g-root-tx_dataanal_mfh2zz7jq32k-fill" data-item-order="0" transform="translate(536, 2)"><g id="tx_dataanal_mfh2zz7jq32k-fill" stroke="none" fill="#f4f4f4"><g><text style="font: 20px Roboto, sans-serif; white-space: pre;" font-size="20px" font-family="Roboto, sans-serif"><tspan x="12.76" y="34" dominant-baseline="ideographic">Data Analysis Process</tspan></text></g></g></g><g id="g-root-tx_collecti_zn6qun7jyl1o-fill" data-item-order="0" transform="translate(230, 518)"><g id="tx_collecti_zn6qun7jyl1o-fill" stroke="none" fill="#f4f4f4"><g><text style="font: bold 20px Roboto, sans-serif; white-space: pre;" font-weight="bold" font-size="20px" font-family="Roboto, sans-serif"><tspan x="13.49" y="34" dominant-baseline="ideographic">Collecting Data</tspan></text></g></g></g><g id="g-root-tx_explorat_90w7737jyl1q-fill" data-item-order="0" transform="translate(554, 518)"><g id="tx_explorat_90w7737jyl1q-fill" stroke="none" fill="#f4f4f4"><g><text style="font: bold 20px Roboto, sans-serif; white-space: pre;" font-weight="bold" font-size="20px" font-family="Roboto, sans-serif"><tspan x="17.27" y="34" dominant-baseline="ideographic">Exploratory Data </tspan><tspan x="25.16" y="58" dominant-baseline="ideographic">Analysis (EDA)</tspan></text></g></g></g><g id="g-root-tx_interpre_1lvj7n37jyku8-fill" data-item-order="0" transform="translate(878, 518)"><g id="tx_interpre_1lvj7n37jyku8-fill" stroke="none" fill="#f4f4f4"><g><text style="font: bold 20px Roboto, sans-serif; white-space: pre;" font-weight="bold" font-size="20px" font-family="Roboto, sans-serif"><tspan x="16.88" y="34" dominant-baseline="ideographic">Interpreting Results</tspan></text></g></g></g><g id="g-root-tx_gatherin_mccpkf7jyjgt-fill" data-item-order="0" transform="translate(200, 554)"><g id="tx_gatherin_mccpkf7jyjgt-fill" stroke="none" fill="#f4f4f4"><g><text style="font: 15px Roboto, sans-serif; white-space: pre;" font-size="15px" font-family="Roboto, sans-serif"><tspan x="14.86" y="27.6" dominant-baseline="ideographic">Gathering data from relevant </tspan><tspan x="83.61" y="45.6" dominant-baseline="ideographic">sources</tspan></text></g></g></g><g id="g-root-tx_deriving_18kp6cv7jyj9d-fill" data-item-order="0" transform="translate(884, 554)"><g id="tx_deriving_18kp6cv7jyj9d-fill" stroke="none" fill="#f4f4f4"><g><text style="font: 15px Roboto, sans-serif; white-space: pre;" font-size="15px" font-family="Roboto, sans-serif"><tspan x="33.54" y="27.6" dominant-baseline="ideographic">Deriving meaningful </tspan><tspan x="12.89" y="45.6" dominant-baseline="ideographic">conclusions from analysis</tspan></text></g></g></g><g id="g-root-plac_ddlbvz7jx6h6-fill" data-item-order="0" transform="translate(944, 332)"></g><g id="g-root-0.g-0_fr_1qaq8of7jq4um-stroke" data-item-order="-793667" transform="translate(50.21098327636719, 278)"><g id="0.g-0_fr_1qaq8of7jq4um-stroke" fill="none" stroke-linecap="round" stroke-linejoin="round" stroke-miterlimit="4" stroke="#f4f4f4" stroke-width="2" stroke-dasharray="5.0, 7.0"><g><path d="M 177.578001 100C 174.501601 143.5917 138.163501 178 93.789001 178C 49.414501 178 13.076501 143.5917 10.000001 100M 345.578 88C 342.5016 44.4083 306.1635 10 261.789 10C 217.4145 10 181.0765 44.4083 178 88M 513.578016 100C 510.501616 143.5917 474.163516 178 429.789016 178C 385.414516 178 349.076516 143.5917 346.000016 100M 681.578016 88C 678.501616 44.4083 642.163516 10 597.789016 10C 553.414516 10 517.076516 44.4083 514.000016 88M 849.577955 100C 846.501555 143.5917 810.163455 178 765.788955 178C 721.414455 178 685.076455 143.5917 681.999955 100M 1017.577955 88C 1014.501555 44.4083 978.163455 10 933.788955 10C 889.414455 10 853.076455 44.4083 849.999955 88M 1185.577955 100C 1182.501555 143.5917 1146.163455 178 1101.788955 178C 1057.414455 178 1021.076455 143.5917 1017.999955 100"></path></g></g></g><g id="g-root-1.g-1_1_fr_1luwqjz7jq5mw-stroke" data-item-order="-793650" transform="translate(44, 221)"><g id="1.g-1_1_fr_1luwqjz7jq5mw-stroke" fill="none" stroke-linecap="round" stroke-linejoin="round" stroke-miterlimit="4" stroke="#f4f4f4" stroke-width="2"><g><path d="M 34 151C 34.000002 187.450795 63.549208 217.000002 100.000002 217.000002C 136.450795 217.000002 166.000002 187.450795 166.000002 151.000002C 166.000002 114.549208 136.450795 85.000002 100.000002 85.000002C 63.549208 85.000002 34.000002 114.549208 34.000002 151.000002M 10 151C 10 154.313709 12.686292 157 16 157C 19.313709 157 22 154.313709 22 151C 22 147.686292 19.313709 145 16 145C 12.686292 145 10 147.686292 10 151"></path></g></g><g id="1.g-1_1_fr_1luwqjz7jq5mw-stroke" fill="none" stroke-linecap="round" stroke-linejoin="round" stroke-miterlimit="4" stroke="#f4f4f4" stroke-width="2"><g><path d="M 109 19C 109 23.9706 104.9706 28 100 28C 95.0294 28 91 23.9706 91 19C 91 14.0294 95.0294 10 100 10C 104.9706 10 109 14.0294 109 19Z"></path></g></g></g><g id="g-root-2.g-2_fr_18k2p9r7jq422-stroke" data-item-order="-793638" transform="translate(212, 296)"><g id="2.g-2_fr_18k2p9r7jq422-stroke" fill="none" stroke-linecap="round" stroke-linejoin="round" stroke-miterlimit="4" stroke="#f4f4f4" stroke-width="2"><g><path d="M 34 76C 34.000002 112.450795 63.549208 142.000002 100.000002 142.000002C 136.450795 142.000002 166.000002 112.450795 166.000002 76.000002C 166.000002 39.549208 136.450795 10.000002 100.000002 10.000002C 63.549208 10.000002 34.000002 39.549208 34.000002 76.000002M 10 76C 10 79.313709 12.686292 82 16 82C 19.313709 82 22 79.313709 22 76C 22 72.686292 19.313709 70 16 70C 12.686292 70 10 72.686292 10 76"></path></g></g><g id="2.g-2_fr_18k2p9r7jq422-stroke" fill="none" stroke-linecap="round" stroke-linejoin="round" stroke-miterlimit="4" stroke="#f4f4f4" stroke-width="2"><g><path d="M 109 208C 109 212.9706 104.9706 217 100 217C 95.0294 217 91 212.9706 91 208C 91 203.0294 95.0294 199 100 199C 104.9706 199 109 203.0294 109 208Z"></path></g></g></g><g id="g-root-3.g-3_1_fr_144975b7jq4uc-stroke" data-item-order="-793626" transform="translate(380, 221)"><g id="3.g-3_1_fr_144975b7jq4uc-stroke" fill="none" stroke-linecap="round" stroke-linejoin="round" stroke-miterlimit="4" stroke="#f4f4f4" stroke-width="2"><g><path d="M 34 151C 34.000002 187.450795 63.549208 217.000002 100.000002 217.000002C 136.450795 217.000002 166.000002 187.450795 166.000002 151.000002C 166.000002 114.549208 136.450795 85.000002 100.000002 85.000002C 63.549208 85.000002 34.000002 114.549208 34.000002 151.000002M 10 151C 10 154.313709 12.686292 157 16 157C 19.313709 157 22 154.313709 22 151C 22 147.686292 19.313709 145 16 145C 12.686292 145 10 147.686292 10 151"></path></g></g><g id="3.g-3_1_fr_144975b7jq4uc-stroke" fill="none" stroke-linecap="round" stroke-linejoin="round" stroke-miterlimit="4" stroke="#f4f4f4" stroke-width="2"><g><path d="M 109 19C 109 23.9706 104.9706 28 100 28C 95.0294 28 91 23.9706 91 19C 91 14.0294 95.0294 10 100 10C 104.9706 10 109 14.0294 109 19Z"></path></g></g></g><g id="g-root-4.g-4_fr_v8m6wf7jq5n2-stroke" data-item-order="-793614" transform="translate(548, 296)"><g id="4.g-4_fr_v8m6wf7jq5n2-stroke" fill="none" stroke-linecap="round" stroke-linejoin="round" stroke-miterlimit="4" stroke="#f4f4f4" stroke-width="2"><g><path d="M 34 76C 34.000002 112.450795 63.549208 142.000002 100.000002 142.000002C 136.450795 142.000002 166.000002 112.450795 166.000002 76.000002C 166.000002 39.549208 136.450795 10.000002 100.000002 10.000002C 63.549208 10.000002 34.000002 39.549208 34.000002 76.000002M 10 76C 10 79.313709 12.686292 82 16 82C 19.313709 82 22 79.313709 22 76C 22 72.686292 19.313709 70 16 70C 12.686292 70 10 72.686292 10 76"></path></g></g><g id="4.g-4_fr_v8m6wf7jq5n2-stroke" fill="none" stroke-linecap="round" stroke-linejoin="round" stroke-miterlimit="4" stroke="#f4f4f4" stroke-width="2"><g><path d="M 109 208C 109 212.9706 104.9706 217 100 217C 95.0294 217 91 212.9706 91 208C 91 203.0294 95.0294 199 100 199C 104.9706 199 109 203.0294 109 208Z"></path></g></g></g><g id="g-root-5.g-5_2_fr_mdlnqn7jq41s-stroke" data-item-order="-793602" transform="translate(716, 221)"><g id="5.g-5_2_fr_mdlnqn7jq41s-stroke" fill="none" stroke-linecap="round" stroke-linejoin="round" stroke-miterlimit="4" stroke="#f4f4f4" stroke-width="2"><g><path d="M 34 151C 34.000002 187.450795 63.549208 217.000002 100.000002 217.000002C 136.450795 217.000002 166.000002 187.450795 166.000002 151.000002C 166.000002 114.549208 136.450795 85.000002 100.000002 85.000002C 63.549208 85.000002 34.000002 114.549208 34.000002 151.000002M 10 151C 10 154.313709 12.686292 157 16 157C 19.313709 157 22 154.313709 22 151C 22 147.686292 19.313709 145 16 145C 12.686292 145 10 147.686292 10 151"></path></g></g><g id="5.g-5_2_fr_mdlnqn7jq41s-stroke" fill="none" stroke-linecap="round" stroke-linejoin="round" stroke-miterlimit="4" stroke="#f4f4f4" stroke-width="2"><g><path d="M 109 19C 109 23.9706 104.9706 28 100 28C 95.0294 28 91 23.9706 91 19C 91 14.0294 95.0294 10 100 10C 104.9706 10 109 14.0294 109 19Z"></path></g></g></g><g id="g-root-6.g-6_fr_dhynhr7jq4ui-stroke" data-item-order="-793590" transform="translate(884, 296)"><g id="6.g-6_fr_dhynhr7jq4ui-stroke" fill="none" stroke-linecap="round" stroke-linejoin="round" stroke-miterlimit="4" stroke="#f4f4f4" stroke-width="2"><g><path d="M 34 76C 34.000002 112.450795 63.549208 142.000002 100.000002 142.000002C 136.450795 142.000002 166.000002 112.450795 166.000002 76.000002C 166.000002 39.549208 136.450795 10.000002 100.000002 10.000002C 63.549208 10.000002 34.000002 39.549208 34.000002 76.000002M 10 76C 10 79.313709 12.686292 82 16 82C 19.313709 82 22 79.313709 22 76C 22 72.686292 19.313709 70 16 70C 12.686292 70 10 72.686292 10 76"></path></g></g><g id="6.g-6_fr_dhynhr7jq4ui-stroke" fill="none" stroke-linecap="round" stroke-linejoin="round" stroke-miterlimit="4" stroke="#f4f4f4" stroke-width="2"><g><path d="M 109 208C 109 212.9706 104.9706 217 100 217C 95.0294 217 91 212.9706 91 208C 91 203.0294 95.0294 199 100 199C 104.9706 199 109 203.0294 109 208Z"></path></g></g></g><g id="g-root-7.g-7_fr_9255db7jq5ms-stroke" data-item-order="-793578" transform="translate(1052, 221)"><g id="7.g-7_fr_9255db7jq5ms-stroke" fill="none" stroke-linecap="round" stroke-linejoin="round" stroke-miterlimit="4" stroke="#f4f4f4" stroke-width="2"><g><path d="M 34 151C 34.000002 187.450795 63.549208 217.000002 100.000002 217.000002C 136.450795 217.000002 166.000002 187.450795 166.000002 151.000002C 166.000002 114.549208 136.450795 85.000002 100.000002 85.000002C 63.549208 85.000002 34.000002 114.549208 34.000002 151.000002M 10 151C 10 154.313709 12.686292 157 16 157C 19.313709 157 22 154.313709 22 151C 22 147.686292 19.313709 145 16 145C 12.686292 145 10 147.686292 10 151M 178 151C 178 154.313709 180.686292 157 184 157C 187.313709 157 190 154.313709 190 151C 190 147.686292 187.313709 145 184 145C 180.686292 145 178 147.686292 178 151"></path></g></g><g id="7.g-7_fr_9255db7jq5ms-stroke" fill="none" stroke-linecap="round" stroke-linejoin="round" stroke-miterlimit="4" stroke="#f4f4f4" stroke-width="2"><g><path d="M 109 19C 109 23.9706 104.9706 28 100 28C 95.0294 28 91 23.9706 91 19C 91 14.0294 95.0294 10 100 10C 104.9706 10 109 14.0294 109 19Z"></path></g></g></g><g id="g-root--1.line_fr_1usf6277jq3uu-stroke" data-item-order="-793565" transform="translate(134, 239)"><g id="-1.line_fr_1usf6277jq3uu-stroke" fill="none" stroke-linecap="round" stroke-linejoin="round" stroke-miterlimit="4" stroke="#f4f4f4" stroke-width="2"><g><path d="M 10 67L 10 10"></path></g></g></g><g id="g-root--1.line_1_fr_1usf6277jq3uw-stroke" data-item-order="-793561" transform="translate(470, 239)"><g id="-1.line_1_fr_1usf6277jq3uw-stroke" fill="none" stroke-linecap="round" stroke-linejoin="round" stroke-miterlimit="4" stroke="#f4f4f4" stroke-width="2"><g><path d="M 10 67L 10 10"></path></g></g></g><g id="g-root--1.line_2_fr_1d1rmnj7jq32a-stroke" data-item-order="-793557" transform="translate(806, 239)"><g id="-1.line_2_fr_1d1rmnj7jq32a-stroke" fill="none" stroke-linecap="round" stroke-linejoin="round" stroke-miterlimit="4" stroke="#f4f4f4" stroke-width="2"><g><path d="M 10 67L 10 10"></path></g></g></g><g id="g-root--1.line_3_fr_1464men7jq3v0-stroke" data-item-order="-793553" transform="translate(1142, 239)"><g id="-1.line_3_fr_1464men7jq3v0-stroke" fill="none" stroke-linecap="round" stroke-linejoin="round" stroke-miterlimit="4" stroke="#f4f4f4" stroke-width="2"><g><path d="M 10 67L 10 10"></path></g></g></g><g id="g-root--1.line_4_fr_1464men7jq3v2-stroke" data-item-order="-793549" transform="translate(302, 428)"><g id="-1.line_4_fr_1464men7jq3v2-stroke" fill="none" stroke-linecap="round" stroke-linejoin="round" stroke-miterlimit="4" stroke="#f4f4f4" stroke-width="2"><g><path d="M 10 67L 10 10"></path></g></g></g><g id="g-root--1.line_5_fr_zqb4a77jq4nc-stroke" data-item-order="-793545" transform="translate(638, 428)"><g id="-1.line_5_fr_zqb4a77jq4nc-stroke" fill="none" stroke-linecap="round" stroke-linejoin="round" stroke-miterlimit="4" stroke="#f4f4f4" stroke-width="2"><g><path d="M 10 67L 10 10"></path></g></g></g><g id="g-root--1.line_6_fr_zqb4a77jq4ne-stroke" data-item-order="-793541" transform="translate(974, 428)"><g id="-1.line_6_fr_zqb4a77jq4ne-stroke" fill="none" stroke-linecap="round" stroke-linejoin="round" stroke-miterlimit="4" stroke="#f4f4f4" stroke-width="2"><g><path d="M 10 67L 10 10"></path></g></g></g><g id="g-root-tx_understa_1uualbj7jq2vi-stroke" data-item-order="0" transform="translate(32, 170)"></g><g id="g-root-tx_presenti_1uljy3z7jrjm4-stroke" data-item-order="0" transform="translate(1046, 146)"></g><g id="g-root-tx_usingsta_hrjer37jrhfm-stroke" data-item-order="0" transform="translate(704, 146)"></g><g id="g-root-tx_handling_18ntjsf7jq2v4-stroke" data-item-order="0" transform="translate(380, 146)"></g><g id="g-root-tx_defining_hznkvj7jq3ut-stroke" data-item-order="0" transform="translate(32, 110)"></g><g id="g-root-tx_communic_4g2wdr7jrj0j-stroke" data-item-order="0" transform="translate(1064, 86)"></g><g id="g-root-ques_1cuwepb7jrith-stroke" data-item-order="0" transform="translate(104, 332)"><g id="ques_1cuwepb7jrith-stroke" fill="none" stroke-linecap="round" stroke-linejoin="round" stroke-miterlimit="4" stroke="#f4f4f4" stroke-width="2"><g><path d="M 38.75 26.25C 38.750004 34.534271 45.465729 41.25 53.75 41.25C 62.034271 41.25 68.75 34.534271 68.75 26.25C 68.75 17.965729 62.034271 11.25 53.75 11.25C 45.465729 11.25 38.750004 17.965729 38.750004 26.25ZM 49.0625 22.605C 49.062504 20.016167 51.161163 17.917501 53.75 17.917501C 56.338837 17.917501 58.4375 20.016167 58.4375 22.605001C 58.4375 25.193836 56.338837 27.292501 53.75 27.292501L 53.75 29.7925M 53.75 34.7925C 54.095177 34.7925 54.375 35.072323 54.375 35.4175C 54.375 35.762676 54.095177 36.0425 53.75 36.0425C 53.404823 36.0425 53.125 35.762676 53.125 35.4175C 53.125 35.072323 53.404823 34.7925 53.75 34.7925M 23.75 37.5L 23.75 45M 28.75 68.75L 30 53.75L 36.25 53.75L 36.25 45C 36.25 38.096443 30.653561 32.5 23.75 32.5C 16.846441 32.5 11.25 38.096443 11.25 45L 11.25 53.75L 17.5 53.75L 18.75 68.75ZM 16.209999 15.5575C 18.947859 18.397079 22.723 20.000814 26.6675 20C 28.644588 20.000452 30.60104 19.598103 32.4175 18.817501M 15 20C 15.000001 24.832493 18.917509 28.75 23.750002 28.75C 28.582493 28.75 32.5 24.832493 32.5 20C 32.5 15.167509 28.582493 11.25 23.750002 11.25C 18.917509 11.25 15.000001 15.167509 15.000001 20Z"></path></g></g></g><g id="g-root-down_1unfddb7jsw06-stroke" data-item-order="0" transform="translate(272, 332)"><g id="down_1unfddb7jsw06-stroke" fill="none" stroke-linecap="round" stroke-linejoin="round" stroke-miterlimit="4" stroke="#f4f4f4" stroke-width="2"><g><path d="M 38.3125 40.022499C 38.311119 41.892387 36.794888 43.407501 34.924999 43.407501L 14.615 43.407501C 12.745516 43.407501 11.23 41.891983 11.23 40.022499L 11.23 14.635C 11.23 12.765516 12.745516 11.25 14.615 11.25L 27.8825 11.25C 28.781178 11.252273 29.642008 11.612077 30.275002 12.25L 37.32 19.2925C 37.958302 19.92626 38.318115 20.788012 38.32 21.6875ZM 34.355 60.162502L 23.105 60.162502C 21.724289 60.162502 20.605 59.043213 20.605 57.662502L 20.605 51.087498M 38.3125 34.945L 32.0975 27.844999C 31.672432 27.355364 31.056797 27.072908 30.408401 27.070034C 29.760006 27.067162 29.14189 27.344151 28.7125 27.83L 21.385 36.080002L 17.3225 32.830002C 16.426889 32.111462 15.133907 32.182575 14.3225 32.994999L 11.23 36.072498M 19.6675 20C 21.048212 20 22.1675 21.119287 22.1675 22.5C 22.1675 23.880713 21.048212 25 19.6675 25C 18.286787 25 17.1675 23.880713 17.1675 22.5C 17.1675 21.119287 18.286787 20 19.6675 20M 29.355 65.162498L 34.355 60.162502L 29.355 55.162502M 57.519997 47.149998C 63.732498 47.149998 68.769997 45.537498 68.769997 43.549999C 68.769997 41.5625 63.732498 39.949997 57.519997 39.949997C 51.307503 39.949997 46.27 41.5625 46.27 43.549999C 46.27 45.537498 51.305 47.149998 57.519997 47.149998ZM 46.27 54.349998L 46.27 43.549999M 68.769997 43.549999L 68.769997 54.349998M 68.769997 54.349998L 68.769997 65.150002C 68.769997 67.150002 63.732498 68.75 57.519997 68.75C 51.307503 68.75 46.27 67.137497 46.27 65.150002L 46.27 54.349998M 68.769997 50.599998C 68.769997 52.600002 63.732498 54.200001 57.519997 54.200001C 51.307503 54.200001 46.27 52.587502 46.27 50.599998M 68.769997 58.099998C 68.769997 60.100002 63.732498 61.700001 57.519997 61.700001C 51.307503 61.700001 46.27 60.087502 46.27 58.099998"></path></g></g></g><g id="g-root-refr_1uux2en7juccv-stroke" data-item-order="0" transform="translate(440, 332)"><g id="refr_1uux2en7juccv-stroke" fill="none" stroke-linecap="round" stroke-linejoin="round" stroke-miterlimit="4" stroke="#f4f4f4" stroke-width="2"><g><path d="M 36.25 68.75L 13.75 68.75C 12.369288 68.75 11.25 67.630707 11.25 66.25L 11.25 13.75C 11.25 12.369288 12.369288 11.25 13.75 11.25L 46.982502 11.25C 47.645489 11.250141 48.281269 11.513626 48.75 11.9825L 58.017502 21.25C 58.486374 21.718733 58.749855 22.354513 58.75 23.0175L 58.75 33.75M 18.75 48.75L 33.75 48.75M 22.5 36.25L 25 36.25C 25.690357 36.25 26.25 36.809647 26.25 37.5L 26.25 48.75L 26.25 48.75L 21.25 48.75L 21.25 48.75L 21.25 37.5C 21.25 36.809647 21.809643 36.25 22.5 36.25ZM 36.25 41.25L 36.25 30C 36.25 29.309643 35.690353 28.75 35 28.75L 32.5 28.75C 31.809645 28.75 31.25 29.309643 31.25 30L 31.25 48.75M 60 53.737503L 68.75 53.737503L 68.75 44.987499M 53.75 68.735001C 46.317802 68.738007 40.228382 62.834606 40.000881 55.405888C 39.773384 47.977173 45.490158 41.712212 52.908611 41.260429C 60.327068 40.808647 66.761848 46.333576 67.4375 53.735004M 68.75 44.985001L 68.75 53.735001L 60 53.737503"></path></g></g></g><g id="g-root-view_1qa3rlb7jvr48-stroke" data-item-order="0" transform="translate(608, 332)"><g id="view_1qa3rlb7jvr48-stroke" fill="none" stroke-linecap="round" stroke-linejoin="round" stroke-miterlimit="4" stroke="#f4f4f4" stroke-width="2"><g><path d="M 33.150002 53.829998L 17.5 53.829998C 14.738576 53.829998 12.5 51.591423 12.5 48.829998L 12.5 17.559999C 12.5 14.798576 14.738576 12.56 17.5 12.56L 55.022503 12.56C 57.783924 12.56 60.022503 14.798576 60.022503 17.559999L 60.022503 34.5825M 12.5 22.324999L 60.025002 22.324999M 12.5 43.084999L 33.419998 43.084999M 12.5 32.7225L 40.0275 32.7225M 31.9125 22.324999L 31.9125 53.829998M 45.827499 22.324999L 45.827499 32.7225M 50.195 62.040001C 57.02282 61.897854 62.444214 56.250427 62.307503 49.422501C 62.444214 42.59457 57.02282 36.947144 50.195 36.805C 43.36718 36.947144 37.945789 42.59457 38.0825 49.422501C 37.945789 56.250427 43.36718 61.897854 50.195 62.040001ZM 67.5 67.442497L 58.75 58.34"></path></g></g></g><g id="g-root-anal_qu1my77jvqx5-stroke" data-item-order="0" transform="translate(776, 332)"><g id="anal_qu1my77jvqx5-stroke" fill="none" stroke-linecap="round" stroke-linejoin="round" stroke-miterlimit="4" stroke="#f4f4f4" stroke-width="2"><g><path d="M 53.75 61.25C 53.75 65.392136 57.107868 68.75 61.25 68.75C 65.392136 68.75 68.75 65.392136 68.75 61.25L 68.75 18.75C 68.75 14.607864 65.392136 11.25 61.25 11.25C 57.107868 11.25 53.75 14.607864 53.75 18.75ZM 32.5 61.25C 32.5 65.392136 35.857864 68.75 40 68.75C 44.142136 68.75 47.5 65.392136 47.5 61.25L 47.5 46.25C 47.5 42.107864 44.142136 38.75 40 38.75C 35.857864 38.75 32.5 42.107864 32.5 46.25ZM 11.25 61.25C 11.25 65.392136 14.607864 68.75 18.75 68.75C 22.892136 68.75 26.25 65.392136 26.25 61.25C 26.25 57.107868 22.892136 53.75 18.75 53.75C 14.607864 53.75 11.25 57.107868 11.25 61.25"></path></g></g></g><g id="g-root-tx_summariz_1qbcprj7jyk1z-stroke" data-item-order="0" transform="translate(548, 578)"></g><g id="g-root-buil_1d3n1wv7jx5hn-stroke" data-item-order="0" transform="translate(1112, 332)"><g id="buil_1d3n1wv7jx5hn-stroke" fill="none" stroke-linecap="round" stroke-linejoin="round" stroke-miterlimit="4" stroke="#f4f4f4" stroke-width="2"><g><path d="M 52.5 13.75L 58.75 13.75C 60.130711 13.75 61.25 14.869288 61.25 16.25L 61.25 33.75C 61.25 35.130714 60.130711 36.25 58.75 36.25L 48.75 36.25L 42.317501 42.690002C 42.139053 42.8689 41.870441 42.922749 41.636826 42.826458C 41.40321 42.730167 41.250557 42.502682 41.25 42.25L 41.25 36.25L 23.75 36.25C 22.369287 36.25 21.25 35.130714 21.25 33.75L 21.25 16.25C 21.25 14.869288 22.369287 13.75 23.75 13.75L 28.75 13.75M 15.325001 50.625C 15.325001 54.421959 18.403042 57.5 22.200001 57.5C 25.996958 57.5 29.075001 54.421959 29.075001 50.625C 29.075001 46.828045 25.996958 43.750004 22.200001 43.750004C 18.403042 43.750004 15.325001 46.828045 15.325001 50.625M 33.147499 68.75C 31.99086 63.633274 27.444571 59.999969 22.19875 59.999969C 16.952929 59.999969 12.406639 63.633274 11.25 68.749992M 50.925003 50.625C 50.925003 54.421959 54.003044 57.5 57.800003 57.5C 61.596962 57.5 64.675003 54.421959 64.675003 50.625C 64.675003 46.828045 61.596962 43.750004 57.800003 43.750004C 54.003044 43.750004 50.925003 46.828045 50.925003 50.625M 68.75 68.75C 67.593361 63.633274 63.04707 59.999969 57.801247 59.999969C 52.555428 59.999969 48.00914 63.633274 46.852497 68.749992M 43.75 28.75L 35 28.75C 34.309647 28.75 33.75 28.190357 33.75 27.5L 33.75 13.2725C 33.750015 12.83909 33.974537 12.436618 34.343323 12.208929C 34.712109 11.981239 35.172516 11.960833 35.560001 12.155L 43.75 16.25ZM 43.75 18.75L 50 18.75C 50.690353 18.75 51.25 19.309645 51.25 20L 51.25 27.5C 51.25 28.190357 50.690353 28.75 50 28.75L 43.75 28.75M 33.75 18.75L 37.5 18.75M 33.75 23.75L 37.5 23.75M 43.75 16.25L 43.75 11.25"></path></g></g></g><g id="g-root-tx_applying_vcd1f37jq4g1-stroke" data-item-order="0" transform="translate(710, 86)"></g><g id="g-root-tx_cleaning_1hiu2y77jq4gf-stroke" data-item-order="0" transform="translate(380, 86)"></g><g id="g-root-tx_dataanal_mfh2zz7jq32k-stroke" data-item-order="0" transform="translate(536, 2)"></g><g id="g-root-tx_collecti_zn6qun7jyl1o-stroke" data-item-order="0" transform="translate(230, 518)"></g><g id="g-root-tx_explorat_90w7737jyl1q-stroke" data-item-order="0" transform="translate(554, 518)"></g><g id="g-root-tx_interpre_1lvj7n37jyku8-stroke" data-item-order="0" transform="translate(878, 518)"></g><g id="g-root-tx_gatherin_mccpkf7jyjgt-stroke" data-item-order="0" transform="translate(200, 554)"></g><g id="g-root-tx_deriving_18kp6cv7jyj9d-stroke" data-item-order="0" transform="translate(884, 554)"></g><g id="g-root-plac_ddlbvz7jx6h6-stroke" data-item-order="0" transform="translate(944, 332)"><g id="plac_ddlbvz7jx6h6-stroke" fill="none" stroke-linecap="round" stroke-linejoin="round" stroke-miterlimit="4" stroke="#f4f4f4" stroke-width="2"><g><path d="M 11.25 57.724998L 36.25 57.724998M 18.75 57.724998L 11.25 57.724998L 11.25 23.975C 11.25 23.284643 11.809644 22.725 12.5 22.725L 17.5 22.725C 18.190355 22.725 18.75 23.284643 18.75 23.975ZM 50 48.974998L 53.75 46.474998L 53.75 56.474998M 11.5 13.175L 12.975 16.4M 19.85 12.275L 18.525 15.8M 25.549999 18.424999L 22.35 19.9M 41.25 52.099998C 41.25 58.658379 46.56662 63.974998 53.125 63.974998C 59.68338 63.974998 65 58.658379 65 52.099998C 65 45.541618 59.68338 40.224998 53.125 40.224998C 46.56662 40.224998 41.25 45.541618 41.25 52.099998M 68.75 67.724998L 61.525002 60.475002M 51.25 56.474998L 56.25 56.474998M 31.25 57.724998L 23.75 57.724998L 23.75 30.225C 23.75 29.534643 24.309643 28.975 25 28.975L 30 28.975C 30.690355 28.975 31.25 29.534643 31.25 30.225ZM 36.25 57.724998L 36.25 36.474998C 36.25 35.784645 36.809647 35.224998 37.5 35.224998L 42.5 35.224998C 43.190353 35.224998 43.75 35.784645 43.75 36.474998L 43.75 37.724998"></path></g></g></g></g></g></svg>