<?xml version="1.0" encoding="utf-8" standalone="yes"?>
<!DOCTYPE svg PUBLIC "-//W3C//DTD SVG 1.1//EN" "http://www.w3.org/Graphics/SVG/1.1/DTD/svg11.dtd">
<svg width="830" height="986" viewBox="0 0 830 986" style="fill:none;stroke:none;fill-rule:evenodd;clip-rule:evenodd;stroke-linecap:round;stroke-linejoin:round;stroke-miterlimit:1.5;" version="1.1" xmlns="http://www.w3.org/2000/svg" xmlns:xlink="http://www.w3.org/1999/xlink"><style class="text-font-style fontImports" data-font-family="Roboto">@import url('https://fonts.googleapis.com/css2?family=Roboto:wght@400;700&amp;display=block');</style><g id="items" style="isolation: isolate"><g id="blend" style="mix-blend-mode: normal"><g id="g-root-1.g-1_fr_1lw55sf526fwo-fill" data-item-order="-692630" transform="translate(111.6719970703125, 213)"><g id="1.g-1_fr_1lw55sf526fwo-fill" stroke="none" fill="url(#gradient-2898bd-56937253)"><g><path d="M 210.17 94L 10 94C 28.8446 82.6175 51.3373 75.0886 77.478 71.4133L 77.478 26.3333C 77.478 21.5422 78.8875 17.6222 81.7067 14.5733C 84.5258 11.5244 88.1503 10 92.5804 10L 135.471 10C 139.498 10 142.922 11.5244 145.741 14.5733C 148.56 17.6222 149.969 21.5422 149.969 26.3333L 149.969 72.72C 173.301 76.7427 193.368 83.8361 210.17 94Z"></path></g></g></g><g id="g-root-2.g-2_fr_1hgy4r3526dj6-fill" data-item-order="-692626" transform="translate(52.691986083984375, 297)"><g id="2.g-2_fr_1hgy4r3526dj6-fill" stroke="none" fill="url(#gradient-40ae79-389135447)"><g><path d="M 229.258 94C 225.886 89.7517 221.533 85.8006 216.198 82.1466C 204.116 73.4355 188.812 69.08 170.287 69.08C 150.553 69.08 134.847 73 123.167 80.84C 117.891 84.3821 113.806 88.7687 110.913 94L 10 94C 14.2942 70.3859 24.8323 49.6659 41.6145 31.84C 49.6699 23.4337 58.7916 16.1537 68.9795 10L 269.15 10C 272.359 11.9413 275.449 13.9946 278.42 16.16C 297.348 29.2266 311.645 44.2533 321.311 61.24C 328.073 72.3565 332.655 83.2765 335.057 94L 229.258 94Z"></path></g></g></g><g id="g-root-3.g-3_fr_18lb4i7526ebw-fill" data-item-order="-692622" transform="translate(50.477996826171875, 381)"><g id="3.g-3_fr_18lb4i7526ebw-fill" stroke="none" fill="url(#gradient-87aa3f-469929121)"><g><path d="M 194.519 94L 21.7928 94C 13.9309 77.5689 10 58.0312 10 35.3867C 10 26.5822 10.7383 18.12 12.2149 10L 113.128 10C 109.6185 16.3476 107.8635 23.9387 107.8635 32.7733C 107.8635 43.2267 110.884 52.1555 116.925 59.56C 122.966 66.5289 132.833 72.8444 146.526 78.5067C 158.702 83.1544 174.7 88.3189 194.519 94ZM 337.272 10L 231.472 10C 235.737 15.3734 238.432 21.2223 239.556 27.5467C 240.216 31.2563 243.409 35.377 246.631 37.1192C 249.853 38.8614 254.659 39.3067 258.283 39.3067L 326.546 39.3067C 330.171 39.3067 333.191 38 335.607 35.3867C 338.024 32.3378 339.232 29.0711 339.232 25.5866C 339.1 20.438 338.447 15.2425 337.272 10Z"></path></g></g></g><g id="g-root-4.g-4_fr_145hmdr526f46-fill" data-item-order="-692618" transform="translate(62.27099609375, 465)"><g id="4.g-4_fr_145hmdr526f46-fill" stroke="none" fill="url(#gradient-c3b321-14556876)"><g><path d="M 182.727 10C 185.195 10.7076 187.723 11.4231 190.31 12.1467C 225.75 19.9867 254.545 29.3511 276.695 40.24C 298.845 51.1289 314.955 65.2844 325.023 82.7067C 327.219 86.2699 329.185 90.0343 330.921 94L 163.144 94C 155.527 91.8137 147.265 89.5737 138.357 87.28C 108.1526 80.3111 82.5793 71.3822 61.6373 60.4933C 40.6953 49.1689 24.7875 34.7956 13.9137 17.3733C 12.5158 14.9893 11.2113 12.5315 10 10L 182.727 10Z"></path></g></g></g><g id="g-root-5.g-5_fr_zpo49b526fwg-fill" data-item-order="-692614" transform="translate(39, 549)"><g id="5.g-5_fr_zpo49b526fwg-fill" stroke="none" fill="url(#gradient-c67b35-424552419)"><g><path d="M 354.192 10C 360.731 24.9396 364 42.7352 364 63.3867C 364 74.1003 362.95 84.3047 360.849 94L 258.009 94C 263.427 86.6518 266.137 77.9718 266.137 67.96C 266.137 56.6355 262.512 47.4889 255.263 40.52C 248.416 33.5511 237.341 27.2355 222.038 21.5733C 212.368 17.899 200.494 14.0412 186.415 10L 354.192 10ZM 10 74.4933C 10.2713 81.0944 11.0907 87.5966 12.4583 94L 120.513 94C 114.799 87.2647 110.582 80.327 107.8635 73.1866C 106.3199 69.1323 104.2051 66.8522 101.386 64.6745C 98.5669 62.0611 93.1638 60.7733 87.9283 60.7733L 23.2901 60.7733C 19.6655 60.7733 16.4437 62.2978 13.6246 65.3466C 11.2082 67.96 10 71.0089 10 74.4933Z"></path></g></g></g><g id="g-root-6.g-6_fr_zpo49b526fwi-fill" data-item-order="-692610" transform="translate(41.4580078125, 633)"><g id="6.g-6_fr_zpo49b526fwi-fill" stroke="none" fill="url(#gradient-d5514c-497200298)"><g><path d="M 292.802 94L 73.7137 94C 72.79 93.4791 71.876 92.9503 70.9718 92.4133C 50.4325 79.7822 34.9274 64.5378 24.4564 46.68C 17.5119 34.8365 12.6931 22.6098 10 10L 118.055 10C 118.266 10.2491 118.48 10.498 118.695 10.7466C 125.139 17.7156 133.798 23.5956 144.671 28.3867C 155.545 32.7422 169.037 34.92 185.146 34.92C 211.323 34.92 230.856 30.3466 243.743 21.2C 248.547 17.8935 252.483 14.1602 255.551 10L 358.391 10C 355.538 23.1656 350.749 35.3923 344.023 46.68C 332.344 65.8444 315.832 81.3066 294.487 93.0667C 293.928 93.3806 293.366 93.6917 292.802 94Z"></path></g></g></g><g id="g-root-7.g-7_fr_qunl3j526djg-fill" data-item-order="-692606" transform="translate(105.1719970703125, 717)"><defs><linearGradient id="gradient-2898bd-56937253" x2="0" y2="1"><stop offset="0" stop-color="#1fa9d7"></stop><stop offset="1" stop-color="#3187a3"></stop></linearGradient><linearGradient id="gradient-40ae79-389135447" x2="0" y2="1"><stop offset="0" stop-color="#3bc482"></stop><stop offset="1" stop-color="#449870"></stop></linearGradient><linearGradient id="gradient-87aa3f-469929121" x2="0" y2="1"><stop offset="0" stop-color="#91bb39"></stop><stop offset="1" stop-color="#7d9844"></stop></linearGradient><linearGradient id="gradient-c3b321-14556876" x2="0" y2="1"><stop offset="0" stop-color="#ddc916"></stop><stop offset="1" stop-color="#a99c2c"></stop></linearGradient><linearGradient id="gradient-c67b35-424552419" x2="0" y2="1"><stop offset="0" stop-color="#dc8331"></stop><stop offset="1" stop-color="#b07239"></stop></linearGradient><linearGradient id="gradient-d5514c-497200298" x2="0" y2="1"><stop offset="0" stop-color="#e45752"></stop><stop offset="1" stop-color="#c54a46"></stop></linearGradient><linearGradient id="gradient-ce519c-514854702" x2="0" y2="1"><stop offset="0" stop-color="#dd57a8"></stop><stop offset="1" stop-color="#bf4a90"></stop></linearGradient></defs><g id="7.g-7_fr_qunl3j526djg-fill" stroke="none" fill="url(#gradient-ce519c-514854702)"><g><path d="M 88.2068 89.4266C 91.0259 92.4755 94.6505 94 99.0805 94L 141.971 94C 145.999 94 149.422 92.4755 152.241 89.4266C 155.06 86.3777 156.47 82.4578 156.47 77.6666L 156.47 32.5867C 184.3 28.7712 208.506 21.2424 229.088 10L 10 10C 30.0587 21.3104 54.7181 28.8392 83.9781 32.5867L 83.9781 77.6666C 83.9781 82.4578 85.3877 86.3777 88.2068 89.4266Z"></path></g></g></g><g id="g-root-1.text-1_fr_meu2z3526ebq-fill" data-item-order="-692597" transform="translate(495, 111)"></g><g id="g-root-2.text-2_fr_93dklr526fwo-fill" data-item-order="-692581" transform="translate(495, 207)"></g><g id="g-root-3.text-3_fr_4o6jkf526dj6-fill" data-item-order="-692567" transform="translate(495, 327)"></g><g id="g-root-4.text-4_fr_1utnlan526e4s-fill" data-item-order="-692553" transform="translate(495, 447)"></g><g id="g-root-5.text-5_fr_1qdu367526ex2-fill" data-item-order="-692539" transform="translate(495, 567)"></g><g id="g-root-6.text-6_fr_1ly0l1r526fpc-fill" data-item-order="-692525" transform="translate(495, 687)"></g><g id="g-root-7.text-7_fr_1d2dksv526gi2-fill" data-item-order="-692511" transform="translate(495, 807)"></g><g id="g-root-tx_worksoni_1d3miz35299fw-fill" data-item-order="0" transform="translate(507, 363)"><g id="tx_worksoni_1d3miz35299fw-fill" stroke="none" fill="#f4f4f4"><g><text style="font: 15px Roboto, sans-serif; white-space: pre;" font-size="15px" font-family="Roboto, sans-serif"><tspan x="12" y="31" dominant-baseline="ideographic">Works on investment trends and </tspan><tspan x="12" y="49" dominant-baseline="ideographic">financial forecasting using </tspan><tspan x="12" y="67" dominant-baseline="ideographic">statistical models.</tspan></text></g></g></g><g id="g-root-tx_financia_1qf31cf5297uz-fill" data-item-order="0" transform="translate(507, 327)"><g id="tx_financia_1qf31cf5297uz-fill" stroke="none" fill="#a6da37"><g><text style="font: bold 20px Roboto, sans-serif; white-space: pre;" font-weight="bold" font-size="20px" font-family="Roboto, sans-serif"><tspan x="12" y="34" dominant-baseline="ideographic">Financial Analyst</tspan></text></g></g></g><g id="g-root-1_ziszgv51o5cd-fill" data-item-order="0" transform="translate(435, 333)"></g><g id="g-root-tx_marketin_4goxov51pjie-fill" data-item-order="0" transform="translate(507, 447)"><g id="tx_marketin_4goxov51pjie-fill" stroke="none" fill="#ffe711"><g><text style="font: bold 20px Roboto, sans-serif; white-space: pre;" font-weight="bold" font-size="20px" font-family="Roboto, sans-serif"><tspan x="12" y="34" dominant-baseline="ideographic">Marketing Analyst</tspan></text></g></g></g><g id="g-root-tx_focuseso_hs5cwf52988x-fill" data-item-order="0" transform="translate(507, 243)"><g id="tx_focuseso_hs5cwf52988x-fill" stroke="none" fill="#f4f4f4"><g><text style="font: 15px Roboto, sans-serif; white-space: pre;" font-size="15px" font-family="Roboto, sans-serif"><tspan x="12" y="31" dominant-baseline="ideographic">Focuses on business data to </tspan><tspan x="12" y="49" dominant-baseline="ideographic">identify trends and improve </tspan><tspan x="12" y="67" dominant-baseline="ideographic">performance.</tspan></text></g></g></g><g id="g-root-tx_usesmach_1uljibz51ts74-fill" data-item-order="0" transform="translate(507, 843)"><g id="tx_usesmach_1uljibz51ts74-fill" stroke="none" fill="#f4f4f4"><g><text style="font: 15px Roboto, sans-serif; white-space: pre;" font-size="15px" font-family="Roboto, sans-serif"><tspan x="12" y="31" dominant-baseline="ideographic">Uses machine learning for </tspan><tspan x="12" y="49" dominant-baseline="ideographic">predictive analytics and complex </tspan><tspan x="12" y="67" dominant-baseline="ideographic">data modeling.</tspan></text></g></g></g><g id="g-root-tx_analyzes_1q6chan51pkw7-fill" data-item-order="0" transform="translate(507, 483)"><g id="tx_analyzes_1q6chan51pkw7-fill" stroke="none" fill="#f4f4f4"><g><text style="font: 15px Roboto, sans-serif; white-space: pre;" font-size="15px" font-family="Roboto, sans-serif"><tspan x="12" y="31" dominant-baseline="ideographic">Analyzes customer behavior and </tspan><tspan x="12" y="49" dominant-baseline="ideographic">market trends to enhance </tspan><tspan x="12" y="67" dominant-baseline="ideographic">marketing strategies.</tspan></text></g></g></g><g id="g-root-tx_business_v3lv9r5296o0-fill" data-item-order="0" transform="translate(507, 207)"><g id="tx_business_v3lv9r5296o0-fill" stroke="none" fill="#43dd93"><g><text style="font: bold 20px Roboto, sans-serif; white-space: pre;" font-weight="bold" font-size="20px" font-family="Roboto, sans-serif"><tspan x="12" y="34" dominant-baseline="ideographic">Business Analyst</tspan></text></g></g></g><g id="g-root-anal_18itbbj51qxvv-fill" data-item-order="0" transform="translate(435, 573)"></g><g id="g-root-net_4hbbm75296o2-fill" data-item-order="0" transform="translate(435, 213)"></g><g id="g-root-tx_operatio_3zszz51qy2x-fill" data-item-order="0" transform="translate(507, 567)"><g id="tx_operatio_3zszz51qy2x-fill" stroke="none" fill="#f79438"><g><text style="font: bold 20px Roboto, sans-serif; white-space: pre;" font-weight="bold" font-size="20px" font-family="Roboto, sans-serif"><tspan x="12" y="34" dominant-baseline="ideographic">Operations Analyst</tspan></text></g></g></g><g id="g-root-tx_optimize_1ltnclr51qzgq-fill" data-item-order="0" transform="translate(507, 603)"><g id="tx_optimize_1ltnclr51qzgq-fill" stroke="none" fill="#f4f4f4"><g><text style="font: 15px Roboto, sans-serif; white-space: pre;" font-size="15px" font-family="Roboto, sans-serif"><tspan x="12" y="31" dominant-baseline="ideographic">Optimizes business operations </tspan><tspan x="12" y="49" dominant-baseline="ideographic">through data insights, focusing on </tspan><tspan x="12" y="67" dominant-baseline="ideographic">efficiency.</tspan></text></g></g></g><g id="g-root-tx_collects_i0w03z526e4m-fill" data-item-order="0" transform="translate(507, 147)"><g id="tx_collects_i0w03z526e4m-fill" stroke="none" fill="#f4f4f4"><g><text style="font: 15px Roboto, sans-serif; white-space: pre;" font-size="15px" font-family="Roboto, sans-serif"><tspan x="12" y="28" dominant-baseline="ideographic">Collects and analyzes data, </tspan><tspan x="12" y="46" dominant-baseline="ideographic">creating reports and dashboards.</tspan></text></g></g></g><g id="g-root-char_1hdtuhb51sdmu-fill" data-item-order="0" transform="translate(435, 693)"></g><g id="g-root-tx_dataanal_mg315b526gi5-fill" data-item-order="0" transform="translate(507, 111)"><g id="tx_dataanal_mg315b526gi5-fill" stroke="none" fill="#1ac3fb"><g><text style="font: bold 20px Roboto, sans-serif; white-space: pre;" font-weight="bold" font-size="20px" font-family="Roboto, sans-serif"><tspan x="12" y="34" dominant-baseline="ideographic">Data Analyst</tspan></text></g></g></g><g id="g-root-tx_producta_detua751sd1o-fill" data-item-order="0" transform="translate(507, 687)"><g id="tx_producta_detua751sd1o-fill" stroke="none" fill="#fb6762"><g><text style="font: bold 20px Roboto, sans-serif; white-space: pre;" font-weight="bold" font-size="20px" font-family="Roboto, sans-serif"><tspan x="12" y="34" dominant-baseline="ideographic">Product Analyst</tspan></text></g></g></g><g id="g-root-grap_4pfhqn526fpj-fill" data-item-order="0" transform="translate(435, 117)"></g><g id="g-root-tx_studiesp_3dbwv51seml-fill" data-item-order="0" transform="translate(507, 723)"><g id="tx_studiesp_3dbwv51seml-fill" stroke="none" fill="#f4f4f4"><g><text style="font: 15px Roboto, sans-serif; white-space: pre;" font-size="15px" font-family="Roboto, sans-serif"><tspan x="12" y="31" dominant-baseline="ideographic">Studies product usage data to </tspan><tspan x="12" y="49" dominant-baseline="ideographic">improve features and collaborate </tspan><tspan x="12" y="67" dominant-baseline="ideographic">with product teams.</tspan></text></g></g></g><g id="g-root-infe_1haph1r51tqm9-fill" data-item-order="0" transform="translate(435, 813)"></g><g id="g-root-tx_explorin_18n6jrj526e4k-fill" data-item-order="0" transform="translate(261, 39)"><g id="tx_explorin_18n6jrj526e4k-fill" stroke="none" fill="#f4f4f4"><g><text style="font: 20px Roboto, sans-serif; white-space: pre;" font-size="20px" font-family="Roboto, sans-serif"><tspan x="12.69" y="34" dominant-baseline="ideographic">Exploring Data Analysis Careers</tspan></text></g></g></g><g id="g-root-tx_datascie_4g2glr51tqtr-fill" data-item-order="0" transform="translate(507, 807)"><g id="tx_datascie_4g2glr51tqtr-fill" stroke="none" fill="#f366bb"><g><text style="font: bold 20px Roboto, sans-serif; white-space: pre;" font-weight="bold" font-size="20px" font-family="Roboto, sans-serif"><tspan x="12" y="34" dominant-baseline="ideographic">Data Scientist</tspan></text></g></g></g><g id="g-root-diag_1cvig0f51pjbc-fill" data-item-order="0" transform="translate(435, 453)"></g><g id="g-root-1.g-1_fr_1lw55sf526fwo-stroke" data-item-order="-692630" transform="translate(111.6719970703125, 213)"><g id="1.g-1_fr_1lw55sf526fwo-stroke" fill="none" stroke-linecap="round" stroke-linejoin="round" stroke-miterlimit="4" stroke="#f4f4f4" stroke-width="2"><g><path d="M 210.1703 94L 10 94C 28.8446 82.6175 51.3373 75.0886 77.478 71.4133L 77.478 26.3333C 77.478 21.5422 78.8875 17.6222 81.7067 14.5733C 84.5258 11.5244 88.1503 10 92.5804 10L 135.4712 10C 139.4985 10 142.9217 11.5244 145.7408 14.5733C 148.5599 17.6222 149.9695 21.5422 149.9695 26.3333L 149.9695 72.72C 173.3015 76.7427 193.3684 83.8361 210.1703 94Z"></path></g></g></g><g id="g-root-2.g-2_fr_1hgy4r3526dj6-stroke" data-item-order="-692626" transform="translate(52.691986083984375, 297)"><g id="2.g-2_fr_1hgy4r3526dj6-stroke" fill="none" stroke-linecap="round" stroke-linejoin="round" stroke-miterlimit="4" stroke="#f4f4f4" stroke-width="2"><g><path d="M 229.2575 94C 225.8858 89.7517 221.5327 85.8006 216.1981 82.1466C 204.1162 73.4355 188.8124 69.08 170.2868 69.08C 150.553 69.08 134.8465 73 123.1674 80.84C 117.8908 84.3821 113.8062 88.7687 110.9135 94L 10 94C 14.2942 70.3859 24.8323 49.6659 41.6145 31.84C 49.6699 23.4337 58.7916 16.1537 68.9795 10L 269.1498 10C 272.3589 11.9413 275.449 13.9946 278.42 16.16C 297.3483 29.2266 311.6452 44.2533 321.3107 61.24C 328.073 72.3565 332.6552 83.2765 335.0573 94L 229.2575 94Z"></path></g></g></g><g id="g-root-3.g-3_fr_18lb4i7526ebw-stroke" data-item-order="-692622" transform="translate(50.477996826171875, 381)"><g id="3.g-3_fr_18lb4i7526ebw-stroke" fill="none" stroke-linecap="round" stroke-linejoin="round" stroke-miterlimit="4" stroke="#f4f4f4" stroke-width="2"><g><path d="M 194.5194 94L 21.7928 94C 13.9309 77.5689 10 58.0312 10 35.3867C 10 26.5822 10.7383 18.12 12.2149 10L 113.1284 10C 109.6185 16.3476 107.8635 23.9387 107.8635 32.7733C 107.8635 43.2267 110.884 52.1555 116.9249 59.56C 122.9659 66.5289 132.8328 72.8444 146.5256 78.5067C 158.702 83.1544 174.6999 88.3189 194.5194 94ZM 337.2722 10L 231.4724 10C 235.7372 15.3734 238.4318 21.2223 239.5563 27.5467C 240.216 31.2563 243.4093 35.377 246.6312 37.1192C 249.853 38.8614 254.6587 39.3067 258.2833 39.3067L 326.5461 39.3067C 330.1707 39.3067 333.1911 38 335.6075 35.3867C 338.0239 32.3378 339.2321 29.0711 339.2321 25.5866C 339.0999 20.438 338.4466 15.2425 337.2722 10Z"></path></g></g></g><g id="g-root-4.g-4_fr_145hmdr526f46-stroke" data-item-order="-692618" transform="translate(62.27099609375, 465)"><g id="4.g-4_fr_145hmdr526f46-stroke" fill="none" stroke-linecap="round" stroke-linejoin="round" stroke-miterlimit="4" stroke="#f4f4f4" stroke-width="2"><g><path d="M 182.7267 10C 185.1951 10.7076 187.7227 11.4231 190.3097 12.1467C 225.7499 19.9867 254.5451 29.3511 276.6953 40.24C 298.8455 51.1289 314.9547 65.2844 325.023 82.7067C 327.2194 86.2699 329.1855 90.0343 330.9212 94L 163.144 94C 155.5271 91.8137 147.2649 89.5737 138.3574 87.28C 108.1526 80.3111 82.5793 71.3822 61.6373 60.4933C 40.6953 49.1689 24.7875 34.7956 13.9137 17.3733C 12.5158 14.9893 11.2113 12.5315 10 10L 182.7267 10Z"></path></g></g></g><g id="g-root-5.g-5_fr_zpo49b526fwg-stroke" data-item-order="-692614" transform="translate(39, 549)"><g id="5.g-5_fr_zpo49b526fwg-stroke" fill="none" stroke-linecap="round" stroke-linejoin="round" stroke-miterlimit="4" stroke="#f4f4f4" stroke-width="2"><g><path d="M 354.1918 10C 360.7306 24.9396 364 42.7352 364 63.3867C 364 74.1003 362.9497 84.3047 360.8491 94L 258.0091 94C 263.4274 86.6518 266.1365 77.9718 266.1365 67.96C 266.1365 56.6355 262.512 47.4889 255.2628 40.52C 248.4164 33.5511 237.3413 27.2355 222.0375 21.5733C 212.3679 17.899 200.4936 14.0412 186.4145 10L 354.1918 10ZM 10 74.4933C 10.2713 81.0944 11.0907 87.5966 12.4583 94L 120.5132 94C 114.7986 87.2647 110.5821 80.327 107.8635 73.1866C 106.3199 69.1323 104.2051 66.8522 101.386 64.6745C 98.5669 62.0611 93.1638 60.7733 87.9283 60.7733L 23.2901 60.7733C 19.6655 60.7733 16.4437 62.2978 13.6246 65.3466C 11.2082 67.96 10 71.0089 10 74.4933Z"></path></g></g></g><g id="g-root-6.g-6_fr_zpo49b526fwi-stroke" data-item-order="-692610" transform="translate(41.4580078125, 633)"><g id="6.g-6_fr_zpo49b526fwi-stroke" fill="none" stroke-linecap="round" stroke-linejoin="round" stroke-miterlimit="4" stroke="#f4f4f4" stroke-width="2"><g><path d="M 292.8019 94L 73.7137 94C 72.79 93.4791 71.876 92.9503 70.9718 92.4133C 50.4325 79.7822 34.9274 64.5378 24.4564 46.68C 17.5119 34.8365 12.6931 22.6098 10 10L 118.055 10C 118.2664 10.2491 118.4798 10.498 118.6953 10.7466C 125.139 17.7155 133.7977 23.5956 144.6714 28.3867C 155.5451 32.7422 169.0366 34.92 185.1458 34.92C 211.3233 34.92 230.8557 30.3466 243.7431 21.2C 248.5474 17.8935 252.4833 14.1602 255.5508 10L 358.3908 10C 355.5383 23.1656 350.749 35.3923 344.0229 46.68C 332.3438 65.8444 315.8318 81.3066 294.4871 93.0667C 293.9281 93.3806 293.3664 93.6917 292.8019 94Z"></path></g></g></g><g id="g-root-7.g-7_fr_qunl3j526djg-stroke" data-item-order="-692606" transform="translate(105.1719970703125, 717)"><g id="7.g-7_fr_qunl3j526djg-stroke" fill="none" stroke-linecap="round" stroke-linejoin="round" stroke-miterlimit="4" stroke="#f4f4f4" stroke-width="2"><g><path d="M 88.2068 89.4266C 91.0259 92.4755 94.6505 94 99.0805 94L 141.9713 94C 145.9986 94 149.4218 92.4755 152.2409 89.4266C 155.0601 86.3777 156.4696 82.4578 156.4696 77.6666L 156.4696 32.5867C 184.3002 28.7712 208.5064 21.2424 229.0882 10L 10 10C 30.0587 21.3104 54.7181 28.8392 83.9781 32.5867L 83.9781 77.6666C 83.9781 82.4578 85.3877 86.3777 88.2068 89.4266Z"></path></g></g></g><g id="g-root-1.text-1_fr_meu2z3526ebq-stroke" data-item-order="-692597" transform="translate(495, 111)"><g id="1.text-1_fr_meu2z3526ebq-stroke" fill="none" stroke-linecap="round" stroke-linejoin="round" stroke-miterlimit="4" stroke="#f4f4f4" stroke-width="2"><g><path d="M 10 10L 10 82"></path></g></g></g><g id="g-root-2.text-2_fr_93dklr526fwo-stroke" data-item-order="-692581" transform="translate(495, 207)"><g id="2.text-2_fr_93dklr526fwo-stroke" fill="none" stroke-linecap="round" stroke-linejoin="round" stroke-miterlimit="4" stroke="#f4f4f4" stroke-width="2"><g><path d="M 10 10L 10 106"></path></g></g></g><g id="g-root-3.text-3_fr_4o6jkf526dj6-stroke" data-item-order="-692567" transform="translate(495, 327)"><g id="3.text-3_fr_4o6jkf526dj6-stroke" fill="none" stroke-linecap="round" stroke-linejoin="round" stroke-miterlimit="4" stroke="#f4f4f4" stroke-width="2"><g><path d="M 10 10L 10 106"></path></g></g></g><g id="g-root-4.text-4_fr_1utnlan526e4s-stroke" data-item-order="-692553" transform="translate(495, 447)"><g id="4.text-4_fr_1utnlan526e4s-stroke" fill="none" stroke-linecap="round" stroke-linejoin="round" stroke-miterlimit="4" stroke="#f4f4f4" stroke-width="2"><g><path d="M 10 10L 10 106"></path></g></g></g><g id="g-root-5.text-5_fr_1qdu367526ex2-stroke" data-item-order="-692539" transform="translate(495, 567)"><g id="5.text-5_fr_1qdu367526ex2-stroke" fill="none" stroke-linecap="round" stroke-linejoin="round" stroke-miterlimit="4" stroke="#f4f4f4" stroke-width="2"><g><path d="M 10 10L 10 106"></path></g></g></g><g id="g-root-6.text-6_fr_1ly0l1r526fpc-stroke" data-item-order="-692525" transform="translate(495, 687)"><g id="6.text-6_fr_1ly0l1r526fpc-stroke" fill="none" stroke-linecap="round" stroke-linejoin="round" stroke-miterlimit="4" stroke="#f4f4f4" stroke-width="2"><g><path d="M 10 10L 10 106"></path></g></g></g><g id="g-root-7.text-7_fr_1d2dksv526gi2-stroke" data-item-order="-692511" transform="translate(495, 807)"><g id="7.text-7_fr_1d2dksv526gi2-stroke" fill="none" stroke-linecap="round" stroke-linejoin="round" stroke-miterlimit="4" stroke="#f4f4f4" stroke-width="2"><g><path d="M 10 10L 10 106"></path></g></g></g><g id="g-root-tx_worksoni_1d3miz35299fw-stroke" data-item-order="0" transform="translate(507, 363)"></g><g id="g-root-tx_financia_1qf31cf5297uz-stroke" data-item-order="0" transform="translate(507, 327)"></g><g id="g-root-1_ziszgv51o5cd-stroke" data-item-order="0" transform="translate(435, 333)"><g id="1_ziszgv51o5cd-stroke" fill="none" stroke-linecap="round" stroke-linejoin="round" stroke-miterlimit="4" stroke="#f4f4f4" stroke-width="2"><g><path d="M 37 39L 55 39C 56.104568 39 57 38.104568 57 37L 57 13C 57 11.895431 56.104568 11 55 11L 31 11M 52 19L 47.666 25.934C 47.504593 26.192162 47.234367 26.362726 46.931881 26.397375C 46.629395 26.432022 46.327599 26.326977 46.112 26.112L 42.888 22.888C 42.672401 22.673023 42.370605 22.567978 42.068119 22.602625C 41.765633 22.637272 41.495407 22.807838 41.334 23.066L 37 30M 21 32L 21 38M 25 57L 26 45L 31 45L 31 38C 31 32.477154 26.522848 28 21 28C 15.477153 28 11 32.477154 11 38L 11 45L 16 45L 17 57ZM 14.968 14.446C 17.158287 16.717663 20.1784 18.000652 23.334 18C 24.91567 18.000362 26.480831 17.678482 27.934 17.054001M 14 18C 14 21.865993 17.134007 25 21 25C 24.865993 25 28 21.865993 28 18C 28 14.134007 24.865993 11 21 11C 17.134007 11 14 14.134007 14 18Z"></path></g></g></g><g id="g-root-tx_marketin_4goxov51pjie-stroke" data-item-order="0" transform="translate(507, 447)"></g><g id="g-root-tx_focuseso_hs5cwf52988x-stroke" data-item-order="0" transform="translate(507, 243)"></g><g id="g-root-tx_usesmach_1uljibz51ts74-stroke" data-item-order="0" transform="translate(507, 843)"></g><g id="g-root-tx_analyzes_1q6chan51pkw7-stroke" data-item-order="0" transform="translate(507, 483)"></g><g id="g-root-tx_business_v3lv9r5296o0-stroke" data-item-order="0" transform="translate(507, 207)"></g><g id="g-root-anal_18itbbj51qxvv-stroke" data-item-order="0" transform="translate(435, 573)"><g id="anal_18itbbj51qxvv-stroke" fill="none" stroke-linecap="round" stroke-linejoin="round" stroke-miterlimit="4" stroke="#f4f4f4" stroke-width="2"><g><path d="M 41.5 52.299999C 47.354198 52.299999 52.099998 47.554401 52.099998 41.700199C 52.099998 35.845802 47.354198 31.1 41.5 31.1C 35.645798 31.1 30.9 35.845802 30.9 41.700199C 30.9 47.554401 35.645798 52.299999 41.5 52.299999ZM 10 10M 56.5 56.5L 49.096001 49.096001M 17.9 54.499599C 17.9 55.6996 17.1 56.499599 15.9 56.499599L 13.5 56.499599C 12.3 56.499599 11.5 55.6996 11.5 54.499599L 11.5 32.099602C 11.5 30.899599 12.3 30.0996 13.5 30.0996L 15.9 30.0996C 17.1 30.0996 17.9 30.899599 17.9 32.099602L 17.9 54.499599ZM 30.5 52.899399L 30.5 54.499401C 30.5 55.699402 29.7001 56.499401 28.500099 56.499401L 26.1001 56.499401C 24.900101 56.499401 24.1001 55.699402 24.1001 54.499401L 24.1001 26.89942C 24.1001 25.699421 24.900101 24.89942 26.1001 24.89942L 28.500099 24.89942C 29.7001 24.89942 30.5 25.699421 30.5 26.89942L 30.5 28.89942M 36.5 23.1L 36.5 13.5C 36.5 12.3 37.299999 11.5 38.5 11.5L 41.5 11.5C 42.700001 11.5 43.5 12.3 43.5 13.5L 43.5 23.1M 49.5 23.700001L 49.5 18.5C 49.5 17.299999 50.299999 16.5 51.5 16.5L 54.5 16.5C 55.700001 16.5 56.5 17.299999 56.5 18.5L 56.5 43.5"></path></g></g></g><g id="g-root-net_4hbbm75296o2-stroke" data-item-order="0" transform="translate(435, 213)"><g id="net_4hbbm75296o2-stroke" fill="none" stroke-linecap="round" stroke-linejoin="round" stroke-miterlimit="4" stroke="#f4f4f4" stroke-width="2"><g><path d="M 18.007999 13L 50.007999 13C 50.007999 13 54.007999 13 54.007999 17L 54.007999 51C 54.007999 51 54.007999 55 50.007999 55L 18.007999 55C 18.007999 55 14.007999 55 14.007999 51L 14.007999 17C 14.007999 17 14.007999 13 18.007999 13M 14 39L 21.310001 30.959999C 22.959269 29.298944 25.454391 28.810856 27.608 29.728001L 30.392 31.062C 32.6185 31.984388 35.16328 31.693317 37.124001 30.292L 40.875999 27.292C 42.987286 25.71822 45.348209 24.510715 47.859997 23.719999L 54 22M 24.007999 29.436001L 24.007999 55M 34.007999 31.532L 34.007999 55M 44.007999 25.326L 44.007999 55M 14.007999 39L 54.007999 39M 35.944 31L 54.007999 31M 14.007999 47L 54.007999 47"></path></g></g></g><g id="g-root-tx_operatio_3zszz51qy2x-stroke" data-item-order="0" transform="translate(507, 567)"></g><g id="g-root-tx_optimize_1ltnclr51qzgq-stroke" data-item-order="0" transform="translate(507, 603)"></g><g id="g-root-tx_collects_i0w03z526e4m-stroke" data-item-order="0" transform="translate(507, 147)"></g><g id="g-root-char_1hdtuhb51sdmu-stroke" data-item-order="0" transform="translate(435, 693)"><g id="char_1hdtuhb51sdmu-stroke" fill="none" stroke-linecap="round" stroke-linejoin="round" stroke-miterlimit="4" stroke="#f4f4f4" stroke-width="2"><g><path d="M 57 56.959999C 57 51.437153 52.522846 46.959999 47 46.959999C 41.477154 46.959999 37 51.437153 37 56.959999ZM 41 37.968002C 41 41.281708 43.686291 43.968002 47 43.968002C 50.313709 43.968002 53 41.281708 53 37.968002C 53 34.654293 50.313709 31.968 47 31.968C 43.686291 31.968 41 34.654293 41 37.968002M 33.5 51.040001L 13 51.040001C 11.895431 51.040001 11 50.144569 11 49.040001L 11 17.040001C 11 15.935431 11.895431 15.04 13 15.04L 41 15.04C 42.104568 15.04 43 15.935431 43 17.040001L 43 27.040001M 19 19.040001L 19 11.04M 27 19.040001L 27 11.04M 35 19.040001L 35 11.04M 17 33.040001C 17 38.562847 21.477154 43.040001 27 43.040001C 32.52285 43.040001 37 38.562847 37 33.040001C 37 27.517153 32.52285 23.040001 27 23.040001C 21.477154 23.040001 17 27.517153 17 33.040001M 32.653999 24.792L 27 33.040001L 33.41 40.711998M 27 33.040001L 17 33.040001"></path></g></g></g><g id="g-root-tx_dataanal_mg315b526gi5-stroke" data-item-order="0" transform="translate(507, 111)"></g><g id="g-root-tx_producta_detua751sd1o-stroke" data-item-order="0" transform="translate(507, 687)"></g><g id="g-root-grap_4pfhqn526fpj-stroke" data-item-order="0" transform="translate(435, 117)"><g id="grap_4pfhqn526fpj-stroke" fill="none" stroke-linecap="round" stroke-linejoin="round" stroke-miterlimit="4" stroke="#f4f4f4" stroke-width="2"><g><path d="M 11 40.501999L 27.436001 40.501999M 43.014 28.497999L 43.014 12.498C 43.014 11.945715 42.566284 11.498 42.014 11.498L 38.014 11.498C 37.461716 11.498 37.014 11.945715 37.014 12.498L 37.014 28.497999M 31 28.497999L 31 20.498001C 31 19.945715 30.552284 19.498001 30 19.498001L 26 19.498001C 25.447716 19.498001 25 19.945715 25 20.498001L 25 40.498001M 19 40.501999L 19 28.502001C 19 27.949715 18.552284 27.502001 18 27.502001L 14 27.502001C 13.447716 27.502001 13 27.949715 13 28.502001L 13 40.501999M 32.987999 34.5L 55 34.5C 55 34.5 57 34.5 57 36.5L 57 54.510002C 57 54.510002 57 56.510002 55 56.510002L 32.987999 56.510002C 32.987999 56.510002 30.988001 56.510002 30.988001 54.510002L 30.988001 36.5C 30.988001 36.5 30.988001 34.5 32.987999 34.5M 30.988001 39.933998L 57 39.933998M 30.988001 45.504002L 57 45.504002M 30.988001 50.776001L 57 50.776001M 43.014 39.936001L 43.014 56.509998M 49.674 39.936001L 49.674 56.509998"></path></g></g></g><g id="g-root-tx_studiesp_3dbwv51seml-stroke" data-item-order="0" transform="translate(507, 723)"></g><g id="g-root-infe_1haph1r51tqm9-stroke" data-item-order="0" transform="translate(435, 813)"><g id="infe_1haph1r51tqm9-stroke" fill="none" stroke-linecap="round" stroke-linejoin="round" stroke-miterlimit="4" stroke="#f4f4f4" stroke-width="2"><g><path d="M 42.089199 54.676601C 49.000599 54.676601 54.603401 49.073799 54.603401 42.162399C 54.603401 35.250801 49.000599 29.648081 42.089199 29.648081C 35.177799 29.648081 29.574961 35.250801 29.574961 42.162399C 29.574961 49.073799 35.177799 54.676601 42.089199 54.676601ZM 10 10M 50.932201 51.005798L 56.688599 56.762402M 42.089802 43.0802C 41.582802 43.0802 41.171799 42.669201 41.171799 42.162399C 41.171799 41.655399 41.582802 41.244598 42.089802 41.244598M 42.090199 43.0802C 42.597198 43.0802 43.007999 42.669201 43.007999 42.162399C 43.007999 41.655399 42.597198 41.244598 42.090199 41.244598M 34.7062 43.0802C 34.1992 43.0802 33.788399 42.669201 33.788399 42.162399C 33.788399 41.655399 34.1992 41.244598 34.7062 41.244598M 34.7066 43.0802C 35.2136 43.0802 35.624599 42.669201 35.624599 42.162399C 35.624599 41.655399 35.2136 41.244598 34.7066 41.244598M 49.473202 43.0802C 48.9664 43.0802 48.555401 42.669201 48.555401 42.162399C 48.555401 41.655399 48.9664 41.244598 49.473202 41.244598M 49.473801 43.0802C 49.980598 43.0802 50.391602 42.669201 50.391602 42.162399C 50.391602 41.655399 49.980598 41.244598 49.473801 41.244598M 38.1362 48.6436C 37.6292 48.6436 37.218201 48.232601 37.218201 47.7258C 37.218201 47.2188 37.6292 46.8078 38.1362 46.8078M 38.135597 48.6436C 38.642601 48.6436 39.053398 48.232601 39.053398 47.7258C 39.053398 47.2188 38.642601 46.8078 38.135597 46.8078M 38.1362 37.5168C 37.6292 37.5168 37.218201 37.106003 37.218201 36.598999C 37.218201 36.091999 37.6292 35.681198 38.1362 35.681198M 38.135597 37.5168C 38.642601 37.5168 39.053398 37.106003 39.053398 36.598999C 39.053398 36.091999 38.642601 35.681198 38.135597 35.681198M 46.0424 48.6436C 45.5354 48.6436 45.124599 48.232601 45.124599 47.7258C 45.124599 47.2188 45.5354 46.8078 46.0424 46.8078M 46.042599 48.6436C 46.549599 48.6436 46.9604 48.232601 46.9604 47.7258C 46.9604 47.2188 46.549599 46.8078 46.042599 46.8078M 46.0424 37.5168C 45.5354 37.5168 45.124599 37.106003 45.124599 36.598999C 45.124599 36.091999 45.5354 35.681198 46.0424 35.681198M 46.042599 37.5168C 46.549599 37.5168 46.9604 37.106003 46.9604 36.598999C 46.9604 36.091999 46.549599 35.681198 46.042599 35.681198M 27.46516 28.744801C 32.110199 28.744801 35.875603 24.9793 35.875603 20.334301C 35.875603 15.68932 32.110199 11.923828 27.46516 11.923828C 22.820179 11.923828 19.05468 15.68932 19.05468 20.334301C 19.05468 24.9793 22.820179 28.744801 27.46516 28.744801ZM 28.7537 52.294201L 12.32618 52.294201L 12.32618 50.4702C 12.352961 47.905998 13.029221 45.3904 14.29178 43.158401C 15.55434 40.926399 17.36204 39.0508 19.54598 37.706802C 21.72994 36.362999 24.21888 35.594398 26.780359 35.473198"></path></g></g></g><g id="g-root-tx_explorin_18n6jrj526e4k-stroke" data-item-order="0" transform="translate(261, 39)"></g><g id="g-root-tx_datascie_4g2glr51tqtr-stroke" data-item-order="0" transform="translate(507, 807)"></g><g id="g-root-diag_1cvig0f51pjbc-stroke" data-item-order="0" transform="translate(435, 453)"><g id="diag_1cvig0f51pjbc-stroke" fill="none" stroke-linecap="round" stroke-linejoin="round" stroke-miterlimit="4" stroke="#f4f4f4" stroke-width="2"><g><path d="M 42.125198 54.6828C 49.02 54.6828 54.609402 49.093399 54.609402 42.198601C 54.609402 35.3036 49.02 29.7143 42.125198 29.7143C 35.230202 29.7143 29.64086 35.3036 29.64086 42.198601C 29.64086 49.093399 35.230202 54.6828 42.125198 54.6828ZM 10 10M 50.946602 51.020599L 56.689201 56.763199M 29.64086 42.714802L 34.805801 42.714802L 37.9048 38.582802L 42.0368 45.813801L 45.135799 41.681801L 48.2346 41.681801M 27.46516 28.609779C 32.110199 28.609779 35.875603 24.84428 35.875603 20.199299C 35.875603 15.554319 32.110199 11.788818 27.46516 11.788818C 22.820179 11.788818 19.05468 15.554319 19.05468 20.199299C 19.05468 24.84428 22.820179 28.609779 27.46516 28.609779ZM 29.197399 52.159L 12.32618 52.159L 12.32618 50.335201C 12.352961 47.771 13.029221 45.255402 14.29178 43.023399C 15.55434 40.791401 17.36204 38.915802 19.54598 37.5718C 21.72994 36.228001 24.21888 35.4594 26.780359 35.3382"></path></g></g></g></g></g></svg>