<?xml version="1.0" encoding="utf-8" standalone="yes"?>
<!DOCTYPE svg PUBLIC "-//W3C//DTD SVG 1.1//EN" "http://www.w3.org/Graphics/SVG/1.1/DTD/svg11.dtd">
<svg width="974" height="699" viewBox="0 0 974 699" style="fill:none;stroke:none;fill-rule:evenodd;clip-rule:evenodd;stroke-linecap:round;stroke-linejoin:round;stroke-miterlimit:1.5;" version="1.1" xmlns="http://www.w3.org/2000/svg" xmlns:xlink="http://www.w3.org/1999/xlink"><style class="text-font-style fontImports" data-font-family="Roboto">@import url('https://fonts.googleapis.com/css2?family=Roboto:wght@400;700&amp;display=block');</style><g id="items" style="isolation: isolate"><g id="blend" style="mix-blend-mode: normal"><g id="g-root-ro_mb3ui76fyqry-fill" data-item-order="-27000" transform="translate(387, 222.00006103515625)"><g id="ro_mb3ui76fyqry-fill" stroke="none" fill="url(#gradient-8a8a8a-330675446)"><g><path d="M 34 10L 166 10C 166 10 190 10 190 34L 190 136C 190 136 190 160 166 160L 34 160C 34 160 10 160 10 136L 10 34C 10 34 10 10 34 10"></path></g></g></g><g id="g-root-ro_1d1rprj6g2y9x-fill" data-item-order="-21600" transform="translate(327, 495.00006103515625)"><g id="ro_1d1rprj6g2y9x-fill" stroke="none" fill="url(#gradient-d5514c-497200298)"><g><path d="M 22 10L 298 10C 298 10 310 10 310 22L 310 70C 310 70 310 82 298 82L 22 82C 22 82 10 82 10 70L 10 22C 10 22 10 10 22 10"></path></g></g></g><g id="g-root-ro_1luackv6g05j8-fill" data-item-order="-17496" transform="translate(615, 123.00006103515625)"><g id="ro_1luackv6g05j8-fill" stroke="none" fill="url(#gradient-ae58d5-381354595)"><g><path d="M 22 10L 322 10C 322 10 334 10 334 22L 334 52C 334 52 334 64 322 64L 22 64C 22 64 10 64 10 52L 10 22C 10 22 10 10 22 10"></path></g></g></g><g id="g-root-ro_quo75b6g4etk-fill" data-item-order="-17496" transform="translate(15, 327.00006103515625)"><g id="ro_quo75b6g4etk-fill" stroke="none" fill="url(#gradient-ce519c-514854702)"><g><path d="M 22 10L 322 10C 322 10 334 10 334 22L 334 52C 334 52 334 64 322 64L 22 64C 22 64 10 64 10 52L 10 22C 10 22 10 10 22 10"></path></g></g></g><g id="g-root-ro_1d3n50v6g05qn-fill" data-item-order="-14256" transform="translate(615, 309.00006103515625)"><g id="ro_1d3n50v6g05qn-fill" stroke="none" fill="url(#gradient-c3b321-14556876)"><g><path d="M 22 10L 262 10C 262 10 274 10 274 22L 274 52C 274 52 274 64 262 64L 22 64C 22 64 10 64 10 52L 10 22C 10 22 10 10 22 10"></path></g></g></g><g id="g-root-ro_1hfpsmn6g4cnh-fill" data-item-order="-11664" transform="translate(123, 141.00006103515625)"><defs><linearGradient id="gradient-8a8a8a-330675446" x2="0" y2="1"><stop offset="0" stop-color="#959595"></stop><stop offset="1" stop-color="#7f7f7f"></stop></linearGradient><linearGradient id="gradient-d5514c-497200298" x2="0" y2="1"><stop offset="0" stop-color="#e45752"></stop><stop offset="1" stop-color="#c54a46"></stop></linearGradient><linearGradient id="gradient-ae58d5-381354595" x2="0" y2="1"><stop offset="0" stop-color="#b95ce3"></stop><stop offset="1" stop-color="#a354c7"></stop></linearGradient><linearGradient id="gradient-ce519c-514854702" x2="0" y2="1"><stop offset="0" stop-color="#dd57a8"></stop><stop offset="1" stop-color="#bf4a90"></stop></linearGradient><linearGradient id="gradient-c3b321-14556876" x2="0" y2="1"><stop offset="0" stop-color="#ddc916"></stop><stop offset="1" stop-color="#a99c2c"></stop></linearGradient><linearGradient id="gradient-87aa3f-469929121" x2="0" y2="1"><stop offset="0" stop-color="#91bb39"></stop><stop offset="1" stop-color="#7d9844"></stop></linearGradient></defs><g id="ro_1hfpsmn6g4cnh-fill" stroke="none" fill="url(#gradient-87aa3f-469929121)"><g><path d="M 22 10L 214 10C 214 10 226 10 226 22L 226 52C 226 52 226 64 214 64L 22 64C 22 64 10 64 10 52L 10 22C 10 22 10 10 22 10"></path></g></g></g><g id="g-root-tx_datarela_8vwhm76g5sen-fill" data-item-order="0" transform="translate(237, 39)"><g id="tx_datarela_8vwhm76g5sen-fill" stroke="none" fill="#f4f4f4"><g><text style="font: 25px Roboto, sans-serif; white-space: pre;" font-size="25px" font-family="Roboto, sans-serif"><tspan x="13.09" y="42.6" dominant-baseline="ideographic">Data-Related Fields and Their Components</tspan></text></g></g></g><g id="g-root-cu_mfh63z6g4cg1-fill" data-item-order="0" transform="translate(339, 168.00006103515625)"></g><g id="g-root-cu_1d30nxr6g4emn-fill" data-item-order="0" transform="translate(639, 177.00006103515625)"></g><g id="g-root-tx_salesfor_1q6d06n6g4cg2-fill" data-item-order="0" transform="translate(375, 615.0000610351562)"><g id="tx_salesfor_1q6d06n6g4cg2-fill" stroke="none" fill="#f4f4f4"><g><text style="font: 20px Roboto, sans-serif; white-space: pre;" font-size="20px" font-family="Roboto, sans-serif"><tspan x="16.71" y="34" dominant-baseline="ideographic">Salesforce</tspan></text></g></g></g><g id="g-root-cu_18n75tb6g4ff0-fill" data-item-order="0" transform="translate(639, 177.00006103515625)"></g><g id="g-root-tx_sql_1464pin6g2z2m-fill" data-item-order="0" transform="translate(243, 207.00006103515625)"><g id="tx_sql_1464pin6g2z2m-fill" stroke="none" fill="#f4f4f4"><g><text style="font: 20px Roboto, sans-serif; white-space: pre;" font-size="20px" font-family="Roboto, sans-serif"><tspan x="15.79" y="34" dominant-baseline="ideographic">SQL</tspan></text></g></g></g><g id="g-root-cu_4o75m76g4etk-fill" data-item-order="0" transform="translate(297, 195.00006103515625)"></g><g id="g-root-cu_1qeh6b36g4d1n-fill" data-item-order="0" transform="translate(297, 195.00006103515625)"></g><g id="g-root-cu_1lyno6n6g4dtx-fill" data-item-order="0" transform="translate(297, 195.00006103515625)"></g><g id="g-root-tx_excel_hznnzj6g2z29-fill" data-item-order="0" transform="translate(663, 189.00006103515625)"><g id="tx_excel_hznnzj6g2z29-fill" stroke="none" fill="#f4f4f4"><g><text style="font: 20px Roboto, sans-serif; white-space: pre;" font-size="20px" font-family="Roboto, sans-serif"><tspan x="16.48" y="34" dominant-baseline="ideographic">Excel</tspan></text></g></g></g><g id="g-root-cu_18n75tb6g4fey-fill" data-item-order="0" transform="translate(639, 177.00006103515625)"></g><g id="g-root-tx_powerbi_4o75m76g30n6-fill" data-item-order="0" transform="translate(663, 225.00006103515625)"><g id="tx_powerbi_4o75m76g30n6-fill" stroke="none" fill="#f4f4f4"><g><text style="font: 20px Roboto, sans-serif; white-space: pre;" font-size="20px" font-family="Roboto, sans-serif"><tspan x="12.41" y="34" dominant-baseline="ideographic">Power BI</tspan></text></g></g></g><g id="g-root-tx_hadoop_zqb7e76g2zuv-fill" data-item-order="0" transform="translate(207, 243.00006103515625)"><g id="tx_hadoop_zqb7e76g2zuv-fill" stroke="none" fill="#f4f4f4"><g><text style="font: 20px Roboto, sans-serif; white-space: pre;" font-size="20px" font-family="Roboto, sans-serif"><tspan x="16.76" y="34" dominant-baseline="ideographic">Hadoop</tspan></text></g></g></g><g id="g-root-tx_tableau_1qeh6b36g2yv7-fill" data-item-order="0" transform="translate(663, 261.00006103515625)"><g id="tx_tableau_1qeh6b36g2yv7-fill" stroke="none" fill="#f4f4f4"><g><text style="font: 20px Roboto, sans-serif; white-space: pre;" font-size="20px" font-family="Roboto, sans-serif"><tspan x="16.84" y="34" dominant-baseline="ideographic">Tableau</tspan></text></g></g></g><g id="g-root-tx_spark_mfh63z6g2ya0-fill" data-item-order="0" transform="translate(231, 279.00006103515625)"><g id="tx_spark_mfh63z6g2ya0-fill" stroke="none" fill="#f4f4f4"><g><text style="font: 20px Roboto, sans-serif; white-space: pre;" font-size="20px" font-family="Roboto, sans-serif"><tspan x="14.55" y="34" dominant-baseline="ideographic">Spark</tspan></text></g></g></g><g id="g-root-cu_dju5v36g4d8s-fill" data-item-order="0" transform="translate(567, 150.00006103515625)"></g><g id="g-root-cu_940nqn6g4e16-fill" data-item-order="0" transform="translate(339, 322.00006103515625)"></g><g id="g-root-cu_940nqn6g4e13-fill" data-item-order="0" transform="translate(567, 322.00006103515625)"></g><g id="g-root-cu_hrjhv36g5rlu-fill" data-item-order="0" transform="translate(351, 567.0000610351562)"></g><g id="g-root-cu_hrjhv36g5rlx-fill" data-item-order="0" transform="translate(351, 567.0000610351562)"></g><g id="g-root-tx_googlean_4g2zhr6g4e81-fill" data-item-order="0" transform="translate(375, 579.0000610351562)"><g id="tx_googlean_4g2zhr6g4e81-fill" stroke="none" fill="#f4f4f4"><g><text style="font: 20px Roboto, sans-serif; white-space: pre;" font-size="20px" font-family="Roboto, sans-serif"><tspan x="13.2" y="34" dominant-baseline="ideographic">Google Analytics</tspan></text></g></g></g><g id="g-root-cu_4o75m76g4eth-fill" data-item-order="0" transform="translate(477, 372.00006103515625)"></g><g id="g-root-cu_14804rz6g4d1i-fill" data-item-order="0" transform="translate(639, 363.00006103515625)"></g><g id="g-root-cu_zs6mnj6g4dtt-fill" data-item-order="0" transform="translate(639, 363.00006103515625)"></g><g id="g-root-cu_qwjmen6g4emj-fill" data-item-order="0" transform="translate(639, 363.00006103515625)"></g><g id="g-root-cu_qwjmen6g4eml-fill" data-item-order="0" transform="translate(297, 381.00006103515625)"></g><g id="g-root-tx_regressi_1hiu6276g2znw-fill" data-item-order="0" transform="translate(663, 375.00006103515625)"><g id="tx_regressi_1hiu6276g2znw-fill" stroke="none" fill="#f4f4f4"><g><text style="font: 20px Roboto, sans-serif; white-space: pre;" font-size="20px" font-family="Roboto, sans-serif"><tspan x="14.34" y="34" dominant-baseline="ideographic">Regression</tspan></text></g></g></g><g id="g-root-tx_aws_mgq4a76g30g7-fill" data-item-order="0" transform="translate(243, 393.00006103515625)"><g id="tx_aws_mgq4a76g30g7-fill" stroke="none" fill="#f4f4f4"><g><text style="font: 20px Roboto, sans-serif; white-space: pre;" font-size="20px" font-family="Roboto, sans-serif"><tspan x="13" y="34" dominant-baseline="ideographic">AWS</tspan></text></g></g></g><g id="g-root-cu_mgq4a76g4few-fill" data-item-order="0" transform="translate(297, 381.00006103515625)"></g><g id="g-root-tx_classifi_14804rz6g2y31-fill" data-item-order="0" transform="translate(663, 411.00006103515625)"><g id="tx_classifi_14804rz6g2y31-fill" stroke="none" fill="#f4f4f4"><g><text style="font: 20px Roboto, sans-serif; white-space: pre;" font-size="20px" font-family="Roboto, sans-serif"><tspan x="15.72" y="34" dominant-baseline="ideographic">Classification</tspan></text></g></g></g><g id="g-root-tx_azure_hrjhv36g4cn4-fill" data-item-order="0" transform="translate(231, 429.00006103515625)"><g id="tx_azure_hrjhv36g4cn4-fill" stroke="none" fill="#f4f4f4"><g><text style="font: 20px Roboto, sans-serif; white-space: pre;" font-size="20px" font-family="Roboto, sans-serif"><tspan x="14.34" y="34" dominant-baseline="ideographic">Azure</tspan></text></g></g></g><g id="g-root-tx_deeplear_zs6mnj6g2yva-fill" data-item-order="0" transform="translate(663, 447.00006103515625)"><g id="tx_deeplear_zs6mnj6g2yva-fill" stroke="none" fill="#f4f4f4"><g><text style="font: 20px Roboto, sans-serif; white-space: pre;" font-size="20px" font-family="Roboto, sans-serif"><tspan x="12.13" y="34" dominant-baseline="ideographic">Deep Learning</tspan></text></g></g></g><g id="g-root-tx_dataengi_1uqjtwv6g4e8b-fill" data-item-order="1000000000" transform="translate(135, 156.00006103515625)"><g id="tx_dataengi_1uqjtwv6g4e8b-fill" stroke="none" fill="#f2ffd7"><g><text style="font: 20px Roboto, sans-serif; white-space: pre;" font-size="20px" font-family="Roboto, sans-serif"><tspan x="12.46" y="34" dominant-baseline="ideographic">Data Engineering</tspan></text></g></g></g><g id="g-root-mass_1qaqbsf6g4f0k-fill" data-item-order="1000000000" transform="translate(297, 153.00006103515625)"></g><g id="g-root-tx_dataanal_40bvz6g07b6-fill" data-item-order="1000000000" transform="translate(663, 138.00006103515625)"><g id="tx_dataanal_40bvz6g07b6-fill" stroke="none" fill="#faeeff"><g><text style="font: 20px Roboto, sans-serif; white-space: pre;" font-size="20px" font-family="Roboto, sans-serif"><tspan x="13.11" y="34" dominant-baseline="ideographic">Data Analysis &amp; Visualization</tspan></text></g></g></g><g id="g-root-data_v64dnz6fyt51-fill" data-item-order="1000000000" transform="translate(453, 246.00006103515625)"></g><g id="g-root-tx_datarela_18hkw1b6fyrk4-fill" data-item-order="1000000000" transform="translate(411, 300.00006103515625)"><g id="tx_datarela_18hkw1b6fyrk4-fill" stroke="none" fill="#f4f4f4"><g><text style="font: 20px Roboto, sans-serif; white-space: pre;" font-size="20px" font-family="Roboto, sans-serif"><tspan x="17.48" y="34" dominant-baseline="ideographic">Data-Related </tspan><tspan x="48.02" y="58" dominant-baseline="ideographic">Fields</tspan></text></g></g></g><g id="g-root-teac_1lza59r6g04xy-fill" data-item-order="1000000000" transform="translate(627, 321.00006103515625)"></g><g id="g-root-tx_machinel_1qeh6b36g07bh-fill" data-item-order="1000000000" transform="translate(663, 324.00006103515625)"><g id="tx_machinel_1qeh6b36g07bh-fill" stroke="none" fill="#fffbd5"><g><text style="font: 20px Roboto, sans-serif; white-space: pre;" font-size="20px" font-family="Roboto, sans-serif"><tspan x="12.31" y="34" dominant-baseline="ideographic">Machine Learning &amp; AI</tspan></text></g></g></g><g id="g-root-tx_bigdatac_1464pin6g4d8m-fill" data-item-order="1000000000" transform="translate(27, 342.00006103515625)"><g id="tx_bigdatac_1464pin6g4d8m-fill" stroke="none" fill="#ffe8f6"><g><text style="font: 20px Roboto, sans-serif; white-space: pre;" font-size="20px" font-family="Roboto, sans-serif"><tspan x="16.12" y="34" dominant-baseline="ideographic">Big Data &amp; Cloud Computing</tspan></text></g></g></g><g id="g-root-mass_quo75b6g4etj-fill" data-item-order="1000000000" transform="translate(297, 339.00006103515625)"></g><g id="g-root-net_1qa3upb6g04qz-fill" data-item-order="1000000000" transform="translate(627, 135.00006103515625)"></g><g id="g-root-bar_1hgyqsv6g30ng-fill" data-item-order="1000000000" transform="translate(339, 516.0000610351562)"></g><g id="g-root-tx_datascie_1usf9676g2z2j-fill" data-item-order="1000000000" transform="translate(375, 507.00006103515625)"><g id="tx_datascie_1usf9676g2z2j-fill" stroke="none" fill="#ffe9e8"><g><text style="font: 20px Roboto, sans-serif; white-space: pre;" font-size="20px" font-family="Roboto, sans-serif"><tspan x="15.96" y="34" dominant-baseline="ideographic">Data Science in Business </tspan><tspan x="76.42" y="58" dominant-baseline="ideographic">Intelligence</tspan></text></g></g></g><g id="g-root-ro_mb3ui76fyqry-stroke" data-item-order="-27000" transform="translate(387, 222.00006103515625)"><g id="ro_mb3ui76fyqry-stroke" fill="none" stroke-linecap="round" stroke-linejoin="round" stroke-miterlimit="4" stroke="#f4f4f4" stroke-width="2"><g><path d="M 34 10L 166 10C 166 10 190 10 190 34L 190 136C 190 136 190 160 166 160L 34 160C 34 160 10 160 10 136L 10 34C 10 34 10 10 34 10"></path></g></g></g><g id="g-root-ro_1d1rprj6g2y9x-stroke" data-item-order="-21600" transform="translate(327, 495.00006103515625)"><g id="ro_1d1rprj6g2y9x-stroke" fill="none" stroke-linecap="round" stroke-linejoin="round" stroke-miterlimit="4" stroke="#f4f4f4" stroke-width="2"><g><path d="M 22 10L 298 10C 298 10 310 10 310 22L 310 70C 310 70 310 82 298 82L 22 82C 22 82 10 82 10 70L 10 22C 10 22 10 10 22 10"></path></g></g></g><g id="g-root-ro_1luackv6g05j8-stroke" data-item-order="-17496" transform="translate(615, 123.00006103515625)"><g id="ro_1luackv6g05j8-stroke" fill="none" stroke-linecap="round" stroke-linejoin="round" stroke-miterlimit="4" stroke="#f4f4f4" stroke-width="2"><g><path d="M 22 10L 322 10C 322 10 334 10 334 22L 334 52C 334 52 334 64 322 64L 22 64C 22 64 10 64 10 52L 10 22C 10 22 10 10 22 10"></path></g></g></g><g id="g-root-ro_quo75b6g4etk-stroke" data-item-order="-17496" transform="translate(15, 327.00006103515625)"><g id="ro_quo75b6g4etk-stroke" fill="none" stroke-linecap="round" stroke-linejoin="round" stroke-miterlimit="4" stroke="#f4f4f4" stroke-width="2"><g><path d="M 22 10L 322 10C 322 10 334 10 334 22L 334 52C 334 52 334 64 322 64L 22 64C 22 64 10 64 10 52L 10 22C 10 22 10 10 22 10"></path></g></g></g><g id="g-root-ro_1d3n50v6g05qn-stroke" data-item-order="-14256" transform="translate(615, 309.00006103515625)"><g id="ro_1d3n50v6g05qn-stroke" fill="none" stroke-linecap="round" stroke-linejoin="round" stroke-miterlimit="4" stroke="#f4f4f4" stroke-width="2"><g><path d="M 22 10L 262 10C 262 10 274 10 274 22L 274 52C 274 52 274 64 262 64L 22 64C 22 64 10 64 10 52L 10 22C 10 22 10 10 22 10"></path></g></g></g><g id="g-root-ro_1hfpsmn6g4cnh-stroke" data-item-order="-11664" transform="translate(123, 141.00006103515625)"><g id="ro_1hfpsmn6g4cnh-stroke" fill="none" stroke-linecap="round" stroke-linejoin="round" stroke-miterlimit="4" stroke="#f4f4f4" stroke-width="2"><g><path d="M 22 10L 214 10C 214 10 226 10 226 22L 226 52C 226 52 226 64 214 64L 22 64C 22 64 10 64 10 52L 10 22C 10 22 10 10 22 10"></path></g></g></g><g id="g-root-tx_datarela_8vwhm76g5sen-stroke" data-item-order="0" transform="translate(237, 39)"></g><g id="g-root-cu_mfh63z6g4cg1-stroke" data-item-order="0" transform="translate(339, 168.00006103515625)"><g id="cu_mfh63z6g4cg1-stroke" fill="none" stroke-linecap="round" stroke-linejoin="round" stroke-miterlimit="4" stroke="#ababab" stroke-width="2" stroke-dasharray="5.0, 7.0"><g><path d="M 58 114L 55 114L 54.9 114C 43.357245 113.999995 33.999997 104.642746 33.999997 93.099996L 34 93L 34 30.9C 33.999998 19.357248 24.64275 10 13.1 10L 13 10L 10 10"></path></g></g></g><g id="g-root-cu_1d30nxr6g4emn-stroke" data-item-order="0" transform="translate(639, 177.00006103515625)"><g id="cu_1d30nxr6g4emn-stroke" fill="none" stroke-linecap="round" stroke-linejoin="round" stroke-miterlimit="4" stroke="#ababab" stroke-width="2" stroke-dasharray="5.0, 7.0"><g><path d="M 10 10L 10 22L 10 34L 19 34L 28 34"></path></g></g></g><g id="g-root-tx_salesfor_1q6d06n6g4cg2-stroke" data-item-order="0" transform="translate(375, 615.0000610351562)"></g><g id="g-root-cu_18n75tb6g4ff0-stroke" data-item-order="0" transform="translate(639, 177.00006103515625)"><g id="cu_18n75tb6g4ff0-stroke" fill="none" stroke-linecap="round" stroke-linejoin="round" stroke-miterlimit="4" stroke="#ababab" stroke-width="2" stroke-dasharray="5.0, 7.0"><g><path d="M 10 10L 10 22L 10 94C 10.000004 100.627423 15.372587 106.000006 22.000005 106.000005L 22.1 106L 28 106"></path></g></g></g><g id="g-root-tx_sql_1464pin6g2z2m-stroke" data-item-order="0" transform="translate(243, 207.00006103515625)"></g><g id="g-root-cu_4o75m76g4etk-stroke" data-item-order="0" transform="translate(297, 195.00006103515625)"><g id="cu_4o75m76g4etk-stroke" fill="none" stroke-linecap="round" stroke-linejoin="round" stroke-miterlimit="4" stroke="#ababab" stroke-width="2" stroke-dasharray="5.0, 7.0"><g><path d="M 28 10L 28 22L 28 34L 19 34L 10 34"></path></g></g></g><g id="g-root-cu_1qeh6b36g4d1n-stroke" data-item-order="0" transform="translate(297, 195.00006103515625)"><g id="cu_1qeh6b36g4d1n-stroke" fill="none" stroke-linecap="round" stroke-linejoin="round" stroke-miterlimit="4" stroke="#ababab" stroke-width="2" stroke-dasharray="5.0, 7.0"><g><path d="M 28 10L 28 40L 28 70L 19 70L 10 70"></path></g></g></g><g id="g-root-cu_1lyno6n6g4dtx-stroke" data-item-order="0" transform="translate(297, 195.00006103515625)"><g id="cu_1lyno6n6g4dtx-stroke" fill="none" stroke-linecap="round" stroke-linejoin="round" stroke-miterlimit="4" stroke="#ababab" stroke-width="2" stroke-dasharray="5.0, 7.0"><g><path d="M 28 10L 28 22L 28 94C 28.000002 100.627415 22.627419 105.999998 16.000002 105.999998L 15.9 106L 10 106"></path></g></g></g><g id="g-root-tx_excel_hznnzj6g2z29-stroke" data-item-order="0" transform="translate(663, 189.00006103515625)"></g><g id="g-root-cu_18n75tb6g4fey-stroke" data-item-order="0" transform="translate(639, 177.00006103515625)"><g id="cu_18n75tb6g4fey-stroke" fill="none" stroke-linecap="round" stroke-linejoin="round" stroke-miterlimit="4" stroke="#ababab" stroke-width="2" stroke-dasharray="5.0, 7.0"><g><path d="M 10 10L 10 40L 10 70L 19 70L 28 70"></path></g></g></g><g id="g-root-tx_powerbi_4o75m76g30n6-stroke" data-item-order="0" transform="translate(663, 225.00006103515625)"></g><g id="g-root-tx_hadoop_zqb7e76g2zuv-stroke" data-item-order="0" transform="translate(207, 243.00006103515625)"></g><g id="g-root-tx_tableau_1qeh6b36g2yv7-stroke" data-item-order="0" transform="translate(663, 261.00006103515625)"></g><g id="g-root-tx_spark_mfh63z6g2ya0-stroke" data-item-order="0" transform="translate(231, 279.00006103515625)"></g><g id="g-root-cu_dju5v36g4d8s-stroke" data-item-order="0" transform="translate(567, 150.00006103515625)"><g id="cu_dju5v36g4d8s-stroke" fill="none" stroke-linecap="round" stroke-linejoin="round" stroke-miterlimit="4" stroke="#ababab" stroke-width="2" stroke-dasharray="5.0, 7.0"><g><path d="M 10 132L 13 132L 13.1 132C 24.642746 132.000005 33.999996 122.642756 33.999996 111.100004L 34 111L 34 30.9C 33.999999 19.357249 43.357248 10.000001 54.899999 10.000002L 55 10L 58 10"></path></g></g></g><g id="g-root-cu_940nqn6g4e16-stroke" data-item-order="0" transform="translate(339, 322.00006103515625)"><g id="cu_940nqn6g4e16-stroke" fill="none" stroke-linecap="round" stroke-linejoin="round" stroke-miterlimit="4" stroke="#ababab" stroke-width="2" stroke-dasharray="5.0, 7.0"><g><path d="M 58 10L 55 10L 54.9 10C 50.611929 10.004962 45.995266 11.578824 41.700001 14.500001C 39.147207 16.234511 36.356002 20.403194 34.000002 26.000001C 31.644001 31.596807 28.852796 35.76549 26.300001 37.500001C 22.004737 40.421177 17.388073 41.995039 13.100001 42L 13 42L 10 42"></path></g></g></g><g id="g-root-cu_940nqn6g4e13-stroke" data-item-order="0" transform="translate(567, 322.00006103515625)"><g id="cu_940nqn6g4e13-stroke" fill="none" stroke-linecap="round" stroke-linejoin="round" stroke-miterlimit="4" stroke="#ababab" stroke-width="2" stroke-dasharray="5.0, 7.0"><g><path d="M 10 10L 13 10L 13.1 10C 16.47715 10.00393 20.199416 10.613028 24.1 11.8C 26.434787 12.503612 29.936878 14.343094 34 16.999999C 38.063122 19.656905 41.565214 21.496387 43.900001 22.199999C 47.800584 23.386973 51.52285 23.996071 54.900001 24.000001L 55 24L 58 24"></path></g></g></g><g id="g-root-cu_hrjhv36g5rlu-stroke" data-item-order="0" transform="translate(351, 567.0000610351562)"><g id="cu_hrjhv36g5rlu-stroke" fill="none" stroke-linecap="round" stroke-linejoin="round" stroke-miterlimit="4" stroke="#ababab" stroke-width="2" stroke-dasharray="5.0, 7.0"><g><path d="M 10 10L 10 22L 10 34L 19 34L 28 34"></path></g></g></g><g id="g-root-cu_hrjhv36g5rlx-stroke" data-item-order="0" transform="translate(351, 567.0000610351562)"><g id="cu_hrjhv36g5rlx-stroke" fill="none" stroke-linecap="round" stroke-linejoin="round" stroke-miterlimit="4" stroke="#ababab" stroke-width="2" stroke-dasharray="5.0, 7.0"><g><path d="M 10 10L 10 17.5L 10 58C 10.000002 64.627417 15.372585 70 22.000002 69.999999L 22.1 70L 28 70"></path></g></g></g><g id="g-root-tx_googlean_4g2zhr6g4e81-stroke" data-item-order="0" transform="translate(375, 579.0000610351562)"></g><g id="g-root-cu_4o75m76g4eth-stroke" data-item-order="0" transform="translate(477, 372.00006103515625)"><g id="cu_4o75m76g4eth-stroke" fill="none" stroke-linecap="round" stroke-linejoin="round" stroke-miterlimit="4" stroke="#ababab" stroke-width="2" stroke-dasharray="5.0, 7.0"><g><path d="M 10 10L 10 71.5L 10 133"></path></g></g></g><g id="g-root-cu_14804rz6g4d1i-stroke" data-item-order="0" transform="translate(639, 363.00006103515625)"><g id="cu_14804rz6g4d1i-stroke" fill="none" stroke-linecap="round" stroke-linejoin="round" stroke-miterlimit="4" stroke="#ababab" stroke-width="2" stroke-dasharray="5.0, 7.0"><g><path d="M 10 10L 10 22L 10 34L 19 34L 28 34"></path></g></g></g><g id="g-root-cu_zs6mnj6g4dtt-stroke" data-item-order="0" transform="translate(639, 363.00006103515625)"><g id="cu_zs6mnj6g4dtt-stroke" fill="none" stroke-linecap="round" stroke-linejoin="round" stroke-miterlimit="4" stroke="#ababab" stroke-width="2" stroke-dasharray="5.0, 7.0"><g><path d="M 10 10L 10 40L 10 70L 19 70L 28 70"></path></g></g></g><g id="g-root-cu_qwjmen6g4emj-stroke" data-item-order="0" transform="translate(639, 363.00006103515625)"><g id="cu_qwjmen6g4emj-stroke" fill="none" stroke-linecap="round" stroke-linejoin="round" stroke-miterlimit="4" stroke="#ababab" stroke-width="2" stroke-dasharray="5.0, 7.0"><g><path d="M 10 10L 10 22L 10 94C 10.000004 100.627423 15.372587 106.000006 22.000005 106.000005L 22.1 106L 28 106"></path></g></g></g><g id="g-root-cu_qwjmen6g4eml-stroke" data-item-order="0" transform="translate(297, 381.00006103515625)"><g id="cu_qwjmen6g4eml-stroke" fill="none" stroke-linecap="round" stroke-linejoin="round" stroke-miterlimit="4" stroke="#ababab" stroke-width="2" stroke-dasharray="5.0, 7.0"><g><path d="M 28 10L 28 22L 28 34L 19 34L 10 34"></path></g></g></g><g id="g-root-tx_regressi_1hiu6276g2znw-stroke" data-item-order="0" transform="translate(663, 375.00006103515625)"></g><g id="g-root-tx_aws_mgq4a76g30g7-stroke" data-item-order="0" transform="translate(243, 393.00006103515625)"></g><g id="g-root-cu_mgq4a76g4few-stroke" data-item-order="0" transform="translate(297, 381.00006103515625)"><g id="cu_mgq4a76g4few-stroke" fill="none" stroke-linecap="round" stroke-linejoin="round" stroke-miterlimit="4" stroke="#ababab" stroke-width="2" stroke-dasharray="5.0, 7.0"><g><path d="M 28 10L 28 17.5L 28 58C 27.999999 64.627415 22.627416 69.999998 16 69.999998L 15.9 70L 10 70"></path></g></g></g><g id="g-root-tx_classifi_14804rz6g2y31-stroke" data-item-order="0" transform="translate(663, 411.00006103515625)"></g><g id="g-root-tx_azure_hrjhv36g4cn4-stroke" data-item-order="0" transform="translate(231, 429.00006103515625)"></g><g id="g-root-tx_deeplear_zs6mnj6g2yva-stroke" data-item-order="0" transform="translate(663, 447.00006103515625)"></g><g id="g-root-tx_dataengi_1uqjtwv6g4e8b-stroke" data-item-order="1000000000" transform="translate(135, 156.00006103515625)"></g><g id="g-root-mass_1qaqbsf6g4f0k-stroke" data-item-order="1000000000" transform="translate(297, 153.00006103515625)"><g id="mass_1qaqbsf6g4f0k-stroke" fill="none" stroke-linecap="round" stroke-linejoin="round" stroke-miterlimit="4" stroke="#f2ffd7" stroke-width="2"><g><path d="M 16.9375 31.932877C 16.6875 29.557875 17.4375 27.057875 19.3125 25.182875C 22.6875 21.807825 28.1875 22.057812 31.3125 25.682875L 31.456125 25.83675M 10 10M 31.960876 23.464375L 31.460875 25.839375L 29.085875 26.339375M 10 10M 18.077999 38.441376L 18.577999 36.066376L 20.952988 35.566376M 33.0625 29.932875C 33.3125 32.307877 32.5625 34.807877 30.6875 36.682877C 27.3125 40.057877 21.812437 39.807877 18.687437 36.182877L 18.5791 36.069374M 36.075748 28.8125C 37.942501 27.8125 39.0625 25.8125 39.0625 23.5625C 39.0625 20.187513 36.324623 17.4375 32.964626 17.4375C 31.720125 17.4375 30.475626 17.812513 29.480125 18.562511C 28.609001 14.187512 24.8755 10.9375 20.271013 10.9375C 15.168688 10.9375 10.9375 15.1875 10.9375 20.3125C 10.9375 23.0625 12.181962 25.5625 14.048675 27.3125M 10 10M 22.427824 33.540249L 24.322874 27.855C 24.42 27.563499 24.692749 27.367001 25 27.367001L 25 27.367001C 25.307251 27.367001 25.58 27.563499 25.677126 27.855L 27.57225 33.540249M 23.11375 31.482502L 26.88625 31.482502"></path></g></g></g><g id="g-root-tx_dataanal_40bvz6g07b6-stroke" data-item-order="1000000000" transform="translate(663, 138.00006103515625)"></g><g id="g-root-data_v64dnz6fyt51-stroke" data-item-order="1000000000" transform="translate(453, 246.00006103515625)"><g id="data_v64dnz6fyt51-stroke" fill="none" stroke-linecap="round" stroke-linejoin="round" stroke-miterlimit="4" stroke="#f4f4f4" stroke-width="2"><g><path d="M 47 50.5L 11 50.5L 21 17.5L 57 17.5L 47 50.5Z"></path></g></g></g><g id="g-root-tx_datarela_18hkw1b6fyrk4-stroke" data-item-order="1000000000" transform="translate(411, 300.00006103515625)"></g><g id="g-root-teac_1lza59r6g04xy-stroke" data-item-order="1000000000" transform="translate(627, 321.00006103515625)"><g id="teac_1lza59r6g04xy-stroke" fill="none" stroke-linecap="round" stroke-linejoin="round" stroke-miterlimit="4" stroke="#fffbd5" stroke-width="2"><g><path d="M 27.8125 15.625L 27.8125 18.5M 24.0625 17.304688L 24.0625 22.249987C 24.0625 22.249987 22.1875 24.125 19.4375 24.125C 16.6875 24.125 14.6875 22.249987 14.6875 22.249987L 14.6875 17.304688M 10 10M 10.9375 15.625L 19.4375 19.375L 27.8125 15.625L 19.4375 11.875L 10.9375 15.625ZM 24.0625 26.875L 24.0625 35.625C 24.0625 37 25.1875 38.125 26.5625 38.125L 36.5625 38.125C 37.9375 38.125 39.0625 37 39.0625 35.625L 39.0625 25.625C 39.0625 24.25 37.9375 23.125 36.5625 23.125L 29.0625 23.125M 39.0625 33.125L 24.0625 33.125M 34.0625 33.125L 34.0625 38.125M 29.0625 33.125L 29.0625 38.125M 31.5625 23.125L 31.5625 20.625M 31.5625 20.625C 32.9375 20.625 34.0625 19.5 34.0625 18.125C 34.0625 16.75 32.9375 15.625 31.5625 15.625M 28.361 29.637125C 27.663876 29.637125 27.098875 29.072001 27.098875 28.375C 27.098875 27.677876 27.663876 27.112875 28.361 27.112875C 29.058001 27.112875 29.623125 27.677876 29.623125 28.375C 29.623125 29.072001 29.058001 29.637125 28.361 29.637125ZM 34.764 29.637125C 34.066998 29.637125 33.501877 29.072001 33.501877 28.375C 33.501877 27.677876 34.066998 27.112875 34.764 27.112875C 35.461124 27.112875 36.026123 27.677876 36.026123 28.375C 36.026123 29.072001 35.461124 29.637125 34.764 29.637125Z"></path></g></g></g><g id="g-root-tx_machinel_1qeh6b36g07bh-stroke" data-item-order="1000000000" transform="translate(663, 324.00006103515625)"></g><g id="g-root-tx_bigdatac_1464pin6g4d8m-stroke" data-item-order="1000000000" transform="translate(27, 342.00006103515625)"></g><g id="g-root-mass_quo75b6g4etj-stroke" data-item-order="1000000000" transform="translate(297, 339.00006103515625)"><g id="mass_quo75b6g4etj-stroke" fill="none" stroke-linecap="round" stroke-linejoin="round" stroke-miterlimit="4" stroke="#ffe8f6" stroke-width="2"><g><path d="M 10 10M 12.500075 37.5L 21.875074 28.125M 17.500074 28.125L 21.875074 28.125L 21.875074 31.875M 10 10M 20.625074 37.5L 32.500122 25.625M 26.250126 25.625L 32.500122 25.625L 32.500122 31.875M 36.449123 30.125C 38.067001 29 39.0625 27.25 39.0625 25.125C 39.0625 21.749989 36.324623 19 32.964626 19C 31.720125 19 30.475626 19.374987 29.480125 20.124987C 28.609001 15.749988 24.875626 12.5 20.271025 12.5C 15.1687 12.5 10.9375 16.75 10.9375 21.875C 10.9375 24.5 12.057512 26.875 13.799763 28.625"></path></g></g></g><g id="g-root-net_1qa3upb6g04qz-stroke" data-item-order="1000000000" transform="translate(627, 135.00006103515625)"><g id="net_1qa3upb6g04qz-stroke" fill="none" stroke-linecap="round" stroke-linejoin="round" stroke-miterlimit="4" stroke="#faeeff" stroke-width="2"><g><path d="M 15.004999 11.875L 35.005001 11.875C 35.005001 11.875 37.505001 11.875 37.505001 14.375L 37.505001 35.625C 37.505001 35.625 37.505001 38.125 35.005001 38.125L 15.004999 38.125C 15.004999 38.125 12.505 38.125 12.505 35.625L 12.505 14.375C 12.505 14.375 12.505 11.875 15.004999 11.875M 12.5 28.125L 17.06875 23.099998C 18.099543 22.06184 19.658995 21.756784 21.004999 22.33L 22.745001 23.16375C 24.136562 23.740242 25.727051 23.558323 26.952499 22.682499L 29.297501 20.807499C 30.617054 19.823889 32.092632 19.069197 33.662498 18.574999L 37.5 17.5M 18.755001 22.147501L 18.755001 38.125M 25.004999 23.4575L 25.004999 38.125M 31.254999 19.578751L 31.254999 38.125M 12.505 28.125L 37.505001 28.125M 26.215 23.125L 37.505001 23.125M 12.505 33.125L 37.505001 33.125"></path></g></g></g><g id="g-root-bar_1hgyqsv6g30ng-stroke" data-item-order="1000000000" transform="translate(339, 516.0000610351562)"><g id="bar_1hgyqsv6g30ng-stroke" fill="none" stroke-linecap="round" stroke-linejoin="round" stroke-miterlimit="4" stroke="#ffe9e8" stroke-width="2"><g><path d="M 10.63 39.375L 39.380001 39.375M 15.625 33.75C 15.625 33.404823 15.345179 33.125 15 33.125L 12.5 33.125C 12.154822 33.125 11.875 33.404823 11.875 33.75L 11.875 39.375L 15.625 39.375ZM 23.125 27.5C 23.125 27.154823 22.845177 26.875 22.5 26.875L 20 26.875C 19.654821 26.875 19.375 27.154823 19.375 27.5L 19.375 39.375L 23.125 39.375ZM 30.625 30C 30.625 29.654823 30.345177 29.375 30 29.375L 27.5 29.375C 27.154823 29.375 26.875 29.654823 26.875 30L 26.875 39.375L 30.625 39.375ZM 38.125 21.25C 38.125 20.904823 37.845177 20.625 37.5 20.625L 35 20.625C 34.654823 20.625 34.375 20.904823 34.375 21.25L 34.375 39.375L 38.125 39.375ZM 11.88 24.375C 11.88 25.410534 12.719466 26.25 13.755 26.25C 14.790534 26.25 15.63 25.410534 15.63 24.375C 15.63 23.339466 14.790534 22.5 13.755 22.5C 12.719466 22.5 11.88 23.339466 11.88 24.375ZM 19.380001 18.125C 19.380001 19.160534 20.219467 20 21.255001 20C 22.290533 20 23.130001 19.160534 23.130001 18.125C 23.130001 17.089466 22.290533 16.25 21.255001 16.25C 20.219467 16.25 19.380001 17.089466 19.380001 18.125ZM 26.879999 20.625C 26.880001 21.660534 27.719467 22.5 28.755001 22.5C 29.790535 22.5 30.629999 21.660534 30.629999 20.625C 30.629999 19.589466 29.790535 18.75 28.755001 18.75C 27.719467 18.75 26.880001 19.589466 26.880001 20.625ZM 34.380001 12.5C 34.380001 13.535534 35.219467 14.375 36.255001 14.375C 37.290535 14.375 38.130001 13.535534 38.130001 12.5C 38.130001 11.464466 37.290535 10.625 36.255001 10.625C 35.219467 10.625 34.380001 11.464466 34.380001 12.5ZM 15.33125 23.0625L 19.815001 19.325001M 23.033751 18.717501L 26.97625 20.03125M 34.755001 13.625L 30.05625 19.106251"></path></g></g></g><g id="g-root-tx_datascie_1usf9676g2z2j-stroke" data-item-order="1000000000" transform="translate(375, 507.00006103515625)"></g></g></g></svg>