<?xml version="1.0" encoding="utf-8" standalone="yes"?>
<!DOCTYPE svg PUBLIC "-//W3C//DTD SVG 1.1//EN" "http://www.w3.org/Graphics/SVG/1.1/DTD/svg11.dtd">
<svg width="723" height="578" viewBox="0 0 723 578" style="fill:none;stroke:none;fill-rule:evenodd;clip-rule:evenodd;stroke-linecap:round;stroke-linejoin:round;stroke-miterlimit:1.5;" version="1.1" xmlns="http://www.w3.org/2000/svg" xmlns:xlink="http://www.w3.org/1999/xlink"><style class="text-font-style fontImports" data-font-family="Roboto">@import url('https://fonts.googleapis.com/css2?family=Roboto:wght@400;700&amp;display=block');</style><g id="items" style="isolation: isolate"><g id="blend" style="mix-blend-mode: normal"><g id="g-root-0.g-0_fr_m7cdwv6fyrka-fill" data-item-order="-322549" transform="translate(15, 87)"></g><g id="g-root-4.g-4_fr_hrivsf6fysck-fill" data-item-order="-322538" transform="translate(349.6929931640625, 287.328125)"><g id="4.g-4_fr_hrivsf6fysck-fill" stroke="none" fill="url(#gradient-c67b35-424552419)"><g><path d="M 10 116.526C 21.424 128.333 37.4359 135.673 55.1621 135.673C 89.8657 135.673 117.999 107.5399 117.999 72.8364C 117.999 38.1328 89.8657 10.000003 55.1621 10C 38.1012 9.999999 22.6284 16.7994 11.3056 27.8362C 22.2469 39.1439 28.9798 54.5486 28.9798 71.5259C 28.9798 89.1686 21.7089 105.113 10 116.526Z"></path></g></g></g><g id="g-root-3.g-3_fr_4goui76fyqrq-fill" data-item-order="-322532" transform="translate(208, 303.69287109375)"><g id="3.g-3_fr_4goui76fyqrq-fill" stroke="none" fill="url(#gradient-c3b321-14556876)"><g><path d="M 64.1452 10C 75.5583 21.7086 91.5025 28.9794 109.145 28.9794C 126.123 28.9794 141.5283 22.2459 152.836 11.3038C 163.873 22.6267 170.673 38.0997 170.673 55.1608C 170.673 89.8644 142.5399 117.997 107.8364 117.997C 73.1328 117.997 45 89.8644 45 55.1608C 45 37.4352 52.3395 21.4239 64.1452 10Z"></path></g></g></g><g id="g-root-2.g-2_fr_vcdr6fyrk0-fill" data-item-order="-322526" transform="translate(333.3270263671875, 177)"><g id="2.g-2_fr_vcdr6fyrk0-fill" stroke="none" fill="url(#gradient-4f83d8-135982273)"><g><path d="M 116.527 139.305594C 128.333 127.882194 135.673 111.870694 135.673 94.144994C 135.673 59.441394 107.5399 31.308594 72.8364 31.308594C 38.1328 31.308594 10 59.441394 10 94.144994C 10 111.205794 16.7994 126.678594 27.8361 138.001594C 39.1439 127.059494 54.5491 120.326194 71.5269 120.326194C 89.1696 120.326194 105.1141 127.597194 116.527 139.305594Z"></path></g></g></g><g id="g-root-1.g-1_fr_1q6ce3z6fys5m-fill" data-item-order="-322520" transform="translate(208, 177)"><defs><linearGradient id="gradient-c67b35-424552419" x2="0" y2="1"><stop offset="0" stop-color="#dc8331"></stop><stop offset="1" stop-color="#b07239"></stop></linearGradient><linearGradient id="gradient-c3b321-14556876" x2="0" y2="1"><stop offset="0" stop-color="#ddc916"></stop><stop offset="1" stop-color="#a99c2c"></stop></linearGradient><linearGradient id="gradient-4f83d8-135982273" x2="0" y2="1"><stop offset="0" stop-color="#4e88e6"></stop><stop offset="1" stop-color="#4f7eca"></stop></linearGradient><linearGradient id="gradient-40ae79-389135447" x2="0" y2="1"><stop offset="0" stop-color="#3bc482"></stop><stop offset="1" stop-color="#449870"></stop></linearGradient></defs><g id="1.g-1_fr_1q6ce3z6fys5m-fill" stroke="none" fill="url(#gradient-40ae79-389135447)"><g><path d="M 46.308594 92.8364C 46.308592 127.5399 74.441394 155.673 109.144994 155.673C 126.206294 155.673 141.679494 148.873 153.002594 137.836C 142.060494 126.5279 135.327194 111.1228 135.327194 94.145C 135.327194 76.5027 142.597794 60.5587 154.306594 49.1456C 142.882194 37.3396 126.870694 30 109.144994 30C 74.441394 30 46.308596 58.1328 46.308594 92.8364Z"></path></g></g></g><g id="g-root-tx_typesofd_1cvictr6fyqks-fill" data-item-order="0" transform="translate(244, 39)"><g id="tx_typesofd_1cvictr6fyqks-fill" stroke="none" fill="#f4f4f4"><g><text style="font: 20px Roboto, sans-serif; white-space: pre;" font-size="20px" font-family="Roboto, sans-serif"><tspan x="16.84" y="34" dominant-baseline="ideographic">Types of Data Analysis</tspan></text></g></g></g><g id="g-root-tx_descript_4jt7xr6fyryf-fill" data-item-order="0" transform="translate(28, 117)"><g id="tx_descript_4jt7xr6fyryf-fill" stroke="none" fill="#43dd93"><g><text style="font: bold 20px Roboto, sans-serif; white-space: pre;" font-weight="bold" font-size="20px" font-family="Roboto, sans-serif"><tspan x="74.78" y="34" dominant-baseline="ideographic">Descriptive </tspan><tspan x="99.76" y="58" dominant-baseline="ideographic">Analysis</tspan></text></g></g></g><g id="g-root-tx_predicti_magrcf6fysr1-fill" data-item-order="0" transform="translate(496, 117)"><g id="tx_predicti_magrcf6fysr1-fill" stroke="none" fill="#4f91fc"><g><text style="font: bold 20px Roboto, sans-serif; white-space: pre;" font-weight="bold" font-size="20px" font-family="Roboto, sans-serif"><tspan x="12" y="34" dominant-baseline="ideographic">Predictive </tspan><tspan x="12" y="58" dominant-baseline="ideographic">Analysis</tspan></text></g></g></g><g id="g-root-tx_summariz_1qa38mn6fyq6g-fill" data-item-order="0" transform="translate(28, 177)"><g id="tx_summariz_1qa38mn6fyq6g-fill" stroke="none" fill="#f4f4f4"><g><text style="font: 15px Roboto, sans-serif; white-space: pre;" font-size="15px" font-family="Roboto, sans-serif"><tspan x="26.24" y="30.6" dominant-baseline="ideographic">Summarizes past data </tspan><tspan x="35.11" y="48.6" dominant-baseline="ideographic">to identify trends and </tspan><tspan x="116.58" y="66.6" dominant-baseline="ideographic">patterns.</tspan></text></g></g></g><g id="g-root-tx_forecast_8zmq276fyr66-fill" data-item-order="0" transform="translate(496, 177)"><g id="tx_forecast_8zmq276fyr66-fill" stroke="none" fill="#f4f4f4"><g><text style="font: 15px Roboto, sans-serif; white-space: pre;" font-size="15px" font-family="Roboto, sans-serif"><tspan x="12" y="30.6" dominant-baseline="ideographic">Forecasts future trends </tspan><tspan x="12" y="48.6" dominant-baseline="ideographic">using historical data </tspan><tspan x="12" y="66.6" dominant-baseline="ideographic">insights.</tspan></text></g></g></g><g id="g-root-tx_1_zk1ugf6fys5p-fill" data-item-order="0" transform="translate(286, 237)"><g id="tx_1_zk1ugf6fys5p-fill" stroke="none" fill="#bbffde"><g><text style="font: bold 30px Roboto, sans-serif; white-space: pre;" font-weight="bold" font-size="30px" font-family="Roboto, sans-serif"><tspan x="13.39" y="46" dominant-baseline="ideographic">1</tspan></text></g></g></g><g id="g-root-tx_2_hteb1r6fyrd3-fill" data-item-order="0" transform="translate(394, 237)"><g id="tx_2_hteb1r6fyrd3-fill" stroke="none" fill="#d0e2ff"><g><text style="font: bold 30px Roboto, sans-serif; white-space: pre;" font-weight="bold" font-size="30px" font-family="Roboto, sans-serif"><tspan x="13.39" y="46" dominant-baseline="ideographic">2</tspan></text></g></g></g><g id="g-root-tx_3_v48cbz6fysxy-fill" data-item-order="0" transform="translate(286, 333)"><g id="tx_3_v48cbz6fysxy-fill" stroke="none" fill="#fff7ad"><g><text style="font: bold 30px Roboto, sans-serif; white-space: pre;" font-weight="bold" font-size="30px" font-family="Roboto, sans-serif"><tspan x="13.39" y="46" dominant-baseline="ideographic">3</tspan></text></g></g></g><g id="g-root-tx_4_ddksxb6fys5c-fill" data-item-order="0" transform="translate(394, 333)"><g id="tx_4_ddksxb6fys5c-fill" stroke="none" fill="#ffdebf"><g><text style="font: bold 30px Roboto, sans-serif; white-space: pre;" font-weight="bold" font-size="30px" font-family="Roboto, sans-serif"><tspan x="13.39" y="46" dominant-baseline="ideographic">4</tspan></text></g></g></g><g id="g-root-tx_diagnost_1cwrazz6fysqz-fill" data-item-order="0" transform="translate(28, 369)"><g id="tx_diagnost_1cwrazz6fysqz-fill" stroke="none" fill="#ffe711"><g><text style="font: bold 20px Roboto, sans-serif; white-space: pre;" font-weight="bold" font-size="20px" font-family="Roboto, sans-serif"><tspan x="80.33" y="34" dominant-baseline="ideographic">Diagnostic </tspan><tspan x="99.76" y="58" dominant-baseline="ideographic">Analysis</tspan></text></g></g></g><g id="g-root-tx_prescrip_2qrn36fyqkh-fill" data-item-order="0" transform="translate(496, 381)"><g id="tx_prescrip_2qrn36fyqkh-fill" stroke="none" fill="#f79438"><g><text style="font: bold 20px Roboto, sans-serif; white-space: pre;" font-weight="bold" font-size="20px" font-family="Roboto, sans-serif"><tspan x="12" y="34" dominant-baseline="ideographic">Prescriptive </tspan><tspan x="12" y="58" dominant-baseline="ideographic">Analysis</tspan></text></g></g></g><g id="g-root-tx_investig_zlx9pr6fyr64-fill" data-item-order="0" transform="translate(28, 429)"><g id="tx_investig_zlx9pr6fyr64-fill" stroke="none" fill="#f4f4f4"><g><text style="font: 15px Roboto, sans-serif; white-space: pre;" font-size="15px" font-family="Roboto, sans-serif"><tspan x="26.1" y="30.6" dominant-baseline="ideographic">Investigates causes of </tspan><tspan x="81.24" y="48.6" dominant-baseline="ideographic">historical data </tspan><tspan x="102.74" y="66.6" dominant-baseline="ideographic">anomalies.</tspan></text></g></g></g><g id="g-root-tx_suggests_1lseb8v6fyrya-fill" data-item-order="0" transform="translate(496, 441)"><g id="tx_suggests_1lseb8v6fyrya-fill" stroke="none" fill="#f4f4f4"><g><text style="font: 15px Roboto, sans-serif; white-space: pre;" font-size="15px" font-family="Roboto, sans-serif"><tspan x="12" y="27.6" dominant-baseline="ideographic">Suggests future actions </tspan><tspan x="12" y="45.6" dominant-baseline="ideographic">based on data analysis.</tspan></text></g></g></g><g id="g-root-0.g-0_fr_m7cdwv6fyrka-stroke" data-item-order="-322549" transform="translate(15, 87)"><g id="0.g-0_fr_m7cdwv6fyrka-stroke" fill="none" stroke-linecap="round" stroke-linejoin="round" stroke-miterlimit="4" stroke="#f4f4f4" stroke-width="2"><g><path d="M 347 10L 347 118M 347 334L 347 442M 683 226L 455 226M 239 226L 10 226"></path></g></g></g><g id="g-root-4.g-4_fr_hrivsf6fysck-stroke" data-item-order="-322538" transform="translate(349.6929931640625, 287.328125)"><g id="4.g-4_fr_hrivsf6fysck-stroke" fill="none" stroke-linecap="round" stroke-linejoin="round" stroke-miterlimit="4" stroke="#f4f4f4" stroke-width="2"><g><path d="M 10 116.5261C 21.424 128.3327 37.4359 135.6727 55.1621 135.6727C 89.8657 135.6727 117.9985 107.5399 117.9985 72.8364C 117.9985 38.1328 89.8657 10 55.1621 10C 38.1012 9.999999 22.6284 16.7994 11.3056 27.8362C 22.2469 39.1439 28.9798 54.5486 28.9798 71.5259C 28.9798 89.1686 21.7089 105.113 10 116.5261ZM 66.306641 115.671875C 66.306641 112.358175 63.620341 109.671875 60.306641 109.671875C 56.992941 109.671875 54.306641 112.358175 54.306641 115.671875C 54.306641 118.985575 56.992941 121.671875 60.306641 121.671875C 63.620341 121.671875 66.306641 118.985575 66.306641 115.671875ZM 62.306641 121.171875L 72.306641 151.671875L 144.306641 151.671875"></path></g></g></g><g id="g-root-3.g-3_fr_4goui76fyqrq-stroke" data-item-order="-322532" transform="translate(208, 303.69287109375)"><g id="3.g-3_fr_4goui76fyqrq-stroke" fill="none" stroke-linecap="round" stroke-linejoin="round" stroke-miterlimit="4" stroke="#f4f4f4" stroke-width="2"><g><path d="M 64.1452 10C 75.5583 21.7086 91.5025 28.9794 109.145 28.9794C 126.123 28.9794 141.5283 22.2459 152.8361 11.3038C 163.8732 22.6267 170.6727 38.0997 170.6727 55.1608C 170.6727 89.8644 142.5399 117.9972 107.8364 117.9972C 73.1328 117.9972 45 89.8644 45 55.1608C 45 37.4352 52.3395 21.4239 64.1452 10ZM 88 99.306641C 88 95.992941 90.6863 93.306641 94 93.306641C 97.3137 93.306641 100 95.992941 100 99.306641C 100 102.620341 97.3137 105.306641 94 105.306641C 90.6863 105.306641 88 102.620341 88 99.306641ZM 92 104.806641L 82 135.306641L 10 135.306641"></path></g></g></g><g id="g-root-2.g-2_fr_vcdr6fyrk0-stroke" data-item-order="-322526" transform="translate(333.3270263671875, 177)"><g id="2.g-2_fr_vcdr6fyrk0-stroke" fill="none" stroke-linecap="round" stroke-linejoin="round" stroke-miterlimit="4" stroke="#f4f4f4" stroke-width="2"><g><path d="M 116.5272 139.306094C 128.3331 127.882194 135.6727 111.870694 135.6727 94.144994C 135.6727 59.441394 107.5399 31.308594 72.8364 31.308594C 38.1328 31.308594 10 59.441394 10 94.144994C 10 111.205794 16.7993 126.678594 27.8361 138.001394C 39.1439 127.059494 54.5491 120.326194 71.5269 120.326194C 89.1696 120.326194 105.1141 127.597194 116.5272 139.306094ZM 82.672852 46C 82.672852 49.3137 79.986552 52 76.672852 52C 73.359152 52 70.672852 49.3137 70.672852 46C 70.672852 42.6863 73.359152 40 76.672852 40C 79.986552 40 82.672852 42.6863 82.672852 46ZM 78.672852 40.5L 88.672852 10L 160.672852 10"></path></g></g></g><g id="g-root-1.g-1_fr_1q6ce3z6fys5m-stroke" data-item-order="-322520" transform="translate(208, 177)"><g id="1.g-1_fr_1q6ce3z6fys5m-stroke" fill="none" stroke-linecap="round" stroke-linejoin="round" stroke-miterlimit="4" stroke="#f4f4f4" stroke-width="2"><g><path d="M 46.308594 92.8364C 46.308594 127.5399 74.441394 155.6727 109.144994 155.6727C 126.206294 155.6727 141.679494 148.873 153.002294 137.8357C 142.060494 126.5279 135.327194 111.1228 135.327194 94.145C 135.327194 76.5027 142.597794 60.5587 154.306094 49.1456C 142.882194 37.3396 126.870694 30 109.144994 30C 74.441394 30 46.308594 58.1328 46.308594 92.8364ZM 88 46C 88 49.3137 90.6863 52 94 52C 97.3137 52 100 49.3137 100 46C 100 42.6863 97.3137 40 94 40C 90.6863 40 88 42.6863 88 46ZM 92 40.5L 82 10L 10 10"></path></g></g></g><g id="g-root-tx_typesofd_1cvictr6fyqks-stroke" data-item-order="0" transform="translate(244, 39)"></g><g id="g-root-tx_descript_4jt7xr6fyryf-stroke" data-item-order="0" transform="translate(28, 117)"></g><g id="g-root-tx_predicti_magrcf6fysr1-stroke" data-item-order="0" transform="translate(496, 117)"></g><g id="g-root-tx_summariz_1qa38mn6fyq6g-stroke" data-item-order="0" transform="translate(28, 177)"></g><g id="g-root-tx_forecast_8zmq276fyr66-stroke" data-item-order="0" transform="translate(496, 177)"></g><g id="g-root-tx_1_zk1ugf6fys5p-stroke" data-item-order="0" transform="translate(286, 237)"></g><g id="g-root-tx_2_hteb1r6fyrd3-stroke" data-item-order="0" transform="translate(394, 237)"></g><g id="g-root-tx_3_v48cbz6fysxy-stroke" data-item-order="0" transform="translate(286, 333)"></g><g id="g-root-tx_4_ddksxb6fys5c-stroke" data-item-order="0" transform="translate(394, 333)"></g><g id="g-root-tx_diagnost_1cwrazz6fysqz-stroke" data-item-order="0" transform="translate(28, 369)"></g><g id="g-root-tx_prescrip_2qrn36fyqkh-stroke" data-item-order="0" transform="translate(496, 381)"></g><g id="g-root-tx_investig_zlx9pr6fyr64-stroke" data-item-order="0" transform="translate(28, 429)"></g><g id="g-root-tx_suggests_1lseb8v6fyrya-stroke" data-item-order="0" transform="translate(496, 441)"></g></g></g></svg>