<?xml version="1.0" encoding="utf-8" standalone="yes"?>
<!DOCTYPE svg PUBLIC "-//W3C//DTD SVG 1.1//EN" "http://www.w3.org/Graphics/SVG/1.1/DTD/svg11.dtd">
<svg width="914" height="591" viewBox="0 0 914 591" style="fill:none;stroke:none;fill-rule:evenodd;clip-rule:evenodd;stroke-linecap:round;stroke-linejoin:round;stroke-miterlimit:1.5;" version="1.1" xmlns="http://www.w3.org/2000/svg" xmlns:xlink="http://www.w3.org/1999/xlink"><style class="text-font-style fontImports" data-font-family="Roboto">@import url('https://fonts.googleapis.com/css2?family=Roboto:wght@400;700&amp;display=block');</style><g id="items" style="isolation: isolate"><g id="blend" style="mix-blend-mode: normal"><g id="g-root--1.ar_sy_vbqnhb706cco-fill" data-item-order="-251993" transform="translate(27, 182.595703125)"></g><g id="g-root-7.cu_sy_qvx5cv706d4x-fill" data-item-order="-251990" transform="translate(764.583984375, 200.19140625)"><g id="7.cu_sy_qvx5cv706d4x-fill" stroke="none" fill="url(#gradient-d5514c-497200298)"><g><path d="M 94 52C 94 75.196 75.196 94 52 94C 28.804 94 10 75.196 10 52C 10 28.804 28.804 10 52 10C 75.196 10 94 28.804 94 52Z"></path></g></g></g><g id="g-root-6.cu_sy_i0a53z706dxm-fill" data-item-order="-251986" transform="translate(644.583984375, 320.19146728515625)"><g id="6.cu_sy_i0a53z706dxm-fill" stroke="none" fill="url(#gradient-c67b35-424552419)"><g><path d="M 94 52C 94 75.196 75.196 94 52 94C 28.804 94 10 75.196 10 52C 10 28.804 28.804 10 52 10C 75.196 10 94 28.804 94 52Z"></path></g></g></g><g id="g-root-5.cu_sy_dkgmzj706epv-fill" data-item-order="-251982" transform="translate(524.583984375, 260.19140625)"><g id="5.cu_sy_dkgmzj706epv-fill" stroke="none" fill="url(#gradient-c3b321-14556876)"><g><path d="M 94 52C 94 75.196 75.196 94 52 94C 28.804 94 10 75.196 10 52C 10 28.804 28.804 10 52 10C 75.196 10 94 28.804 94 52Z"></path></g></g></g><g id="g-root-4.cu_sy_4pg3tr706ccs-fill" data-item-order="-251978" transform="translate(404.583984375, 380.19146728515625)"><g id="4.cu_sy_4pg3tr706ccs-fill" stroke="none" fill="url(#gradient-87aa3f-469929121)"><g><path d="M 94 52C 94 75.196 75.196 94 52 94C 28.804 94 10 75.196 10 52C 10 28.804 28.804 10 52 10C 75.196 10 94 28.804 94 52Z"></path></g></g></g><g id="g-root-3.cu_sy_9mlpb706d51-fill" data-item-order="-251974" transform="translate(284.583984375, 200.19140625)"><g id="3.cu_sy_9mlpb706d51-fill" stroke="none" fill="url(#gradient-40ae79-389135447)"><g><path d="M 94 52C 94 75.196 75.196 94 52 94C 28.804 94 10 75.196 10 52C 10 28.804 28.804 10 52 10C 75.196 10 94 28.804 94 52Z"></path></g></g></g><g id="g-root-2.cu_sy_1qf3nfj706dqm-fill" data-item-order="-251970" transform="translate(164.583984375, 320.19146728515625)"><g id="2.cu_sy_1qf3nfj706dqm-fill" stroke="none" fill="url(#gradient-2898bd-56937253)"><g><path d="M 94 52C 94 75.196 75.196 94 52 94C 28.804 94 10 75.196 10 52C 10 28.804 28.804 10 52 10C 75.196 10 94 28.804 94 52Z"></path></g></g></g><g id="g-root-1.cu_sy_1lza5b3706eiv-fill" data-item-order="-251966" transform="translate(44.583984375, 260.19140625)"><defs><linearGradient id="gradient-d5514c-497200298" x2="0" y2="1"><stop offset="0" stop-color="#e45752"></stop><stop offset="1" stop-color="#c54a46"></stop></linearGradient><linearGradient id="gradient-c67b35-424552419" x2="0" y2="1"><stop offset="0" stop-color="#dc8331"></stop><stop offset="1" stop-color="#b07239"></stop></linearGradient><linearGradient id="gradient-c3b321-14556876" x2="0" y2="1"><stop offset="0" stop-color="#ddc916"></stop><stop offset="1" stop-color="#a99c2c"></stop></linearGradient><linearGradient id="gradient-87aa3f-469929121" x2="0" y2="1"><stop offset="0" stop-color="#91bb39"></stop><stop offset="1" stop-color="#7d9844"></stop></linearGradient><linearGradient id="gradient-40ae79-389135447" x2="0" y2="1"><stop offset="0" stop-color="#3bc482"></stop><stop offset="1" stop-color="#449870"></stop></linearGradient><linearGradient id="gradient-2898bd-56937253" x2="0" y2="1"><stop offset="0" stop-color="#1fa9d7"></stop><stop offset="1" stop-color="#3187a3"></stop></linearGradient><linearGradient id="gradient-4f83d8-135982273" x2="0" y2="1"><stop offset="0" stop-color="#4e88e6"></stop><stop offset="1" stop-color="#4f7eca"></stop></linearGradient></defs><g id="1.cu_sy_1lza5b3706eiv-fill" stroke="none" fill="url(#gradient-4f83d8-135982273)"><g><path d="M 94 52C 94 75.196 75.196 94 52 94C 28.804 94 10 75.196 10 52C 10 28.804 28.804 10 52 10C 75.196 10 94 28.804 94 52Z"></path></g></g></g><g id="g-root-view_1d3n87z6zqxvl-fill" data-item-order="0" transform="translate(303, 219)"></g><g id="g-root-up_1hjgn6n706fb4-fill" data-item-order="0" transform="translate(783, 219)"></g><g id="g-root-tx_datacoll_4jtx7j6ztpfu-fill" data-item-order="0" transform="translate(15, 195)"><g id="tx_datacoll_4jtx7j6ztpfu-fill" stroke="none" fill="#f4f4f4"><g><text style="font: 20px Roboto, sans-serif; white-space: pre;" font-size="20px" font-family="Roboto, sans-serif"><tspan x="14.26" y="34" dominant-baseline="ideographic">Data Collection</tspan></text></g></g></g><g id="g-root-tx_machinel_1cws09r6ztq8e-fill" data-item-order="0" transform="translate(471, 171)"><g id="tx_machinel_1cws09r6ztq8e-fill" stroke="none" fill="#f4f4f4"><g><text style="font: 20px Roboto, sans-serif; white-space: pre;" font-size="20px" font-family="Roboto, sans-serif"><tspan x="15.56" y="34" dominant-baseline="ideographic">Machine Learning &amp; </tspan><tspan x="94.27" y="58" dominant-baseline="ideographic">AI</tspan></text></g></g></g><g id="g-root-tx_featuree_zlbhwf6ztrtb-fill" data-item-order="0" transform="translate(351, 507.00006103515625)"><g id="tx_featuree_zlbhwf6ztrtb-fill" stroke="none" fill="#f4f4f4"><g><text style="font: 20px Roboto, sans-serif; white-space: pre;" font-size="20px" font-family="Roboto, sans-serif"><tspan x="17.63" y="34" dominant-baseline="ideographic">Feature Engineering</tspan></text></g></g></g><g id="g-root-squa_9mov36zphjj-fill" data-item-order="0" transform="translate(543, 279)"></g><g id="g-root-tx_deployme_24ztr6ztr7o-fill" data-item-order="0" transform="translate(735, 111)"><g id="tx_deployme_24ztr6ztr7o-fill" stroke="none" fill="#f4f4f4"><g><text style="font: 20px Roboto, sans-serif; white-space: pre;" font-size="20px" font-family="Roboto, sans-serif"><tspan x="17.67" y="34" dominant-baseline="ideographic">Deployment &amp; </tspan><tspan x="22.79" y="58" dominant-baseline="ideographic">Optimization</tspan></text></g></g></g><g id="g-root-exce_ddli736zsc8y-fill" data-item-order="0" transform="translate(183, 339.00006103515625)"></g><g id="g-root-grap_zkp0tb6zpiby-fill" data-item-order="0" transform="translate(663, 339.00006103515625)"></g><g id="g-root-tx_explorat_qqayqn6ztq80-fill" data-item-order="0" transform="translate(249, 111)"><g id="tx_explorat_qqayqn6ztq80-fill" stroke="none" fill="#f4f4f4"><g><text style="font: 20px Roboto, sans-serif; white-space: pre;" font-size="20px" font-family="Roboto, sans-serif"><tspan x="12.21" y="34" dominant-baseline="ideographic">Exploratory Data </tspan><tspan x="48.11" y="58" dominant-baseline="ideographic">Analysis</tspan></text></g></g></g><g id="g-root-cog_1hegxnj6zqxoo-fill" data-item-order="0" transform="translate(423, 399.00006103515625)"></g><g id="g-root-tx_dataclea_hunyhr6ztr0p-fill" data-item-order="0" transform="translate(141, 447.00006103515625)"><g id="tx_dataclea_hunyhr6ztr0p-fill" stroke="none" fill="#f4f4f4"><g><text style="font: 20px Roboto, sans-serif; white-space: pre;" font-size="20px" font-family="Roboto, sans-serif"><tspan x="14.03" y="34" dominant-baseline="ideographic">Data Cleaning</tspan></text></g></g></g><g id="g-root-tx_datavisu_1q7m1jz6ztrt9-fill" data-item-order="0" transform="translate(603, 447.00006103515625)"><g id="tx_datavisu_1q7m1jz6ztrt9-fill" stroke="none" fill="#f4f4f4"><g><text style="font: 20px Roboto, sans-serif; white-space: pre;" font-size="20px" font-family="Roboto, sans-serif"><tspan x="13.7" y="34" dominant-baseline="ideographic">Data Visualization</tspan></text></g></g></g><g id="g-root-tx_datascie_40f336ztq83-fill" data-item-order="0" transform="translate(339, 39)"><g id="tx_datascie_40f336ztq83-fill" stroke="none" fill="#f4f4f4"><g><text style="font: 20px Roboto, sans-serif; white-space: pre;" font-size="20px" font-family="Roboto, sans-serif"><tspan x="15.58" y="34" dominant-baseline="ideographic">Data Science Workflow</tspan></text></g></g></g><g id="g-root-2_dilavz6zsbnn-fill" data-item-order="0" transform="translate(63, 279)"></g><g id="g-root--1.ar_sy_vbqnhb706cco-stroke" data-item-order="-251993" transform="translate(27, 182.595703125)"><g id="-1.ar_sy_vbqnhb706cco-stroke" fill="none" stroke-linecap="round" stroke-linejoin="round" stroke-miterlimit="4" stroke="#f4f4f4" stroke-width="2" stroke-dasharray="5.0, 7.0"><style>.fillAsStrokeColor-qqayqn7jzzt8 { fill:#f4f4f4; }</style><g><path d="M 850 248L 850 70C 850 36.86 823.14 10 790 10C 756.86 10 730 36.86 730 70L 730 190C 730 223.14 703.14 250 670 250C 636.86 250 610 223.14 610 190L 610 130C 610 96.86 583.14 70 550 70C 516.86 70 490 96.86 490 130L 490 250C 490 283.14 463.14 310 430 310C 396.86 310 370 283.14 370 250L 370 70C 370 36.86 343.14 10 310 10C 276.86 10 250 36.86 250 70L 250 190C 250 223.14 223.14 250 190 250C 156.86 250 130 223.14 130 190L 130 130C 130 96.86 103.14 70 70 70C 36.86 70 10 96.86 10 130L 10 250"></path><path d="M 843.5 242L 850 248.5L 856.5 242" stroke-dasharray="none"></path><path d="M 7 250C 7.000001 251.656866 8.343147 253.000012 10.000001 253.000012C 11.656856 253.000012 13.000001 251.656866 13.000001 250.000012C 13.000001 248.343158 11.656856 247.000012 10.000001 247.000012C 8.343147 247.000012 7.000001 248.343158 7.000001 250.000012Z" stroke-dasharray="none" class="fillAsStrokeColor-qqayqn7jzzt8"></path></g></g></g><g id="g-root-7.cu_sy_qvx5cv706d4x-stroke" data-item-order="-251990" transform="translate(764.583984375, 200.19140625)"><g id="7.cu_sy_qvx5cv706d4x-stroke" fill="none" stroke-linecap="round" stroke-linejoin="round" stroke-miterlimit="4" stroke="#f4f4f4" stroke-width="2"><g><path d="M 94 52C 94 75.196 75.196 94 52 94C 28.804 94 10 75.196 10 52C 10 28.804 28.804 10 52 10C 75.196 10 94 28.804 94 52Z"></path></g></g></g><g id="g-root-6.cu_sy_i0a53z706dxm-stroke" data-item-order="-251986" transform="translate(644.583984375, 320.19146728515625)"><g id="6.cu_sy_i0a53z706dxm-stroke" fill="none" stroke-linecap="round" stroke-linejoin="round" stroke-miterlimit="4" stroke="#f4f4f4" stroke-width="2"><g><path d="M 94 52C 94 75.196 75.196 94 52 94C 28.804 94 10 75.196 10 52C 10 28.804 28.804 10 52 10C 75.196 10 94 28.804 94 52Z"></path></g></g></g><g id="g-root-5.cu_sy_dkgmzj706epv-stroke" data-item-order="-251982" transform="translate(524.583984375, 260.19140625)"><g id="5.cu_sy_dkgmzj706epv-stroke" fill="none" stroke-linecap="round" stroke-linejoin="round" stroke-miterlimit="4" stroke="#f4f4f4" stroke-width="2"><g><path d="M 94 52C 94 75.196 75.196 94 52 94C 28.804 94 10 75.196 10 52C 10 28.804 28.804 10 52 10C 75.196 10 94 28.804 94 52Z"></path></g></g></g><g id="g-root-4.cu_sy_4pg3tr706ccs-stroke" data-item-order="-251978" transform="translate(404.583984375, 380.19146728515625)"><g id="4.cu_sy_4pg3tr706ccs-stroke" fill="none" stroke-linecap="round" stroke-linejoin="round" stroke-miterlimit="4" stroke="#f4f4f4" stroke-width="2"><g><path d="M 94 52C 94 75.196 75.196 94 52 94C 28.804 94 10 75.196 10 52C 10 28.804 28.804 10 52 10C 75.196 10 94 28.804 94 52Z"></path></g></g></g><g id="g-root-3.cu_sy_9mlpb706d51-stroke" data-item-order="-251974" transform="translate(284.583984375, 200.19140625)"><g id="3.cu_sy_9mlpb706d51-stroke" fill="none" stroke-linecap="round" stroke-linejoin="round" stroke-miterlimit="4" stroke="#f4f4f4" stroke-width="2"><g><path d="M 94 52C 94 75.196 75.196 94 52 94C 28.804 94 10 75.196 10 52C 10 28.804 28.804 10 52 10C 75.196 10 94 28.804 94 52Z"></path></g></g></g><g id="g-root-2.cu_sy_1qf3nfj706dqm-stroke" data-item-order="-251970" transform="translate(164.583984375, 320.19146728515625)"><g id="2.cu_sy_1qf3nfj706dqm-stroke" fill="none" stroke-linecap="round" stroke-linejoin="round" stroke-miterlimit="4" stroke="#f4f4f4" stroke-width="2"><g><path d="M 94 52C 94 75.196 75.196 94 52 94C 28.804 94 10 75.196 10 52C 10 28.804 28.804 10 52 10C 75.196 10 94 28.804 94 52Z"></path></g></g></g><g id="g-root-1.cu_sy_1lza5b3706eiv-stroke" data-item-order="-251966" transform="translate(44.583984375, 260.19140625)"><g id="1.cu_sy_1lza5b3706eiv-stroke" fill="none" stroke-linecap="round" stroke-linejoin="round" stroke-miterlimit="4" stroke="#f4f4f4" stroke-width="2"><g><path d="M 94 52C 94 75.196 75.196 94 52 94C 28.804 94 10 75.196 10 52C 10 28.804 28.804 10 52 10C 75.196 10 94 28.804 94 52Z"></path></g></g></g><g id="g-root-view_1d3n87z6zqxvl-stroke" data-item-order="0" transform="translate(303, 219)"><g id="view_1d3n87z6zqxvl-stroke" fill="none" stroke-linecap="round" stroke-linejoin="round" stroke-miterlimit="4" stroke="#f4f4f4" stroke-width="2"><g><path d="M 28.52 45.063999L 16 45.063999C 13.790861 45.063999 12 43.27314 12 41.063999L 12 16.048C 12 13.838861 13.790861 12.048 16 12.048L 46.018002 12.048C 48.227139 12.048 50.018002 13.838861 50.018002 16.048L 50.018002 29.666M 12 19.860001L 50.02 19.860001M 12 36.468002L 28.736 36.468002M 12 28.177999L 34.021999 28.177999M 27.530001 19.860001L 27.530001 45.063999M 38.662003 19.860001L 38.662003 28.177999M 42.155998 51.632C 47.618256 51.518284 51.955372 47.000343 51.846001 41.538002C 51.955372 36.075653 47.618256 31.557716 42.155998 31.444C 36.693745 31.557716 32.356628 36.075653 32.466 41.538002C 32.356628 47.000343 36.693745 51.518284 42.155998 51.632ZM 56 55.953999L 49 48.672001"></path></g></g></g><g id="g-root-up_1hjgn6n706fb4-stroke" data-item-order="0" transform="translate(783, 219)"><g id="up_1hjgn6n706fb4-stroke" fill="none" stroke-linecap="round" stroke-linejoin="round" stroke-miterlimit="4" stroke="#f4f4f4" stroke-width="2"><g><path d="M 11.5 56.5C 14.48672 56.5 17.473461 56.5 20.46018 53.5C 23.446899 56.5 26.43362 56.5 27.23008 56.5C 28.026541 56.5 31.013201 56.5 34 53.5C 36.986801 56.5 39.9734 56.5 40.77 56.5C 41.566399 56.5 44.553001 56.5 47.539799 53.5C 50.5266 56.5 53.513199 56.5 56.5 56.5M 50.299999 18.79162C 53.9716 18.79162 56.9482 17.15934 56.9482 15.145821C 56.9482 13.13228 53.9716 11.5 50.299999 11.5C 46.628201 11.5 43.651798 13.13228 43.651798 15.145821C 43.651798 17.15934 46.628201 18.79162 50.299999 18.79162ZM 43.651798 15.1457L 43.651798 25.010841C 43.651798 26.940981 46.654202 28.65666 50.299999 28.65666C 53.945801 28.65666 56.9482 26.940981 56.9482 25.010841L 56.9482 15.1457M 14.59252 48.799801C 14.59252 48.137199 14.37164 47.474602 13.70896 46.811798L 12.38358 45.486401C 11.500006 44.823799 11.279104 43.498402 11.720892 42.614799C 12.16268 41.510399 13.04626 41.0686 14.15074 41.0686L 15.9179 41.0686C 16.58058 41.0686 17.46414 40.847801 17.905941 40.405998C 18.347721 39.964199 18.568619 39.312401 18.568619 38.417801L 18.568619 36.650803C 18.568619 35.5462 19.2313 34.441799 20.11488 34.220802C 21.219341 33.779198 22.32382 34 22.9865 34.883598L 24.31188 36.209C 24.75366 36.650803 25.41634 37.092598 26.299919 37.092598C 27.183479 37.092598 27.625259 36.871597 28.287939 36.209L 29.613319 34.883598C 30.275999 34 31.6014 33.779198 32.485001 34.220802C 33.589401 34.662598 34.0312 35.5462 34.0312 36.650803L 34.0312 38.417801C 34.0312 39.080601 34.252197 39.964199 34.693802 40.405998C 35.135597 40.847801 36.019199 41.2896 36.681999 41.0686L 38.448997 41.0686C 39.5536 41.0686 40.658001 41.731201 40.878998 42.614799C 41.320801 43.719398 41.0998 44.823799 40.216202 45.486401L 38.8908 46.811798C 38.448997 47.253601 38.007202 47.916401 38.007202 48.799801M 21.44018 48.799801C 21.44018 46.148998 23.649139 43.7192 26.52076 43.7192C 29.17148 43.7192 31.3804 45.928001 31.3804 48.799801M 50.299999 33.399799L 50.299999 47.999802M 10 10M 46.299999 37.400002L 50.299999 33.400002L 54.299999 37.400002M 56.9482 20.039661C 56.9482 22.095821 53.971802 23.76268 50.299999 23.76268C 46.628201 23.76268 43.651798 22.095821 43.651798 20.039661"></path></g></g></g><g id="g-root-tx_datacoll_4jtx7j6ztpfu-stroke" data-item-order="0" transform="translate(15, 195)"></g><g id="g-root-tx_machinel_1cws09r6ztq8e-stroke" data-item-order="0" transform="translate(471, 171)"></g><g id="g-root-tx_featuree_zlbhwf6ztrtb-stroke" data-item-order="0" transform="translate(351, 507.00006103515625)"></g><g id="g-root-squa_9mov36zphjj-stroke" data-item-order="0" transform="translate(543, 279)"><g id="squa_9mov36zphjj-stroke" fill="none" stroke-linecap="round" stroke-linejoin="round" stroke-miterlimit="4" stroke="#f4f4f4" stroke-width="2"><g><path d="M 56.5 52.5C 56.5 54.700001 54.700001 56.5 52.5 56.5L 15.5 56.5C 13.3 56.5 11.5 54.700001 11.5 52.5L 11.5 15.5C 11.5 13.3 13.3 11.5 15.5 11.5L 52.5 11.5C 54.700001 11.5 56.5 13.3 56.5 15.5L 56.5 52.5ZM 47.5 20.5L 20.5 20.5L 20.5 30.5L 47.5 30.5L 47.5 20.5ZM 29.5 20.5L 29.5 30.5M 38.5 20.5L 38.5 30.5M 47.5 37.5L 20.5 37.5L 20.5 47.5L 47.5 47.5L 47.5 37.5ZM 29.5 37.5L 29.5 47.5M 38.5 37.5L 38.5 47.5"></path></g></g></g><g id="g-root-tx_deployme_24ztr6ztr7o-stroke" data-item-order="0" transform="translate(735, 111)"></g><g id="g-root-exce_ddli736zsc8y-stroke" data-item-order="0" transform="translate(183, 339.00006103515625)"><g id="exce_ddli736zsc8y-stroke" fill="none" stroke-linecap="round" stroke-linejoin="round" stroke-miterlimit="4" stroke="#f4f4f4" stroke-width="2"><g><path d="M 44.490002 51.226002L 49.292 56.986L 56.973999 56.986L 49.292 47.383999L 56.973999 37.781998L 49.292 37.781998L 44.490002 43.543999L 39.690002 37.781998L 32.007999 37.781998L 39.690002 47.383999L 32.007999 56.986L 39.690002 56.986L 44.490002 51.226002ZM 24.307999 54.674C 19.793949 54.675106 16.133999 51.016052 16.133999 46.501999L 16.133999 41.400002M 21.242001 46.501999L 16.133999 41.393997L 11.026 46.501999M 43.717999 13.414C 48.232052 13.412895 51.891998 17.071949 51.891998 21.586L 51.891998 27.716M 46.784 22.608L 51.891998 27.716L 57 22.608M 13.044 11.014L 35.517998 11.014C 35.517998 11.014 37.562 11.014 37.562 13.058001L 37.562 31.445999C 37.562 31.445999 37.562 33.489998 35.517998 33.489998L 13.044 33.489998C 13.044 33.489998 11 33.489998 11 31.445999L 11 13.058001C 11 13.058001 11 11.014 13.044 11.014M 11 17.216L 37.562 17.216M 11 22.608L 37.562 22.608M 11 28.152L 37.562 28.152M 23.144001 17.216L 23.144001 33.489998M 30.271999 17.216L 30.271999 33.489998"></path></g></g></g><g id="g-root-grap_zkp0tb6zpiby-stroke" data-item-order="0" transform="translate(663, 339.00006103515625)"><g id="grap_zkp0tb6zpiby-stroke" fill="none" stroke-linecap="round" stroke-linejoin="round" stroke-miterlimit="4" stroke="#f4f4f4" stroke-width="2"><g><path d="M 37 24C 37 27.865993 40.13401 31 44 31C 47.865993 31 51 27.865993 51 24C 51 20.134007 47.865993 17 44 17C 40.13401 17 37 20.134007 37 24M 17 51L 21.4 44.834C 21.556288 44.615219 21.794092 44.46859 22.059757 44.427197C 22.32542 44.385807 22.596561 44.453136 22.812 44.613998L 25.200001 46.400002C 25.641827 46.731369 26.268629 46.641827 26.6 46.200001L 32 39M 45.501999 17.162001L 44 24L 50.948002 23.15M 40 37L 50 37C 50 37 51 37 51 38L 51 50C 51 50 51 51 50 51L 40 51C 40 51 39 51 39 50L 39 38C 39 38 39 37 40 37M 43 43L 47 43M 43 47L 45 47M 18 17L 28 17C 28 17 29 17 29 18L 29 30C 29 30 29 31 28 31L 18 31C 18 31 17 31 17 30L 17 18C 17 18 17 17 18 17M 21 21L 25 21M 21 25L 23 25M 13 11L 55 11C 55 11 57 11 57 13L 57 55C 57 55 57 57 55 57L 13 57C 13 57 11 57 11 55L 11 13C 11 13 11 11 13 11"></path></g></g></g><g id="g-root-tx_explorat_qqayqn6ztq80-stroke" data-item-order="0" transform="translate(249, 111)"></g><g id="g-root-cog_1hegxnj6zqxoo-stroke" data-item-order="0" transform="translate(423, 399.00006103515625)"><g id="cog_1hegxnj6zqxoo-stroke" fill="none" stroke-linecap="round" stroke-linejoin="round" stroke-miterlimit="4" stroke="#f4f4f4" stroke-width="2"><g><path d="M 30.166 44.363998L 30.166 27.497999C 30.166 25.803589 31.539591 24.43 33.234001 24.43L 39.365997 24.43M 27.1 33.629997L 34.765999 33.629997M 31.028 14.45C 31.78653 15.292067 32.866669 15.772835 34 15.772835C 35.133331 15.772835 36.21347 15.292067 36.972 14.45L 38.893997 12.322001C 40.026901 11.0567 41.835304 10.644759 43.404449 11.294556C 44.973591 11.944353 45.961323 13.514201 45.868 15.21L 45.722 18.074001C 45.663898 19.204723 46.087708 20.307102 46.888302 21.107697C 47.6889 21.908295 48.791279 22.332104 49.922001 22.274L 52.799999 22.132C 54.4958 22.038679 56.065647 23.026409 56.715443 24.595551C 57.365242 26.164694 56.9533 27.973101 55.688 29.106001L 53.560001 31.028C 52.717934 31.78653 52.237167 32.866669 52.237167 34C 52.237167 35.133331 52.717934 36.21347 53.560001 36.972L 55.688 38.893997C 56.9533 40.026901 57.365242 41.835304 56.715443 43.404449C 56.065647 44.973591 54.4958 45.961323 52.799999 45.868L 49.936001 45.722C 48.805279 45.663898 47.7029 46.087708 46.902302 46.888302C 46.101707 47.6889 45.677898 48.791279 45.736 49.922001L 45.882 52.785999C 45.975323 54.4818 44.987591 56.051647 43.418449 56.701443C 41.849304 57.351242 40.040901 56.939301 38.908001 55.674L 36.986 53.546001C 36.22747 52.703934 35.147331 52.223167 34.014 52.223167C 32.880669 52.223167 31.800529 52.703934 31.042 53.546001L 29.120001 55.674C 27.99102 56.948452 26.179024 57.368576 24.604401 56.72097C 23.029778 56.073368 22.037666 54.499981 22.132 52.799999L 22.278 49.936001C 22.336102 48.805279 21.912292 47.7029 21.111698 46.902302C 20.3111 46.101707 19.208721 45.677898 18.077999 45.736L 15.214001 45.882C 13.518201 45.975323 11.948353 44.987591 11.298555 43.418449C 10.648759 41.849304 11.060699 40.040901 12.326 38.908001L 14.454 36.986C 15.296066 36.22747 15.776834 35.147331 15.776834 34.014C 15.776834 32.880669 15.296066 31.800529 14.454 31.042L 12.322001 29.106001C 11.0567 27.973101 10.644759 26.164694 11.294556 24.595551C 11.944353 23.026409 13.514201 22.038679 15.21 22.132L 18.074001 22.278C 19.204723 22.336102 20.307102 21.912292 21.107697 21.111698C 21.908295 20.3111 22.332104 19.208721 22.274 18.077999L 22.132 15.21C 22.038679 13.514201 23.026409 11.944353 24.595551 11.294556C 26.164694 10.644759 27.973101 11.0567 29.106001 12.322001Z"></path></g></g></g><g id="g-root-tx_dataclea_hunyhr6ztr0p-stroke" data-item-order="0" transform="translate(141, 447.00006103515625)"></g><g id="g-root-tx_datavisu_1q7m1jz6ztrt9-stroke" data-item-order="0" transform="translate(603, 447.00006103515625)"></g><g id="g-root-tx_datascie_40f336ztq83-stroke" data-item-order="0" transform="translate(339, 39)"></g><g id="g-root-2_dilavz6zsbnn-stroke" data-item-order="0" transform="translate(63, 279)"><g id="2_dilavz6zsbnn-stroke" fill="none" stroke-linecap="round" stroke-linejoin="round" stroke-miterlimit="4" stroke="#f4f4f4" stroke-width="2"><g><path d="M 19.5 31.0002C 23.91828 31.0002 27.5 29.56756 27.5 27.80024C 27.5 26.03294 23.91828 24.600239 19.5 24.600239C 15.08172 24.600239 11.5 26.03294 11.5 27.80024C 11.5 29.56756 15.08172 31.0002 19.5 31.0002ZM 11.5 27.79994L 11.5 40.599998C 11.5 42.400002 15.1 43.799999 19.5 43.799999C 23.9 43.799999 27.5 42.400002 27.5 40.599998L 27.5 27.79994M 51.202801 16.746601C 54.030602 16.746601 56.3228 15.50494 56.3228 13.97328C 56.3228 12.4416 54.030602 11.199936 51.202801 11.199936C 48.375198 11.199936 46.082802 12.4416 46.082802 13.97328C 46.082802 15.50494 48.375198 16.746601 51.202801 16.746601ZM 46.082802 13.97338L 46.082802 21.2267C 46.082802 22.720039 48.4296 24.00004 51.202801 24.00004C 53.9762 24.00004 56.3228 22.720039 56.3228 21.2267L 56.3228 13.97338M 51.202801 33.360199C 54.030602 33.360199 56.3228 32.118401 56.3228 30.5868C 56.3228 29.05514 54.030602 27.81348 51.202801 27.81348C 48.375198 27.81348 46.082802 29.05514 46.082802 30.5868C 46.082802 32.118401 48.375198 33.360199 51.202801 33.360199ZM 46.082802 30.587L 46.082802 37.840202C 46.082802 39.333599 48.4296 40.613602 51.202801 40.613602C 53.9762 40.613602 56.3228 39.333599 56.3228 37.840202L 56.3228 30.587M 51.202801 49.5466C 54.030602 49.5466 56.3228 48.305 56.3228 46.773201C 56.3228 45.2416 54.030602 44 51.202801 44C 48.375198 44 46.082802 45.2416 46.082802 46.773201C 46.082802 48.305 48.375198 49.5466 51.202801 49.5466ZM 46.082802 46.773399L 46.082802 54.026798C 46.082802 55.52 48.4296 56.799999 51.202801 56.799999C 53.9762 56.799999 56.3228 55.52 56.3228 54.026798L 56.3228 46.773399M 41.291599 17.4L 37.291599 17.4L 37.291599 50.599998L 41.291599 50.599998M 41.291599 34L 32.291599 34M 11.5 34.262199C 11.5 35.9538 14.959459 37.337601 19.50004 37.337601C 24.0406 37.337601 27.500059 35.9538 27.500059 34.262199"></path></g></g></g></g></g></svg>
