<?xml version="1.0" encoding="utf-8" standalone="yes"?>
<!DOCTYPE svg PUBLIC "-//W3C//DTD SVG 1.1//EN" "http://www.w3.org/Graphics/SVG/1.1/DTD/svg11.dtd">
<svg width="866" height="902" viewBox="0 0 866 902" style="fill:none;stroke:none;fill-rule:evenodd;clip-rule:evenodd;stroke-linecap:round;stroke-linejoin:round;stroke-miterlimit:1.5;" version="1.1" xmlns="http://www.w3.org/2000/svg" xmlns:xlink="http://www.w3.org/1999/xlink"><style class="text-font-style fontImports" data-font-family="Roboto">@import url('https://fonts.googleapis.com/css2?family=Roboto:wght@400;700&amp;display=block');</style><g id="items" style="isolation: isolate"><g id="blend" style="mix-blend-mode: normal"><g id="g-root-0.g-0_fr_1usfimb1tt8nif-fill" data-item-order="-656054" transform="translate(124.00004577636719, 333.9998779296875)"><g id="0.g-0_fr_1usfimb1tt8nif-fill" stroke="none" fill="url(#gradient-8a8a8a-330675446)"><g><path d="M 116.98 10.000002L 141 51.6045L 165.02 10.000001L 194.555 10L 216.373 31.8181L 203.998 78.0018L 250.182 65.6269L 271 86.4451L 271 117.352L 230 141.023L 271 164.695L 271 194.555L 249.393 216.162L 204 203.999L 216.163 249.392L 194.555 271L 164.443 271L 141 230.395L 117.557 271L 86.4451 271L 65.627 250.182L 78.0014 204L 31.8193 216.374L 10.000002 194.555L 10.000001 165.02L 51.6045 141L 10 116.98L 10 86.4451L 31.6074 64.8377L 77.0015 77.001L 64.8382 31.607L 86.4451 10.000002L 116.98 10.000002Z"></path></g></g></g><g id="g-root-8.g-8_fr_1qcm0hv1tt8oap-fill" data-item-order="-656050" transform="translate(174.97698974609375, 237)"><g id="8.g-8_fr_1qcm0hv1tt8oap-fill" stroke="none" fill="url(#gradient-7b63dc-211830244)"><g><path d="M 90.0234 148.605L 10 10.000014L 170.047 10L 90.0234 148.605Z"></path></g></g></g><g id="g-root-7.g-7_fr_1hhlhc31tt8lxn-fill" data-item-order="-656046" transform="translate(36.407989501953125, 246.407958984375)"><g id="7.g-7_fr_1hhlhc31tt8lxn-fill" stroke="none" fill="url(#gradient-ae58d5-381354595)"><g><path d="M 164.593 164.593L 10 123.17L 123.17 10L 164.593 164.593Z"></path></g></g></g><g id="g-root-6.g-6_fr_1d1rz7n1tt8mpx-fill" data-item-order="-656042" transform="translate(27, 384.9769287109375)"><g id="6.g-6_fr_1d1rz7n1tt8mpx-fill" stroke="none" fill="url(#gradient-ce519c-514854702)"><g><path d="M 148.605 90.0234L 10.000014 170.047L 10 10L 148.605 90.0234Z"></path></g></g></g><g id="g-root-5.g-5_fr_1464yyr1tt8nin-fill" data-item-order="-656038" transform="translate(37.407989501953125, 527.9998779296875)"><g id="5.g-5_fr_1464yyr1tt8nin-fill" stroke="none" fill="url(#gradient-c3b321-14556876)"><g><path d="M 164.593 10L 123.17 164.593L 10 51.4231L 164.593 10Z"></path></g></g></g><g id="g-root-4.g-4_fr_18lyh371tt8ni9-fill" data-item-order="-656034" transform="translate(174.97698974609375, 554.3948974609375)"><g id="4.g-4_fr_18lyh371tt8ni9-fill" stroke="none" fill="url(#gradient-c67b35-424552419)"><g><path d="M 90.0234 10L 170.047 148.605L 10 148.605L 90.0234 10Z"></path></g></g></g><g id="g-root-3.g-3_fr_zqbgub1tt8oaz-fill" data-item-order="-656030" transform="translate(318, 527.9989013671875)"><g id="3.g-3_fr_zqbgub1tt8oaz-fill" stroke="none" fill="url(#gradient-87aa3f-469929121)"><g><path d="M 10 10L 164.593 51.4231L 51.4231 164.593L 10 10Z"></path></g></g></g><g id="g-root-2.g-2_fr_vb4fsz1tt8lxh-fill" data-item-order="-656026" transform="translate(344, 384.9998779296875)"><g id="2.g-2_fr_vb4fsz1tt8lxh-fill" stroke="none" fill="url(#gradient-40ae79-389135447)"><g><path d="M 10 90.0234L 148.605 10L 148.605 170.047L 10 90.0234Z"></path></g></g></g><g id="g-root-1.g-1_fr_mfhfk31tt8mq7-fill" data-item-order="-656022" transform="translate(317.99798583984375, 247.4090576171875)"><g id="1.g-1_fr_mfhfk31tt8mq7-fill" stroke="none" fill="url(#gradient-2898bd-56937253)"><g><path d="M 10 164.593L 51.4231 10L 164.593 123.17L 10 164.593Z"></path></g></g></g><g id="g-root-1.g-1_1_fr_hznxfn1tt8nih-fill" data-item-order="-655992" transform="translate(542.9979858398438, 110.9990234375)"><g id="1.g-1_1_fr_hznxfn1tt8nih-fill" stroke="none" fill="url(#gradient-2898bd-56937253)"><g><path d="M 10 10L 10 39L 34 24.1778L 10 10Z"></path></g></g></g><g id="g-root-2.g-2_1_fr_djufb71tt8oar-fill" data-item-order="-655976" transform="translate(542.9979858398438, 206.9990234375)"><g id="2.g-2_1_fr_djufb71tt8oar-fill" stroke="none" fill="url(#gradient-40ae79-389135447)"><g><path d="M 10 10L 10 39L 34 24.1778L 10 10Z"></path></g></g></g><g id="g-root-3.g-3_1_fr_4otw5f1tt8lxp-fill" data-item-order="-655962" transform="translate(543, 302.9989013671875)"><g id="3.g-3_1_fr_4otw5f1tt8lxp-fill" stroke="none" fill="url(#gradient-87aa3f-469929121)"><g><path d="M 10 10L 10 39L 34 24.1778L 10 10Z"></path></g></g></g><g id="g-root-4.g-4_1_fr_90e0z1tt8mpz-fill" data-item-order="-655948" transform="translate(543, 386.9989013671875)"><g id="4.g-4_1_fr_90e0z1tt8mpz-fill" stroke="none" fill="url(#gradient-c67b35-424552419)"><g><path d="M 10 10L 10 39L 34 24.1778L 10 10Z"></path></g></g></g><g id="g-root-5.g-5_1_fr_1uuaxvn1tt8nb5-fill" data-item-order="-655934" transform="translate(542.9979858398438, 470.9989013671875)"><g id="5.g-5_1_fr_1uuaxvn1tt8nb5-fill" stroke="none" fill="url(#gradient-c3b321-14556876)"><g><path d="M 10 10L 10 39L 34 24.1778L 10 10Z"></path></g></g></g><g id="g-root-6.g-6_1_fr_1lynxmr1tt8o3v-fill" data-item-order="-655920" transform="translate(543, 555.0047607421875)"><g id="6.g-6_1_fr_1lynxmr1tt8o3v-fill" stroke="none" fill="url(#gradient-ce519c-514854702)"><g><path d="M 10 10L 10 39L 34 24.1778L 10 10Z"></path></g></g></g><g id="g-root-7.g-7_1_fr_1hjgwlf1tt8lqd-fill" data-item-order="-655906" transform="translate(543, 651.0567626953125)"><g id="7.g-7_1_fr_1hjgwlf1tt8lqd-fill" stroke="none" fill="url(#gradient-ae58d5-381354595)"><g><path d="M 10 10L 10 39L 34 24.1778L 10 10Z"></path></g></g></g><g id="g-root-8.g-8_1_fr_1hjgwlf1tt8lqf-fill" data-item-order="-655892" transform="translate(543, 747.4918212890625)"><defs><linearGradient id="gradient-8a8a8a-330675446" x2="0" y2="1"><stop offset="0" stop-color="#959595"></stop><stop offset="1" stop-color="#7f7f7f"></stop></linearGradient><linearGradient id="gradient-7b63dc-211830244" x2="0" y2="1"><stop offset="0" stop-color="#7f64e9"></stop><stop offset="1" stop-color="#7761cf"></stop></linearGradient><linearGradient id="gradient-ae58d5-381354595" x2="0" y2="1"><stop offset="0" stop-color="#b95ce3"></stop><stop offset="1" stop-color="#a354c7"></stop></linearGradient><linearGradient id="gradient-ce519c-514854702" x2="0" y2="1"><stop offset="0" stop-color="#dd57a8"></stop><stop offset="1" stop-color="#bf4a90"></stop></linearGradient><linearGradient id="gradient-c3b321-14556876" x2="0" y2="1"><stop offset="0" stop-color="#ddc916"></stop><stop offset="1" stop-color="#a99c2c"></stop></linearGradient><linearGradient id="gradient-c67b35-424552419" x2="0" y2="1"><stop offset="0" stop-color="#dc8331"></stop><stop offset="1" stop-color="#b07239"></stop></linearGradient><linearGradient id="gradient-87aa3f-469929121" x2="0" y2="1"><stop offset="0" stop-color="#91bb39"></stop><stop offset="1" stop-color="#7d9844"></stop></linearGradient><linearGradient id="gradient-40ae79-389135447" x2="0" y2="1"><stop offset="0" stop-color="#3bc482"></stop><stop offset="1" stop-color="#449870"></stop></linearGradient><linearGradient id="gradient-2898bd-56937253" x2="0" y2="1"><stop offset="0" stop-color="#1fa9d7"></stop><stop offset="1" stop-color="#3187a3"></stop></linearGradient></defs><g id="8.g-8_1_fr_1hjgwlf1tt8lqf-fill" stroke="none" fill="url(#gradient-7b63dc-211830244)"><g><path d="M 10 10L 10 39L 34 24.1778L 10 10Z"></path></g></g></g><g id="g-root-tx_understa_147dx4z1tteadd-fill" data-item-order="0" transform="translate(579, 782.9998779296875)"><g id="tx_understa_147dx4z1tteadd-fill" stroke="none" fill="#f4f4f4"><g><text style="font: 15px Roboto, sans-serif; white-space: pre;" font-size="15px" font-family="Roboto, sans-serif"><tspan x="12" y="27.92" dominant-baseline="ideographic">Understanding and applying ML </tspan><tspan x="12" y="45.92" dominant-baseline="ideographic">concepts</tspan></text></g></g></g><g id="g-root-grap_8vwr2b1ttbg20-fill" data-item-order="0" transform="translate(103, 312.9937744140625)"></g><g id="g-root-tx_librarie_925hxf1tte9z4-fill" data-item-order="0" transform="translate(579, 386.9998779296875)"><g id="tx_librarie_925hxf1tte9z4-fill" stroke="none" fill="#f79438"><g><text style="font: bold 20px Roboto, sans-serif; white-space: pre;" font-weight="bold" font-size="20px" font-family="Roboto, sans-serif"><tspan x="12" y="33.68" dominant-baseline="ideographic">Libraries</tspan></text></g></g></g><g id="g-root-tx_extendin_1usfimb1tte875-fill" data-item-order="0" transform="translate(579, 422.9998779296875)"><g id="tx_extendin_1usfimb1tte875-fill" stroke="none" fill="#f4f4f4"><g><text style="font: 15px Roboto, sans-serif; white-space: pre;" font-size="15px" font-family="Roboto, sans-serif"><tspan x="12" y="30.92" dominant-baseline="ideographic">Extending Python's capabilities</tspan></text></g></g></g><g id="g-root-flut_1qehfr71tta1hj-fill" data-item-order="0" transform="translate(51, 438.9927978515625)"></g><g id="g-root-2_htf6kj1tta03v-fill" data-item-order="0" transform="translate(411, 440.9998779296875)"></g><g id="g-root-tx_datamani_1hgz08z1tte9s2-fill" data-item-order="0" transform="translate(579, 470.9998779296875)"><g id="tx_datamani_1hgz08z1tte9s2-fill" stroke="none" fill="#ffe711"><g><text style="font: bold 20px Roboto, sans-serif; white-space: pre;" font-weight="bold" font-size="20px" font-family="Roboto, sans-serif"><tspan x="12" y="33.68" dominant-baseline="ideographic">Data Manipulation</tspan></text></g></g></g><g id="g-root-tx_handling_1464yyr1tte877-fill" data-item-order="0" transform="translate(579, 506.9998779296875)"><g id="tx_handling_1464yyr1tte877-fill" stroke="none" fill="#f4f4f4"><g><text style="font: 15px Roboto, sans-serif; white-space: pre;" font-size="15px" font-family="Roboto, sans-serif"><tspan x="12" y="30.92" dominant-baseline="ideographic">Handling and transforming data</tspan></text></g></g></g><g id="g-root-tx_fundamen_1uqk3cz1tte96r-fill" data-item-order="0" transform="translate(579, 147)"><g id="tx_fundamen_1uqk3cz1tte96r-fill" stroke="none" fill="#f4f4f4"><g><text style="font: 15px Roboto, sans-serif; white-space: pre;" font-size="15px" font-family="Roboto, sans-serif"><tspan x="12" y="27.92" dominant-baseline="ideographic">Fundamental building blocks of </tspan><tspan x="12" y="45.92" dominant-baseline="ideographic">Python programming</tspan></text></g></g></g><g id="g-root-tx_basicsyn_90wjr71tte7sy-fill" data-item-order="0" transform="translate(579, 111)"><g id="tx_basicsyn_90wjr71tte7sy-fill" stroke="none" fill="#1ac3fb"><g><text style="font: bold 20px Roboto, sans-serif; white-space: pre;" font-weight="bold" font-size="20px" font-family="Roboto, sans-serif"><tspan x="12" y="33.68" dominant-baseline="ideographic">Basic Syntax</tspan></text></g></g></g><g id="g-root-tx_essentia_18k31tv1tte8el-fill" data-item-order="0" transform="translate(579, 243)"><g id="tx_essentia_18k31tv1tte8el-fill" stroke="none" fill="#f4f4f4"><g><text style="font: 15px Roboto, sans-serif; white-space: pre;" font-size="15px" font-family="Roboto, sans-serif"><tspan x="12" y="27.92" dominant-baseline="ideographic">Essential for managing program </tspan><tspan x="12" y="45.92" dominant-baseline="ideographic">flow</tspan></text></g></g></g><g id="g-root-slid_zs6w3n1tt8o3m-fill" data-item-order="0" transform="translate(359, 312.9937744140625)"></g><g id="g-root-tx_datavisu_quoglf1tte9s4-fill" data-item-order="0" transform="translate(579, 554.9998779296875)"><g id="tx_datavisu_quoglf1tte9s4-fill" stroke="none" fill="#f366bb"><g><text style="font: bold 20px Roboto, sans-serif; white-space: pre;" font-weight="bold" font-size="20px" font-family="Roboto, sans-serif"><tspan x="12" y="33.68" dominant-baseline="ideographic">Data Visualization</tspan></text></g></g></g><g id="g-root-choo_vb4fsz1tta03q-fill" data-item-order="0" transform="translate(103, 568.9937744140625)"></g><g id="g-root-deco_18gyoeb1tta29w-fill" data-item-order="0" transform="translate(359, 568.9937744140625)"></g><g id="g-root-tx_understa_djufb71tte879-fill" data-item-order="0" transform="translate(579, 590.9998779296875)"><g id="tx_understa_djufb71tte879-fill" stroke="none" fill="#f4f4f4"><g><text style="font: 15px Roboto, sans-serif; white-space: pre;" font-size="15px" font-family="Roboto, sans-serif"><tspan x="12" y="27.92" dominant-baseline="ideographic">Understanding data trends and </tspan><tspan x="12" y="45.92" dominant-baseline="ideographic">patterns</tspan></text></g></g></g><g id="g-root-libr_1upb56r1tta1al-fill" data-item-order="0" transform="translate(231, 620.9937744140625)"></g><g id="g-root-tx_encapsul_hxsi6b1tte8en-fill" data-item-order="0" transform="translate(579, 338.9998779296875)"><g id="tx_encapsul_hxsi6b1tte8en-fill" stroke="none" fill="#f4f4f4"><g><text style="font: 15px Roboto, sans-serif; white-space: pre;" font-size="15px" font-family="Roboto, sans-serif"><tspan x="12" y="30.92" dominant-baseline="ideographic">Encapsulating code for reuse</tspan></text></g></g></g><g id="g-root-tx_statisti_8dwxv1tte9s6-fill" data-item-order="0" transform="translate(579, 650.9998779296875)"><g id="tx_statisti_8dwxv1tte9s6-fill" stroke="none" fill="#cb68f9"><g><text style="font: bold 20px Roboto, sans-serif; white-space: pre;" font-weight="bold" font-size="20px" font-family="Roboto, sans-serif"><tspan x="12" y="33.68" dominant-baseline="ideographic">Statistics</tspan></text></g></g></g><g id="g-root-tx_analyzin_1qduyo31tteadr-fill" data-item-order="0" transform="translate(579, 686.9998779296875)"><g id="tx_analyzin_1qduyo31tteadr-fill" stroke="none" fill="#f4f4f4"><g><text style="font: 15px Roboto, sans-serif; white-space: pre;" font-size="15px" font-family="Roboto, sans-serif"><tspan x="12" y="27.92" dominant-baseline="ideographic">Analyzing data with statistical </tspan><tspan x="12" y="45.92" dominant-baseline="ideographic">methods</tspan></text></g></g></g><g id="g-root-tx_controls_1hf3kzn1ttearo-fill" data-item-order="0" transform="translate(579, 207)"><g id="tx_controls_1hf3kzn1ttearo-fill" stroke="none" fill="#43dd93"><g><text style="font: bold 20px Roboto, sans-serif; white-space: pre;" font-weight="bold" font-size="20px" font-family="Roboto, sans-serif"><tspan x="12" y="33.68" dominant-baseline="ideographic">Control Structures</tspan></text></g></g></g><g id="g-root-tx_machinel_1hiufib1tte8sg-fill" data-item-order="0" transform="translate(579, 746.9998779296875)"><g id="tx_machinel_1hiufib1tte8sg-fill" stroke="none" fill="#8769fd"><g><text style="font: bold 20px Roboto, sans-serif; white-space: pre;" font-weight="bold" font-size="20px" font-family="Roboto, sans-serif"><tspan x="12" y="33.68" dominant-baseline="ideographic">Machine Learning</tspan></text></g></g></g><g id="g-root-tx_function_v8mjgj1tte9zi-fill" data-item-order="0" transform="translate(579, 302.9998779296875)"><g id="tx_function_v8mjgj1tte9zi-fill" stroke="none" fill="#a6da37"><g><text style="font: bold 20px Roboto, sans-serif; white-space: pre;" font-weight="bold" font-size="20px" font-family="Roboto, sans-serif"><tspan x="12" y="33.68" dominant-baseline="ideographic">Functions</tspan></text></g></g></g><g id="g-root-1_mbql1f1ttbh1l-fill" data-item-order="0" transform="translate(231, 260.9940185546875)"></g><g id="g-root-0.g-0_fr_1usfimb1tt8nif-stroke" data-item-order="-656054" transform="translate(124.00004577636719, 333.9998779296875)"><g id="0.g-0_fr_1usfimb1tt8nif-stroke" fill="none" stroke-linecap="round" stroke-linejoin="round" stroke-miterlimit="4" stroke="#f4f4f4" stroke-width="2"><g><path d="M 116.9795 10L 140.9999 51.6045L 165.0203 10.000001L 194.5549 10L 216.3729 31.8181L 203.998 78.0018L 250.1817 65.6269L 271 86.4451L 271 117.352L 230 141.0234L 271 164.6947L 271 194.5549L 249.3929 216.162L 204 203.999L 216.163 249.3919L 194.5549 271L 164.443 271L 140.9999 230.3954L 117.5569 271L 86.4451 271L 65.627 250.1818L 78.0014 203.9996L 31.8193 216.3741L 10 194.5549L 10 165.0205L 51.6045 141.0001L 10 116.9797L 10 86.4451L 31.6074 64.8377L 77.0015 77.001L 64.8382 31.607L 86.4451 10L 116.9795 10Z"></path></g></g></g><g id="g-root-8.g-8_fr_1qcm0hv1tt8oap-stroke" data-item-order="-656050" transform="translate(174.97698974609375, 237)"><g id="8.g-8_fr_1qcm0hv1tt8oap-stroke" fill="none" stroke-linecap="round" stroke-linejoin="round" stroke-miterlimit="4" stroke="#f4f4f4" stroke-width="2"><g><path d="M 90.0234 148.6045L 10 10L 170.0467 10L 90.0234 148.6045Z"></path></g></g></g><g id="g-root-7.g-7_fr_1hhlhc31tt8lxn-stroke" data-item-order="-656046" transform="translate(36.407989501953125, 246.407958984375)"><g id="7.g-7_fr_1hhlhc31tt8lxn-stroke" fill="none" stroke-linecap="round" stroke-linejoin="round" stroke-miterlimit="4" stroke="#f4f4f4" stroke-width="2"><g><path d="M 164.5933 164.5933L 10 123.1701L 123.1701 10L 164.5933 164.5933Z"></path></g></g></g><g id="g-root-6.g-6_fr_1d1rz7n1tt8mpx-stroke" data-item-order="-656042" transform="translate(27, 384.9769287109375)"><g id="6.g-6_fr_1d1rz7n1tt8mpx-stroke" fill="none" stroke-linecap="round" stroke-linejoin="round" stroke-miterlimit="4" stroke="#f4f4f4" stroke-width="2"><g><path d="M 148.6045 90.0234L 10 170.0467L 10 10L 148.6045 90.0234Z"></path></g></g></g><g id="g-root-5.g-5_fr_1464yyr1tt8nin-stroke" data-item-order="-656038" transform="translate(37.407989501953125, 527.9998779296875)"><g id="5.g-5_fr_1464yyr1tt8nin-stroke" fill="none" stroke-linecap="round" stroke-linejoin="round" stroke-miterlimit="4" stroke="#f4f4f4" stroke-width="2"><g><path d="M 164.5932 10L 123.1701 164.5933L 10 51.4231L 164.5932 10Z"></path></g></g></g><g id="g-root-4.g-4_fr_18lyh371tt8ni9-stroke" data-item-order="-656034" transform="translate(174.97698974609375, 554.3948974609375)"><g id="4.g-4_fr_18lyh371tt8ni9-stroke" fill="none" stroke-linecap="round" stroke-linejoin="round" stroke-miterlimit="4" stroke="#f4f4f4" stroke-width="2"><g><path d="M 90.0234 10L 170.0467 148.6045L 10 148.6045L 90.0234 10Z"></path></g></g></g><g id="g-root-3.g-3_fr_zqbgub1tt8oaz-stroke" data-item-order="-656030" transform="translate(318, 527.9989013671875)"><g id="3.g-3_fr_zqbgub1tt8oaz-stroke" fill="none" stroke-linecap="round" stroke-linejoin="round" stroke-miterlimit="4" stroke="#f4f4f4" stroke-width="2"><g><path d="M 10 10L 164.5933 51.4231L 51.4231 164.5933L 10 10Z"></path></g></g></g><g id="g-root-2.g-2_fr_vb4fsz1tt8lxh-stroke" data-item-order="-656026" transform="translate(344, 384.9998779296875)"><g id="2.g-2_fr_vb4fsz1tt8lxh-stroke" fill="none" stroke-linecap="round" stroke-linejoin="round" stroke-miterlimit="4" stroke="#f4f4f4" stroke-width="2"><g><path d="M 10 90.0234L 148.6045 10L 148.6045 170.0467L 10 90.0234Z"></path></g></g></g><g id="g-root-1.g-1_fr_mfhfk31tt8mq7-stroke" data-item-order="-656022" transform="translate(317.99798583984375, 247.4090576171875)"><g id="1.g-1_fr_mfhfk31tt8mq7-stroke" fill="none" stroke-linecap="round" stroke-linejoin="round" stroke-miterlimit="4" stroke="#f4f4f4" stroke-width="2"><g><path d="M 10 164.5933L 51.4231 10L 164.5933 123.1701L 10 164.5933Z"></path></g></g></g><g id="g-root-1.g-1_1_fr_hznxfn1tt8nih-stroke" data-item-order="-655992" transform="translate(542.9979858398438, 110.9990234375)"><g id="1.g-1_1_fr_hznxfn1tt8nih-stroke" fill="none" stroke-linecap="round" stroke-linejoin="round" stroke-miterlimit="4" stroke="#f4f4f4" stroke-width="2"><g><path d="M 10 10L 10 39L 34 24.1778L 10 10Z"></path></g></g></g><g id="g-root-2.g-2_1_fr_djufb71tt8oar-stroke" data-item-order="-655976" transform="translate(542.9979858398438, 206.9990234375)"><g id="2.g-2_1_fr_djufb71tt8oar-stroke" fill="none" stroke-linecap="round" stroke-linejoin="round" stroke-miterlimit="4" stroke="#f4f4f4" stroke-width="2"><g><path d="M 10 10L 10 39L 34 24.1778L 10 10Z"></path></g></g></g><g id="g-root-3.g-3_1_fr_4otw5f1tt8lxp-stroke" data-item-order="-655962" transform="translate(543, 302.9989013671875)"><g id="3.g-3_1_fr_4otw5f1tt8lxp-stroke" fill="none" stroke-linecap="round" stroke-linejoin="round" stroke-miterlimit="4" stroke="#f4f4f4" stroke-width="2"><g><path d="M 10 10L 10 39L 34 24.1778L 10 10Z"></path></g></g></g><g id="g-root-4.g-4_1_fr_90e0z1tt8mpz-stroke" data-item-order="-655948" transform="translate(543, 386.9989013671875)"><g id="4.g-4_1_fr_90e0z1tt8mpz-stroke" fill="none" stroke-linecap="round" stroke-linejoin="round" stroke-miterlimit="4" stroke="#f4f4f4" stroke-width="2"><g><path d="M 10 10L 10 39L 34 24.1778L 10 10Z"></path></g></g></g><g id="g-root-5.g-5_1_fr_1uuaxvn1tt8nb5-stroke" data-item-order="-655934" transform="translate(542.9979858398438, 470.9989013671875)"><g id="5.g-5_1_fr_1uuaxvn1tt8nb5-stroke" fill="none" stroke-linecap="round" stroke-linejoin="round" stroke-miterlimit="4" stroke="#f4f4f4" stroke-width="2"><g><path d="M 10 10L 10 39L 34 24.1778L 10 10Z"></path></g></g></g><g id="g-root-6.g-6_1_fr_1lynxmr1tt8o3v-stroke" data-item-order="-655920" transform="translate(543, 555.0047607421875)"><g id="6.g-6_1_fr_1lynxmr1tt8o3v-stroke" fill="none" stroke-linecap="round" stroke-linejoin="round" stroke-miterlimit="4" stroke="#f4f4f4" stroke-width="2"><g><path d="M 10 10L 10 39L 34 24.1778L 10 10Z"></path></g></g></g><g id="g-root-7.g-7_1_fr_1hjgwlf1tt8lqd-stroke" data-item-order="-655906" transform="translate(543, 651.0567626953125)"><g id="7.g-7_1_fr_1hjgwlf1tt8lqd-stroke" fill="none" stroke-linecap="round" stroke-linejoin="round" stroke-miterlimit="4" stroke="#f4f4f4" stroke-width="2"><g><path d="M 10 10L 10 39L 34 24.1778L 10 10Z"></path></g></g></g><g id="g-root-8.g-8_1_fr_1hjgwlf1tt8lqf-stroke" data-item-order="-655892" transform="translate(543, 747.4918212890625)"><g id="8.g-8_1_fr_1hjgwlf1tt8lqf-stroke" fill="none" stroke-linecap="round" stroke-linejoin="round" stroke-miterlimit="4" stroke="#f4f4f4" stroke-width="2"><g><path d="M 10 10L 10 39L 34 24.1778L 10 10Z"></path></g></g></g><g id="g-root-tx_understa_147dx4z1tteadd-stroke" data-item-order="0" transform="translate(579, 782.9998779296875)"></g><g id="g-root-grap_8vwr2b1ttbg20-stroke" data-item-order="0" transform="translate(103, 312.9937744140625)"><g id="grap_8vwr2b1ttbg20-stroke" fill="none" stroke-linecap="round" stroke-linejoin="round" stroke-miterlimit="4" stroke="#f4f4f4" stroke-width="2"><g><path d="M 15 11L 15 53L 57 53M 27 43.007999C 27 45.21714 28.790861 47.007999 31 47.007999C 33.209137 47.007999 35 45.21714 35 43.007999C 35 40.798859 33.209137 39.007999 31 39.007999C 28.790861 39.007999 27 40.798859 27 43.007999ZM 41 19.007999C 41 21.21714 42.790859 23.007999 45 23.007999C 47.209141 23.007999 49 21.21714 49 19.007999C 49 16.798861 47.209141 15.007999 45 15.007999C 42.790859 15.007999 41 16.798861 41 19.007999ZM 48.043999 16.416C 50.535545 14.260925 53.706142 13.051596 57 13M 33.893997 40.251999C 35.618439 37.693192 36.99894 34.918747 38 32C 39.151234 28.573011 40.733234 25.306183 42.708004 22.278M 15 53C 15 53 21.128 52.556 28.584 46.200001M 11 15L 15 11L 19 15M 53 49L 57 53L 53 57"></path></g></g></g><g id="g-root-tx_librarie_925hxf1tte9z4-stroke" data-item-order="0" transform="translate(579, 386.9998779296875)"></g><g id="g-root-tx_extendin_1usfimb1tte875-stroke" data-item-order="0" transform="translate(579, 422.9998779296875)"></g><g id="g-root-flut_1qehfr71tta1hj-stroke" data-item-order="0" transform="translate(51, 438.9927978515625)"><g id="flut_1qehfr71tta1hj-stroke" fill="none" stroke-linecap="round" stroke-linejoin="round" stroke-miterlimit="4" stroke="#f4f4f4" stroke-width="2"><g><path d="M 12 43L 56 43L 56 49L 12 49ZM 54 49L 54 55C 54 56.104568 53.104568 57 52 57L 48 57C 46.895432 57 46 56.104568 46 55L 46 49M 46 43L 46 13C 46 11.895431 46.895432 11 48 11L 52 11C 53.104568 11 54 11.895431 54 13L 54 43M 46 49L 46 55C 46 56.104568 45.104568 57 44 57L 40 57C 38.895432 57 38 56.104568 38 55L 38 49M 38 43L 38 19C 38 17.895432 38.895432 17 40 17L 44 17C 45.104568 17 46 17.895432 46 19L 46 43M 38 49L 38 55C 38 56.104568 37.104568 57 36 57L 32 57C 30.89543 57 30 56.104568 30 55L 30 49M 30 43L 30 25C 30 23.895432 30.89543 23 32 23L 36 23C 37.104568 23 38 23.895432 38 25L 38 43M 30 49L 30 55C 30 56.104568 29.10457 57 28 57L 24 57C 22.895432 57 22 56.104568 22 55L 22 49M 22 43L 22 31C 22 29.89543 22.895432 29 24 29L 28 29C 29.10457 29 30 29.89543 30 31L 30 43M 22 49L 22 55C 22 56.104568 21.104568 57 20 57L 16 57C 14.895431 57 14 56.104568 14 55L 14 49M 14 43L 14 37C 14 35.895432 14.895431 35 16 35L 20 35C 21.104568 35 22 35.895432 22 37L 22 43"></path></g></g></g><g id="g-root-2_htf6kj1tta03v-stroke" data-item-order="0" transform="translate(411, 440.9998779296875)"><g id="2_htf6kj1tta03v-stroke" fill="none" stroke-linecap="round" stroke-linejoin="round" stroke-miterlimit="4" stroke="#f4f4f4" stroke-width="2"><g><path d="M 40.5 19L 26.5 19L 30.5 11L 44.5 11L 40.5 19ZM 21.5 41L 12.5 36L 21.5 31L 30.5 36L 21.5 41ZM 21.5 41L 21.5 46M 16 51.5C 16 54.537567 18.462433 57 21.5 57C 24.537567 57 27 54.537567 27 51.5C 27 48.462437 24.537567 46 21.5 46C 18.462433 46 16 48.462437 16 51.5M 10 10M 46.5 41L 37.5 36L 46.5 31L 55.5 36L 46.5 41ZM 46.5 31L 46.5 29C 46.5 27.89543 45.604568 27 44.5 27L 23.5 27C 22.395432 27 21.5 27.89543 21.5 29L 21.5 31M 46.5 41L 46.5 46M 41 51.5C 41 54.537567 43.462437 57 46.5 57C 49.537567 57 52 54.537567 52 51.5C 52 48.462437 49.537567 46 46.5 46C 43.462437 46 41 48.462437 41 51.5M 34.5 19L 34.5 27"></path></g></g></g><g id="g-root-tx_datamani_1hgz08z1tte9s2-stroke" data-item-order="0" transform="translate(579, 470.9998779296875)"></g><g id="g-root-tx_handling_1464yyr1tte877-stroke" data-item-order="0" transform="translate(579, 506.9998779296875)"></g><g id="g-root-tx_fundamen_1uqk3cz1tte96r-stroke" data-item-order="0" transform="translate(579, 147)"></g><g id="g-root-tx_basicsyn_90wjr71tte7sy-stroke" data-item-order="0" transform="translate(579, 111)"></g><g id="g-root-tx_essentia_18k31tv1tte8el-stroke" data-item-order="0" transform="translate(579, 243)"></g><g id="g-root-slid_zs6w3n1tt8o3m-stroke" data-item-order="0" transform="translate(359, 312.9937744140625)"><g id="slid_zs6w3n1tt8o3m-stroke" fill="none" stroke-linecap="round" stroke-linejoin="round" stroke-miterlimit="4" stroke="#f4f4f4" stroke-width="2"><g><path d="M 15 11.5L 53 11.5C 53 11.5 57 11.5 57 15.5L 57 47.5C 57 47.5 57 51.5 53 51.5L 15 51.5C 15 51.5 11 51.5 11 47.5L 11 15.5C 11 15.5 11 11.5 15 11.5M 28 56C 28.276142 56 28.5 56.223858 28.5 56.5C 28.5 56.776142 28.276142 57 28 57C 27.723858 57 27.5 56.776142 27.5 56.5C 27.5 56.223858 27.723858 56 28 56M 34 56C 34.276142 56 34.5 56.223858 34.5 56.5C 34.5 56.776142 34.276142 57 34 57C 33.723858 57 33.5 56.776142 33.5 56.5C 33.5 56.223858 33.723858 56 34 56M 40 56C 40.276142 56 40.5 56.223858 40.5 56.5C 40.5 56.776142 40.276142 57 40 57C 39.723858 57 39.5 56.776142 39.5 56.5C 39.5 56.223858 39.723858 56 40 56M 20 27.5L 16 31.5L 20 35.5M 48 27.5L 52 31.5L 48 35.5"></path></g></g></g><g id="g-root-tx_datavisu_quoglf1tte9s4-stroke" data-item-order="0" transform="translate(579, 554.9998779296875)"></g><g id="g-root-choo_vb4fsz1tta03q-stroke" data-item-order="0" transform="translate(103, 568.9937744140625)"><g id="choo_vb4fsz1tta03q-stroke" fill="none" stroke-linecap="round" stroke-linejoin="round" stroke-miterlimit="4" stroke="#f4f4f4" stroke-width="2"><g><path d="M 10 10M 33 57L 27.694 49.846001C 26.634428 48.571899 26.808475 46.680058 28.082726 45.62067C 29.356976 44.561279 31.248793 44.7356 32.307999 46.009998L 37 51.653999L 37 32C 37 30.343147 38.343147 29 40 29C 41.656853 29 43 30.343147 43 32L 43 45L 49 45C 53.418278 45 57 48.581722 57 53L 57 57M 33 41L 25 41L 25 13.42C 24.999954 13.094841 25.158005 12.789962 25.423748 12.602589C 25.689491 12.415216 26.029745 12.368747 26.336 12.478L 38.335999 16.762001C 38.734215 16.90406 39.000061 17.281204 39 17.704L 39 25M 37 16L 37 11M 25 21L 31 21M 11 27L 17 27M 11 33L 17 33M 25 27L 34 27M 29 41L 29 34C 29 33.447716 29.447716 33 30 33L 33 33M 25 21L 12 21C 11.447716 21 11 21.447716 11 22L 11 40C 11 40.552284 11.447716 41 12 41L 25 41"></path></g></g></g><g id="g-root-deco_18gyoeb1tta29w-stroke" data-item-order="0" transform="translate(359, 568.9937744140625)"><g id="deco_18gyoeb1tta29w-stroke" fill="none" stroke-linecap="round" stroke-linejoin="round" stroke-miterlimit="4" stroke="#f4f4f4" stroke-width="2"><g><path d="M 11 34C 11 46.702549 21.297451 57 34 57C 46.702549 57 57 46.702549 57 34C 57 21.297451 46.702549 11 34 11C 21.297451 11 11 21.297451 11 34M 37.540001 46L 37.02 47.740002C 36.591888 49.033688 35.382683 49.907227 34.02 49.907227C 32.657318 49.907227 31.448112 49.033688 31.02 47.740002L 30 44.299999C 29.642103 43.11409 28.428217 42.406719 27.219999 42.68L 23.720001 43.5C 22.359406 43.815601 20.953011 43.200535 20.26104 41.987278C 19.569069 40.774021 19.75568 39.250397 20.720001 38.239998L 23.16 35.620003C 23.998983 34.702938 23.998983 33.297062 23.16 32.380001L 20.66 29.76C 19.988136 29.044485 19.68433 28.058811 19.836807 27.089216C 19.989283 26.119621 20.580956 25.274767 21.439999 24.799999M 34 18C 35.396278 17.981262 36.632736 18.898371 37.019997 20.24L 38 23.700001C 38.357895 24.88591 39.571781 25.593281 40.779999 25.32L 44.279999 24.5C 45.640594 24.184401 47.046989 24.799465 47.73896 26.012722C 48.430931 27.225981 48.244324 28.749603 47.279999 29.76L 44.84 32.379997C 44.001019 33.297062 44.001019 34.702938 44.84 35.620003L 46 36.860001M 36.279999 35.919998L 43.919998 42.400002M 31.02 34C 31.02 35.645809 32.354195 36.980003 34 36.980003C 35.645809 36.980003 36.980003 35.645809 36.980003 34C 36.980003 32.354195 35.645809 31.02 34 31.02C 32.354195 31.02 31.02 32.354195 31.02 34M 32.620003 31.360001L 29.34 23.66M 30.860001 19.700001C 31.322927 20.683361 31.217781 21.840195 30.585146 22.723976C 29.952511 23.607758 28.891346 24.080248 27.811247 23.959068C 26.731148 23.837891 25.801065 23.141998 25.380001 22.139999C 25.120705 20.592354 25.251308 19.004478 25.759998 17.52C 25.834133 17.225019 26.041029 16.981178 26.32 16.860001C 26.592028 16.730438 26.907972 16.730438 27.18 16.860001C 28.624647 17.484392 29.889833 18.460785 30.859999 19.700001ZM 44 46C 43.67437 45.983093 43.364113 45.856171 43.119999 45.639999C 42.547733 45.122227 42.469379 44.251633 42.940002 43.639999L 44.939999 41.34C 45.484974 40.723022 46.418804 40.643738 47.059998 41.16C 47.303825 41.378098 47.477772 41.663372 47.560001 41.980003L 48.259998 45.060001C 48.322216 45.371475 48.241474 45.694443 48.039997 45.939999C 47.836609 46.177727 47.531937 46.304054 47.220001 46.279999Z"></path></g></g></g><g id="g-root-tx_understa_djufb71tte879-stroke" data-item-order="0" transform="translate(579, 590.9998779296875)"></g><g id="g-root-libr_1upb56r1tta1al-stroke" data-item-order="0" transform="translate(231, 620.9937744140625)"><g id="libr_1upb56r1tta1al-stroke" fill="none" stroke-linecap="round" stroke-linejoin="round" stroke-miterlimit="4" stroke="#f4f4f4" stroke-width="2"><g><path d="M 23.556 55C 23.556 56.104568 22.660568 57 21.556 57L 13.556 57C 12.45143 57 11.556 56.104568 11.556 55L 11.556 13C 11.556 11.895431 12.45143 11 13.556 11L 21.556 11C 22.660568 11 23.556 11.895431 23.556 13ZM 35.556 55C 35.556 56.104568 34.660568 57 33.556 57L 25.556 57C 24.451431 57 23.556 56.104568 23.556 55L 23.556 29C 23.556 27.89543 24.451431 27 25.556 27L 33.556 27C 34.660568 27 35.556 27.89543 35.556 29ZM 29.556 50L 29.556 53M 17.556 15L 17.556 41M 29.556 31L 29.556 46M 17.548 46L 17.548 52M 56.344002 51.375999C 56.686886 52.425888 56.113838 53.554966 55.063999 53.897999L 47.464001 56.380001C 46.413532 56.722713 45.284187 56.14864 44.942001 55.098L 33.767998 20.874001C 33.425114 19.824112 33.998161 18.695032 35.048 18.352001L 42.647999 15.87C 43.698467 15.527285 44.827812 16.10136 45.169998 17.152ZM 40.091999 20.914L 46.296001 39.928001M 47.84 44.683998L 49.700001 50.388"></path></g></g></g><g id="g-root-tx_encapsul_hxsi6b1tte8en-stroke" data-item-order="0" transform="translate(579, 338.9998779296875)"></g><g id="g-root-tx_statisti_8dwxv1tte9s6-stroke" data-item-order="0" transform="translate(579, 650.9998779296875)"></g><g id="g-root-tx_analyzin_1qduyo31tteadr-stroke" data-item-order="0" transform="translate(579, 686.9998779296875)"></g><g id="g-root-tx_controls_1hf3kzn1ttearo-stroke" data-item-order="0" transform="translate(579, 207)"></g><g id="g-root-tx_machinel_1hiufib1tte8sg-stroke" data-item-order="0" transform="translate(579, 746.9998779296875)"></g><g id="g-root-tx_function_v8mjgj1tte9zi-stroke" data-item-order="0" transform="translate(579, 302.9998779296875)"></g><g id="g-root-1_mbql1f1ttbh1l-stroke" data-item-order="0" transform="translate(231, 260.9940185546875)"><g id="1_mbql1f1ttbh1l-stroke" fill="none" stroke-linecap="round" stroke-linejoin="round" stroke-miterlimit="4" stroke="#f4f4f4" stroke-width="2"><g><path d="M 21.9 50.722C 24.020437 50.369061 25.810703 48.951202 26.639999 46.967999M 14.842 27.091999C 18.933346 27.809448 22.448338 30.41087 24.33 34.113998M 21.566 30.458L 25.152 27.768M 30 11.346C 29.961555 13.350931 29.599562 15.336494 28.928001 17.226M 26 19C 26 20.104568 26.89543 21 28 21C 29.10457 21 30 20.104568 30 19C 30 17.895432 29.10457 17 28 17C 26.89543 17 26 17.895432 26 19ZM 38 23C 38 24.104568 38.895432 25 40 25C 41.104568 25 42 24.104568 42 23C 42 21.895432 41.104568 21 40 21C 38.895432 21 38 21.895432 38 23ZM 45 31C 45 32.104568 45.895432 33 47 33C 48.104568 33 49 32.104568 49 31C 49 29.89543 48.104568 29 47 29C 45.895432 29 45 29.89543 45 31ZM 38 38C 38 39.104568 38.895432 40 40 40C 41.104568 40 42 39.104568 42 38C 42 36.895432 41.104568 36 40 36C 38.895432 36 38 36.895432 38 38ZM 25 27C 25 28.10457 25.895432 29 27 29C 28.10457 29 29 28.10457 29 27C 29 25.895432 28.10457 25 27 25C 25.895432 25 25 25.895432 25 27ZM 23 36C 23 37.104568 23.895432 38 25 38C 26.10457 38 27 37.104568 27 36C 27 34.895432 26.10457 34 25 34C 23.895432 34 23 34.895432 23 36ZM 57 34C 57.008011 31.185829 55.553005 28.569696 53.158001 27.092001C 53.293533 26.501471 53.363956 25.897869 53.368 25.292C 53.408073 21.133251 50.242878 17.643175 46.099998 17.278C 46.141312 15.640398 45.524818 14.054508 44.388306 12.874773C 43.251789 11.695037 41.690002 11.019809 40.052002 11C 37.462227 11.148269 35.151451 12.67555 34 15C 32.848549 12.67555 30.537773 11.148269 27.948 11C 26.309998 11.019809 24.748211 11.695037 23.611694 12.874773C 22.47518 14.054508 21.858686 15.640398 21.9 17.278C 17.755573 17.643291 14.589825 21.135719 14.632 25.296C 14.632763 25.901501 14.699829 26.505098 14.832 27.095999C 12.44329 28.57963 10.990566 31.192043 10.990566 34.003998C 10.990566 36.815956 12.44329 39.428368 14.832 40.911999C 14.699829 41.502899 14.632763 42.106499 14.632 42.711998C 14.594027 46.869217 17.758669 50.356941 21.9 50.722C 21.858686 52.3596 22.47518 53.945492 23.611694 55.125225C 24.748211 56.304962 26.309998 56.98019 27.948 57C 30.33633 57.057899 32.59996 55.93581 34 53.999996C 35.40004 55.93581 37.663666 57.057899 40.051998 56.999996C 41.690002 56.98019 43.251789 56.304962 44.388306 55.125225C 45.524818 53.945492 46.141312 52.3596 46.099998 50.722C 50.244423 50.356709 53.410175 46.864277 53.368 42.703999C 53.363956 42.098129 53.293533 41.49453 53.157997 40.903999C 55.551788 39.427048 57.006618 36.812752 57 34ZM 34 15L 34 38M 34 45.916L 34 54M 52.346001 21.326L 46.799999 24.102001C 45.179813 24.913155 43.276203 24.932337 41.639999 24.153999M 40 36C 40.593044 33.525269 42.525269 31.593044 45.000004 31.000002M 46.099998 50.722C 45.548 48.799999 44.605999 47.321999 43 47M 25 45C 25 46.104568 25.895432 47 27 47C 28.10457 47 29 46.104568 29 45C 29 43.895432 28.10457 43 27 43C 25.895432 43 25 43.895432 25 45ZM 39 47C 39 48.104568 39.895432 49 41 49C 42.104568 49 43 48.104568 43 47C 43 45.895432 42.104568 45 41 45C 39.895432 45 39 45.895432 39 47Z"></path></g></g></g></g></g></svg>